<?xml version="1.0" encoding="utf-8"?>
<!-- Generator: Adobe Illustrator 16.0.0, SVG Export Plug-In . SVG Version: 6.00 Build 0)  -->
<!DOCTYPE svg PUBLIC "-//W3C//DTD SVG 1.1//EN" "http://www.w3.org/Graphics/SVG/1.1/DTD/svg11.dtd">
<svg version="1.1" id="图层_1" xmlns="http://www.w3.org/2000/svg" xmlns:xlink="http://www.w3.org/1999/xlink" x="0px" y="0px"
	 width="207px" height="26px" viewBox="0 0 207 26" enable-background="new 0 0 207 26" xml:space="preserve">
<g>
	<g>
		<path fill="#FFFFFE" d="M46.75,10.623c0,0.454,0.252,0.43,0.351,0.349c0.109-0.093,0.209-0.221,0.351-0.415
			c0.119-0.163,0.233-0.296,0.288-0.372c0.595-0.734,1.227-1.285,1.898-1.647c0.671-0.361,1.4-0.542,2.19-0.542
			c0.8,0,1.53,0.158,2.191,0.479c0.658,0.318,1.227,0.781,1.703,1.387c0.195,0.248,0.384,0.561,0.567,0.933
			c0.184,0.374,0.324,0.548,0.423,0.561c0.205,0.026,0.3-0.052,0.682-0.634c0.175-0.268,0.324-0.492,0.452-0.664
			c0.563-0.715,1.179-1.236,1.844-1.566c0.664-0.33,1.434-0.494,2.312-0.494c1.168,0,2.187,0.272,3.059,0.818
			c0.871,0.547,1.489,1.308,1.857,2.28c0.227,0.585,0.433,1.259,0.529,2.027s0.17,1.86,0.17,3.278v2.872c0,1.472,0,1.761,0,2.431
			c0,0.994,0.135,1.295,0.356,1.512c0.138,0.139,0.317,0.225,0.859,0.373c0.458,0.127,0.682,0.354,0.682,0.634
			c0,0.347-0.258,0.599-0.771,0.755s-1.343,0.236-2.49,0.236c-1.146,0-1.976-0.08-2.49-0.236c-0.516-0.156-0.771-0.408-0.771-0.755
			c0-0.28,0.25-0.501,0.753-0.657c0.504-0.157,0.815-0.342,0.949-0.544c0.132-0.196,0.213-0.629,0.213-1.571
			c0-0.797,0-5.503,0-5.503c0-2.091-0.175-3.509-0.683-4.39c-0.51-0.881-1.336-1.322-2.481-1.322c-0.801,0-1.608,0.266-2.418,0.796
			c-0.812,0.529-1.509,1.196-1.883,2.028c-0.115,0.255-0.245,0.809-0.245,1.449c0,0.832,0,6.793,0,7.307
			c0,0.649,0.082,0.993,0.185,1.171c0.194,0.341,0.536,0.462,1.002,0.603c0.465,0.141,0.697,0.354,0.697,0.634
			c0,0.347-0.254,0.599-0.763,0.755c-0.508,0.156-1.329,0.236-2.466,0.236c-1.126,0-1.94-0.08-2.442-0.236
			c-0.505-0.156-0.755-0.408-0.755-0.755c0-0.28,0.25-0.501,0.755-0.657c0.502-0.157,0.835-0.347,0.981-0.643
			c0.09-0.183,0.098-0.727,0.098-1.227v-5.743c0-2.044-0.095-3.515-0.609-4.396c-0.514-0.881-1.348-1.322-2.506-1.322
			c-0.79,0-1.599,0.271-2.426,0.813c-0.827,0.539-1.535,1.22-1.939,2.044c-0.109,0.222-0.197,0.515-0.22,0.86
			c-0.023,0.359-0.039,0.957-0.039,1.8v5.556c0,1.038,0.103,1.486,0.206,1.673c0.156,0.286,0.466,0.428,0.97,0.585
			c0.503,0.156,0.755,0.377,0.755,0.657c0,0.347-0.258,0.599-0.771,0.755c-0.513,0.156-1.344,0.236-2.49,0.236
			c-1.158,0-2.04-0.08-2.559-0.236s-0.774-0.408-0.774-0.755c0-0.28,0.247-0.501,0.751-0.657c0.502-0.157,0.857-0.34,0.992-0.544
			c0.162-0.251,0.211-0.701,0.211-1.776v-8.656c0-0.945-0.135-1.466-0.368-1.691c-0.127-0.127-0.261-0.213-0.878-0.368
			c-0.454-0.113-0.708-0.288-0.708-0.667c0-0.389,0.254-0.682,1.169-1.109c0.914-0.427,1.625-0.664,2.534-0.75
			c0.291-0.027,0.545,0.097,0.685,0.252c0.153,0.174,0.276,0.499,0.276,0.975V10.623z"/>
		<path fill="#FFFFFE" d="M92.752,21.722c0,0.83,0.156,1.137,0.268,1.298c0.171,0.251,0.373,0.387,0.875,0.544
			c0.504,0.156,0.755,0.377,0.755,0.657c0,0.347-0.257,0.599-0.771,0.755c-0.515,0.156-1.246,0.236-2.393,0.236
			c-1.158,0-2.08-0.08-2.599-0.236c-0.52-0.156-0.779-0.408-0.779-0.755c0-0.28,0.252-0.501,0.754-0.657
			c0.503-0.157,0.897-0.367,1.017-0.58c0.139-0.248,0.127-0.621,0.127-1.862L90.004,5.565c0-1.787-0.029-1.998-0.308-2.277
			c-0.145-0.143-0.369-0.268-0.953-0.349s-0.877-0.31-0.877-0.69c0-0.204,0.098-0.394,0.293-0.566
			c0.194-0.174,0.502-0.352,0.924-0.535c0.573-0.217,1.14-0.393,1.696-0.527c0.557-0.136,0.96-0.203,1.209-0.203
			c0.324,0,0.484,0.098,0.609,0.264c0.124,0.168,0.154,0.57,0.154,1.035c0,0.097,0,12.898,0,12.898c0,0.526,0.334,0.422,0.466,0.378
			c0.224-0.075,0.425-0.229,0.637-0.388c0.826-0.617,3.042-2.834,3.406-3.234c0.406-0.447,0.54-0.734,0.511-0.941
			c-0.034-0.246-0.238-0.454-0.715-0.616c-0.474-0.163-0.713-0.368-0.713-0.616c0-0.325,0.286-0.561,0.86-0.707
			c0.571-0.146,1.524-0.219,2.855-0.219c1.134,0,1.957,0.068,2.466,0.203s0.764,0.355,0.764,0.657c0,0.409-0.27,0.556-1.283,0.812
			c-0.868,0.219-1.444,0.619-2.041,1.106c-0.991,0.806-2.112,1.823-2.991,2.716c0,0-1.041,1.053-1.159,1.324
			c-0.026,0.059-0.094,0.148,0.003,0.32c0.098,0.174,0.372,0.551,0.621,0.885c1.256,1.688,2.311,3.023,3.371,4.252
			c1.061,1.227,1.898,2.084,2.516,2.571c0.323,0.271,0.843,0.583,1.594,0.716c0.743,0.131,0.94,0.205,0.94,0.521
			c0,0.304-0.344,0.544-0.897,0.67c-1.936,0.446-3.322-0.042-3.635-0.174c-0.336-0.143-0.744-0.38-1.274-0.986
			c-0.282-0.314-1.025-1.233-2.069-2.64c-1.043-1.406-1.624-2.15-2.739-3.525c-0.378-0.466-0.663-0.756-0.819-0.9
			c-0.156-0.146-0.274-0.221-0.35-0.221c-0.119,0-0.203,0.063-0.251,0.188c-0.049,0.125-0.072,0.404-0.072,0.836V21.722z"/>
		<path fill="#FFFFFE" d="M146.566,11.149c0.67-1.008,1.381-1.787,2.129-2.336c0.771-0.567,1.527-0.816,2.264-0.816
			c0.605,0,1.094,0.154,1.467,0.533s0.561,0.876,0.561,1.492c0,0.541-0.17,0.987-0.512,1.339c-0.34,0.352-0.77,0.526-1.289,0.526
			c-0.467,0-0.85-0.145-1.154-0.437c-0.258-0.251-0.377-0.465-0.514-0.95c-0.021-0.07-0.064-0.244-0.281-0.189
			c-0.887,0.227-1.758,0.92-2.164,1.667c-0.406,0.745-0.406,1.349-0.406,3.781v5.135c0,1.28,0.057,1.798,0.221,2.104
			c0.154,0.287,0.393,0.438,0.988,0.523c0.195,0.022,0.352,0.044,0.471,0.064c0.238,0.043,0.426,0.121,0.568,0.227
			c0.139,0.109,0.211,0.246,0.211,0.407c0,0.347-0.307,0.599-0.926,0.755c-0.615,0.156-1.58,0.236-2.887,0.236
			c-1.17,0-2.01-0.08-2.523-0.236c-0.516-0.156-0.771-0.408-0.771-0.755c0-0.28,0.227-0.493,0.682-0.634s0.727-0.273,0.842-0.373
			c0.346-0.293,0.416-0.676,0.416-1.529v-7.537c0-1.481-0.025-1.85-0.109-2.299c-0.064-0.339-0.27-0.706-0.469-0.877
			c-0.168-0.148-0.48-0.252-0.988-0.252c0,0-0.529,0.051-0.771-0.193c-0.131-0.135-0.203-0.287-0.203-0.471
			c0-0.207,0.082-0.393,0.244-0.561c0.164-0.168,0.459-0.387,0.893-0.592c0.553-0.293,1.082-0.495,1.59-0.674
			c0.51-0.179,0.777-0.234,0.982-0.234c0.291,0,0.609,0.202,0.77,0.673c0.162,0.47,0.299,1.3,0.406,2.491
			c0,0,0.012,0.119,0.133,0.098C146.484,11.247,146.555,11.164,146.566,11.149z"/>
		<path fill="#FFFFFE" d="M167.902,16.075h-10.238c-0.217,0-0.367,0.043-0.447,0.13c-0.082,0.087-0.121,0.253-0.121,0.503
			c0,2.023,0.535,3.746,1.605,5.038c1.072,1.292,2.439,1.817,4.105,1.817c1.926,0,3.428-0.912,4.652-2.169
			c0.482-0.497,0.721-0.762,1.027-0.832c0.209-0.049,0.449,0.048,0.568,0.161s0.178,0.258,0.178,0.43
			c0,0.238-0.074,0.501-0.219,0.787s-0.354,0.582-0.625,0.885c-0.811,0.897-1.75,1.582-2.814,2.052
			c-1.066,0.472-2.209,0.706-3.432,0.706c-2.314,0-4.232-0.803-5.752-2.409c-1.521-1.606-2.279-3.696-2.279-6.142
			c0-2.596,0.795-4.746,2.385-6.45s3.586-2.587,5.986-2.587c2.076,0,3.727,0.615,4.949,1.785c1.223,1.168,1.834,2.747,1.834,4.736
			c0,0.648-0.07,1.071-0.211,1.267C168.914,15.978,168.529,16.075,167.902,16.075z M157.918,14.68h8.035
			c0.242,0,0.406-0.046,0.492-0.134c0.084-0.092,0.125-0.263,0.125-0.518c0-1.238-0.416-2.267-1.252-3.088
			c-0.838-0.819-1.895-1.262-3.176-1.262c-0.678,0-1.322,0.18-1.93,0.477c-0.609,0.295-1.145,0.719-1.613,1.27
			c-0.369,0.445-0.668,0.927-0.895,1.445c-0.229,0.518-0.342,0.969-0.342,1.349c0,0.171,0.039,0.288,0.119,0.356
			C157.561,14.646,157.707,14.68,157.918,14.68z"/>
		<path fill="#FFFFFE" d="M182.922,14.81c0.012-0.141,0.01-0.352,0.01-0.633c0-1.655-0.27-2.842-0.809-3.562
			c-0.541-0.72-1.418-1.226-2.633-1.226c-0.619,0-1.305,0.185-1.787,0.486c-0.463,0.288-0.838,0.579-1.266,1.055
			c-0.09,0.109-0.227,0.277-0.404,0.504c-0.563,0.768-1.131,1.152-1.703,1.152c-0.35,0-0.631-0.104-0.844-0.309
			c-0.215-0.206-0.322-0.482-0.322-0.827c0-0.801,0.646-1.554,1.932-2.256c1.289-0.704,2.764-1.2,4.428-1.2
			c2.08,0,3.619,0.643,4.613,1.638c0.996,0.996,1.492,2.542,1.492,4.642c0,0.605,0.002,4.127,0.002,4.526
			c0,1.969-0.014,3.222,0.092,3.756c0.061,0.307,0.15,0.525,0.264,0.657c0.086,0.098,0.299,0.207,0.672,0.127
			c0.176-0.037,0.344-0.088,0.389-0.094c0.178-0.025,0.279,0.046,0.363,0.137c0.084,0.093,0.125,0.215,0.125,0.365
			c0,0.38-0.289,0.992-0.779,1.362c-0.504,0.378-1.01,0.472-1.514,0.472c-0.664,0-1.715-0.326-2.277-1.985
			c-0.018-0.052-0.055-0.179-0.117-0.24c-0.174-0.173-0.363,0.02-0.402,0.055c-0.742,0.691-1.574,1.315-2.398,1.654
			c-1.051,0.434-1.771,0.517-2.816,0.517c-1.666,0-3.092-0.564-4.041-1.531c-0.898-0.916-1.441-2.07-1.441-3.531
			c0-1.729,0.66-3.082,1.982-4.057c1.32-0.973,3.166-1.461,5.541-1.461c0.596,0,1.195,0.02,1.795,0.058
			c0.494,0.032,0.994,0.071,1.498,0.121C182.676,15.192,182.9,15.095,182.922,14.81z M182.607,16.597
			c-0.484-0.08-0.936-0.129-1.355-0.166c-0.5-0.043-0.963-0.063-1.391-0.063c-1.709,0-3.006,0.335-3.887,1.006
			c-0.885,0.671-1.326,1.645-1.326,2.92c0,1.062,0.385,1.98,0.969,2.62c0.646,0.708,1.525,1.023,2.627,1.023
			c1.406,0,2.525-0.521,3.398-1.358c0.871-0.838,1.254-2.101,1.254-3.485v-2.184C182.896,16.909,182.914,16.647,182.607,16.597z"/>
		<path fill="#FFFFFE" d="M201.922,5.675c0-0.92-0.012-1.613-0.115-1.992c-0.102-0.379-0.34-0.563-0.576-0.637
			c-0.109-0.033-0.299-0.064-0.57-0.098c-0.637-0.065-0.957-0.297-0.957-0.699c0-0.226,0.1-0.426,0.301-0.6
			c0.199-0.173,0.533-0.34,0.998-0.502c0.617-0.229,1.191-0.405,1.727-0.535c0.537-0.131,0.945-0.195,1.227-0.195
			c0.303,0,0.457,0.066,0.572,0.234c0.113,0.166,0.102,0.502,0.102,0.966v18.854c0,1.025,0.055,2.02,0.234,2.256
			c0.195,0.26,0.416,0.252,0.99,0.332c0.572,0.082,0.732,0.313,0.732,0.689c0,0.38-0.33,0.779-1.242,1.202
			c-0.916,0.422-1.783,0.632-2.605,0.632c-0.303,0-0.514-0.084-0.633-0.251c-0.119-0.169-0.18-0.483-0.18-0.949v-0.536
			c0-0.172-0.008-0.291-0.031-0.357c-0.023-0.063-0.061-0.094-0.125-0.105c-0.207-0.037-0.594,0.34-1.029,0.652
			c-0.729,0.525-1.445,0.951-2.209,1.2c-0.748,0.243-1.32,0.347-2.186,0.347c-2.164,0-3.934-0.973-5.307-2.498
			c-1.375-1.525-2.061-3.521-2.061-5.988c0-2.573,0.775-4.719,2.328-6.434s3.475-2.668,5.768-2.668c1.451,0,2.83,0.453,4.139,1.168
			c0.193,0.107,0.287,0.129,0.33,0.139c0.123,0.033,0.268,0.036,0.334-0.129c0.053-0.135,0.045-0.806,0.045-0.806V5.675z
			 M201.92,14.079c0-1.416-0.373-2.496-1.121-3.237c-0.75-0.74-1.84-1.144-3.271-1.144c-1.648,0-2.982,0.689-4.002,2.004
			s-1.529,3.047-1.529,5.2c0,1.979,0.473,3.573,1.414,4.778c0.945,1.207,2.182,1.883,3.711,1.883c1.83,0,3.115-1.014,3.764-1.647
			c0.672-0.655,1.035-1.709,1.035-2.593v-0.686V14.079z"/>
		<path fill="#FFFFFE" d="M137.904,10.282c-1.385-1.525-3.422-2.287-5.617-2.287c-1.037,0-1.967,0.181-2.783,0.542
			c-0.457,0.203-0.885,0.466-1.279,0.769c-0.213,0.162-0.391,0.311-0.613,0.521c-0.191,0.184-0.268,0.334-0.422,0.296
			c0,0-0.145-0.019-0.145-0.247c0-1.232,0-8.16,0-8.259c0-0.476-0.039-0.794-0.152-0.957c-0.115-0.162-0.334-0.243-0.658-0.243
			c-0.238,0-0.639,0.067-1.201,0.203c-0.563,0.135-1.125,0.311-1.688,0.527c-0.432,0.184-0.746,0.361-0.939,0.535
			c-0.195,0.173-0.295,0.362-0.295,0.566c0,0.381,0.285,0.606,0.854,0.682c0.568,0.078,0.863,0.233,1.014,0.358
			c0.234,0.194,0.357,0.558,0.357,2.272v15.611c-0.014,0.478-0.041,0.872-0.098,1.165c-0.133,0.694-0.484,0.936-0.992,1.226
			c-0.217,0.123-0.273,0.449-0.023,0.651c0.289,0.233,0.643,0.335,1.098,0.331c0.217-0.003,0.457-0.047,0.721-0.139
			c0.221-0.076,0.461-0.197,0.736-0.338c0.164-0.084,0.266-0.019,0.316,0.018c0.689,0.486,1.406,0.852,2.152,1.1
			c0.799,0.264,1.648,0.396,2.547,0.396c1.115,0,2.402-0.184,3.371-0.551c0.967-0.368,1.83-0.903,2.59-1.606
			c1.035-0.963,1.834-2.062,2.391-3.294c0.559-1.234,0.838-2.531,0.838-3.895C139.982,13.792,139.289,11.808,137.904,10.282z
			 M135.471,22.079c-1.008,1.34-2.574,2.012-4.207,2.012c-0.984,0-1.861-0.26-2.627-0.779c-0.77-0.519-1.246-1.158-1.43-1.914
			c-0.076-0.281-0.098-0.885-0.141-1.811c-0.045-0.924-0.021-2.095-0.021-3.512c0-1.471-0.012-2.453,0.057-2.945
			c0.07-0.492,0.229-0.883,0.387-1.162c0.408-0.725,0.996-1.256,1.732-1.661s1.523-0.608,2.367-0.608
			c1.525,0,3.012,0.648,3.963,1.947c0.951,1.297,1.428,3.008,1.428,5.127C136.979,18.97,136.477,20.737,135.471,22.079z"/>
		<path fill="#FFFFFE" d="M122.484,23.833c-0.113,0.016-0.299,0.067-0.434,0.079c-0.629,0.06-1.361-0.058-2.311-0.672
			c-0.797-0.514-1.598-1.095-1.889-1.312c-0.078-0.057-0.047-0.182-0.014-0.229c0.336-0.457,0.605-0.95,0.801-1.426
			c0.217-0.524,0.41-1.206,0.482-2.121c0,0,0.037-0.937,0.545-1.163c0.268-0.118,0.373-0.235,0.398-0.408
			c0.021-0.141-0.023-0.209-0.068-0.252c-0.047-0.042-0.145-0.084-0.299-0.084c-0.16,0-3.408,0-3.666,0
			c-0.205,0-0.359-0.004-0.465,0.059c-0.111,0.063-0.166,0.189-0.166,0.309c0,0.21,0.26,0.346,0.775,0.408
			c0.26,0.035,0.465,0.07,0.619,0.105c0.363,0.076,0.627,0.262,0.789,0.555c0.166,0.293,0.244,0.777,0.246,1.205
			c0.006,0.52-0.119,1.02-0.207,1.281c-0.137,0.398-0.248,0.639-0.432,0.89c-0.143,0.194-0.277,0.135-0.322,0.097
			c-2.275-1.906-4.111-3.538-5.424-5.148c-1.338-1.643-2.006-3.008-2.006-4.099c0-0.377,0.152-0.702,0.453-0.979
			c0.305-0.276,0.668-0.415,1.086-0.415c0.629,0,1.236,0.215,1.822,0.645c0.588,0.43,1.049,1.002,1.383,1.713
			c0.121,0.267,0.221,0.574,0.305,0.924c0.078,0.314,0.203,0.472,0.377,0.472c0.119,0,0.207-0.028,0.264-0.084
			c0.055-0.057,0.082-0.14,0.082-0.252c0-0.063,0-3.368,0-3.457c0-0.071,0.006-0.171-0.043-0.231
			c-0.049-0.059-0.164-0.086-0.238-0.062c-0.053,0.019-0.088,0.073-0.25,0.14c-0.156,0.063-0.348,0.099-0.461,0.099
			c-0.285-0.001-0.738-0.093-1.432-0.345c-0.695-0.252-1.348-0.377-1.957-0.377c-0.984,0-1.803,0.322-2.455,0.969
			c-0.654,0.646-0.98,1.462-0.98,2.447c0,0.342,0.051,0.797,0.139,1.122c0.055,0.209,0.145,0.435,0.264,0.729
			c0.057,0.145-0.027,0.224-0.078,0.244c-0.934,0.383-1.799,0.982-2.381,1.826c-0.615,0.89-0.84,1.881-0.84,2.941
			c0,1.518,0.623,2.766,1.824,3.747c1.197,0.981,2.742,1.489,4.635,1.489c0.936,0,1.855-0.146,2.762-0.436
			c0.824-0.266,1.566-0.646,2.227-1.105c0.018-0.012,0.066-0.049,0.107-0.051c0.045-0.002,0.08,0.03,0.098,0.043
			c0.617,0.415,1.246,0.797,1.855,1.102c0.064,0.033,0.127,0.063,0.182,0.09c0.434,0.199,0.963,0.31,1.348,0.341
			c0.912,0.073,1.699-0.106,2.301-0.353c0.484-0.199,0.881-0.501,0.881-0.811C122.717,23.828,122.555,23.823,122.484,23.833z
			 M114.133,23.655c-0.436,0.14-0.912,0.209-1.436,0.209c-0.727,0-1.455-0.168-2.18-0.502c-0.727-0.337-1.43-0.829-2.107-1.479
			c-0.613-0.587-1.094-1.221-1.439-1.908c-0.346-0.684-0.52-1.334-0.52-1.949c0-0.586,0.172-1.096,0.514-1.523
			c0.236-0.297,0.561-0.533,0.814-0.597c0.248-0.062,0.406,0.017,0.531,0.146c0.15,0.156,0.338,0.436,0.572,0.776
			c0.43,0.626,0.832,1.126,1.195,1.565c0.475,0.554,1.012,1.11,1.613,1.669c0.078,0.071,1.615,1.531,3.488,2.913
			c0.018,0.014,0.055,0.053,0.049,0.088c-0.002,0.039-0.045,0.076-0.053,0.08C114.842,23.367,114.492,23.538,114.133,23.655z"/>
		<path fill="#FFFFFE" d="M85.517,23.563c-0.503-0.157-0.704-0.293-0.877-0.544c-0.111-0.161-0.268-0.468-0.268-1.298
			c0,0,0-19.947,0-20.006c0-0.465-0.029-0.867-0.154-1.035c-0.124-0.166-0.283-0.264-0.607-0.264c-0.25,0-0.652,0.067-1.21,0.203
			c-0.558,0.135-1.122,0.311-1.695,0.527c-0.422,0.184-0.729,0.361-0.925,0.535c-0.194,0.173-0.293,0.362-0.293,0.566
			c0,0.381,0.293,0.609,0.878,0.69c0.584,0.081,0.809,0.206,0.952,0.349c0.279,0.279,0.308,0.49,0.308,2.277l0.001,15.556
			c0,1.241,0.014,1.614-0.127,1.862c-0.118,0.213-0.513,0.423-1.014,0.58c-0.504,0.156-0.755,0.377-0.755,0.657
			c0,0.347,0.259,0.599,0.778,0.755s1.44,0.236,2.599,0.236c1.146,0,1.879-0.08,2.394-0.236c0.513-0.156,0.77-0.408,0.77-0.755
			C86.271,23.94,86.019,23.72,85.517,23.563z"/>
		<g>
			<path fill="#FFFFFE" d="M74.586,4.249c0.499,0,0.916-0.182,1.25-0.541c0.336-0.359,0.497-0.792,0.48-1.299
				c-0.013-0.494-0.186-0.898-0.514-1.213c-0.329-0.316-0.748-0.473-1.257-0.473c-0.511,0-0.932,0.183-1.267,0.547
				c-0.336,0.366-0.495,0.818-0.479,1.357c0.012,0.462,0.192,0.848,0.537,1.156C73.682,4.095,74.098,4.249,74.586,4.249z"/>
			<path fill="#FFFFFE" d="M77.138,23.563c-0.504-0.157-0.704-0.293-0.879-0.544c-0.108-0.161-0.266-0.468-0.266-1.298
				c0,0,0-12.369,0-12.43c0-0.465-0.028-0.863-0.154-1.033c-0.124-0.168-0.284-0.264-0.607-0.264c-0.248,0-0.653,0.066-1.209,0.202
				c-0.559,0.134-1.124,0.312-1.695,0.527c-0.423,0.185-0.73,0.362-0.927,0.534c-0.193,0.175-0.29,0.364-0.29,0.568
				c0,0.381,0.29,0.609,0.876,0.689c0.583,0.082,0.809,0.206,0.951,0.35c0.28,0.278,0.309,0.49,0.309,2.277v7.978
				c0,1.241,0.015,1.614-0.125,1.862c-0.119,0.213-0.513,0.423-1.016,0.58c-0.504,0.156-0.756,0.377-0.756,0.657
				c0,0.347,0.262,0.599,0.779,0.755c0.52,0.156,1.44,0.236,2.598,0.236c1.147,0,1.881-0.08,2.395-0.236
				c0.513-0.156,0.771-0.408,0.771-0.755C77.892,23.94,77.64,23.72,77.138,23.563z"/>
		</g>
	</g>
	<path fill="#FFFFFE" d="M18.163,22.401L18.163,22.401c-0.882-5.77-1.104-7.68-1.126-7.871v-0.012
		c-0.002-0.004-0.002-0.006-0.002-0.006l0,0c-0.006-0.059-0.009-0.115-0.009-0.174c0-0.718,0.424-1.336,1.031-1.624v-0.001
		c0,0,0.293-0.173,1.999-0.642c0.245-0.067,0.473-0.159,0.603-0.211l0,0c0.76-0.315,1.294-1.064,1.294-1.937
		c0-1.1-0.846-2-1.92-2.089l-0.002-0.001c-3.269-0.289-3.844-0.445-3.844-0.445l0.001-0.001c-0.837-0.153-1.469-0.886-1.469-1.767
		c0-0.18,0.025-0.353,0.076-0.518h-0.002c0.16-0.566,0.174-0.672,0.204-0.92c0.028-0.24,0.035-0.572,0.035-0.572l0,0
		c0-0.018,0-0.033,0-0.049c0-1.738-1.408-3.146-3.145-3.146c-1.739,0-3.147,1.408-3.147,3.146c0,0.016,0,0.031,0.001,0.049H8.741
		c0,0,0.007,0.332,0.035,0.572c0.03,0.248,0.045,0.354,0.203,0.92l0,0c0.05,0.165,0.077,0.338,0.077,0.518
		c0,0.881-0.634,1.613-1.47,1.767L7.588,7.39c0,0-0.576,0.156-3.847,0.445l0,0v0.001C2.667,7.925,1.821,8.825,1.821,9.925
		c0,0.872,0.535,1.621,1.294,1.937l0,0c0.133,0.052,0.357,0.144,0.604,0.211c1.705,0.469,1.998,0.642,1.998,0.642l-0.001,0.001
		c0.607,0.288,1.031,0.906,1.031,1.624c0,0.059-0.003,0.115-0.009,0.174l0,0v0.006c-0.001,0.004-0.001,0.007-0.001,0.007
		c-0.024,0.196-0.246,2.106-1.126,7.876l0,0c-0.003,0.02-0.05,0.338-0.062,0.467c-0.024,0.236-0.025,0.391-0.026,0.418
		c-0.023,1.012,0.645,1.947,1.664,2.221c1.16,0.311,2.352-0.346,2.72-1.476l0,0l1.134-3.143h0.002
		c0.126-0.345,0.455-0.592,0.845-0.592c0.388,0,0.718,0.247,0.843,0.592l0,0l1.136,3.143c0.367,1.13,1.557,1.786,2.718,1.476
		c1.021-0.273,1.686-1.205,1.664-2.215h0.001c0,0-0.001-0.162-0.023-0.424C18.211,22.739,18.166,22.421,18.163,22.401z"/>
</g>
</svg>
