<?xml version="1.0" encoding="utf-8"?>
<!-- Generator: Adobe Illustrator 16.0.0, SVG Export Plug-In . SVG Version: 6.00 Build 0)  -->
<!DOCTYPE svg PUBLIC "-//W3C//DTD SVG 1.1//EN" "http://www.w3.org/Graphics/SVG/1.1/DTD/svg11.dtd">
<svg version="1.1" id="图层_1" xmlns="http://www.w3.org/2000/svg" xmlns:xlink="http://www.w3.org/1999/xlink" x="0px" y="0px"
	 width="1920px" height="200px" viewBox="0 0 1920 200" enable-background="new 0 0 1920 200" xml:space="preserve">
<rect y="0.144" stroke="#000000" stroke-width="7.9472" stroke-miterlimit="10" width="1920" height="200"/>
<path fill="none" stroke="#595757" stroke-linejoin="round" stroke-miterlimit="10" d="M1061.291,118.915
	c0,11.365-9.215,20.58-20.582,20.58H879.291c-11.367,0-20.582-9.215-20.582-20.58l0,0c0-11.367,9.215-20.58,20.582-20.58h161.418
	C1052.076,98.335,1061.291,107.548,1061.291,118.915L1061.291,118.915z"/>
<path fill="none" stroke="#DEDBDB" stroke-width="2" stroke-linecap="round" stroke-miterlimit="10" d="M945.745,163.354
	l12.113,12.115c1.184,1.182,3.102,1.182,4.282,0l12.114-12.115"/>
<text transform="matrix(1 0 0 1 914.5132 125.4678)" fill="#FFFFFF" font-family="'FZLTHJW--GB1-0'" font-size="21.0196" letter-spacing="1">卫 浴 类</text>
<g>
	
		<text transform="matrix(1.0335 0 0 1 838.8809 87.3979)" fill="#FFFFFF" stroke="#FFFFFF" stroke-width="3" stroke-miterlimit="10" font-family="'AovelSans-Light'" font-size="30.9895" letter-spacing="3.87">DEFEND BATH</text>
</g>
</svg>
