<?xml version="1.0" encoding="utf-8"?>
<!-- Generator: Adobe Illustrator 16.0.0, SVG Export Plug-In . SVG Version: 6.00 Build 0)  -->
<!DOCTYPE svg PUBLIC "-//W3C//DTD SVG 1.1//EN" "http://www.w3.org/Graphics/SVG/1.1/DTD/svg11.dtd">
<svg version="1.1" id="图层_1" xmlns="http://www.w3.org/2000/svg" xmlns:xlink="http://www.w3.org/1999/xlink" x="0px" y="0px"
	 width="80px" height="81px" viewBox="0 0 80 81" enable-background="new 0 0 80 81" xml:space="preserve">
<g>
	<g>
		<path fill="#7D7877" d="M6.645,80.764V47c-2.568-0.121-4.83-1.703-5.826-4.102c-1.023-2.483-0.457-5.326,1.441-7.242L35.295,2.618
			c1.256-1.255,2.924-1.945,4.697-1.945c1.779,0,3.451,0.69,4.707,1.945l33.037,33.038c1.904,1.904,2.469,4.747,1.439,7.243
			c-1.004,2.398-3.266,3.979-5.818,4.102l-0.002,33.764H6.645z"/>
	</g>
	<radialGradient id="SVGID_1_" cx="39.999" cy="46.5068" r="27.3936" gradientUnits="userSpaceOnUse">
		<stop  offset="0.0545" style="stop-color:#F7F8F8"/>
		<stop  offset="0.42" style="stop-color:#FCFCFC;stop-opacity:0.6135"/>
		<stop  offset="1" style="stop-color:#FFFFFF;stop-opacity:0"/>
	</radialGradient>
	<circle fill="url(#SVGID_1_)" cx="39.999" cy="46.508" r="27.393"/>
	<g>
		<path fill="#FFFFFF" d="M60.844,27.155L60.844,27.155c-0.076-0.501-0.096-0.665-0.098-0.683l0,0v-0.001l0,0v-0.015
			c0-0.063,0.037-0.116,0.09-0.141l0,0c0,0,0.023-0.016,0.172-0.057c0.021-0.005,0.041-0.013,0.053-0.018l0,0
			c0.064-0.027,0.111-0.092,0.111-0.167c0-0.097-0.072-0.174-0.166-0.182l0,0c-0.283-0.025-0.334-0.037-0.334-0.037h0.002
			c-0.074-0.015-0.129-0.078-0.129-0.154c0-0.016,0.004-0.031,0.008-0.045l0,0c0.014-0.048,0.014-0.059,0.018-0.08
			c0.002-0.021,0.004-0.049,0.004-0.049l0,0c0,0,0-0.004,0-0.005c0-0.149-0.123-0.272-0.273-0.272s-0.273,0.123-0.273,0.272
			c0,0.001,0,0.003,0,0.003v0.002c0,0,0,0.028,0.004,0.049c0.004,0.021,0.004,0.032,0.018,0.08l0,0
			c0.004,0.014,0.008,0.029,0.008,0.045c0,0.076-0.055,0.14-0.129,0.154l0,0c0,0-0.049,0.012-0.332,0.037l0,0l0,0
			c-0.094,0.008-0.166,0.085-0.166,0.182c0,0.075,0.045,0.14,0.111,0.167l0,0c0.012,0.005,0.031,0.013,0.053,0.018
			c0.148,0.041,0.172,0.057,0.172,0.057l0,0c0.055,0.024,0.092,0.078,0.092,0.141l-0.002,0.015l0,0v0.001l0,0
			c-0.002,0.018-0.021,0.182-0.098,0.683l0,0c0,0-0.004,0.028-0.006,0.04c-0.002,0.021-0.002,0.034-0.002,0.034
			c-0.002,0.089,0.055,0.17,0.145,0.194c0.1,0.026,0.203-0.03,0.236-0.128l0,0l0.098-0.272l0,0c0.01-0.029,0.039-0.051,0.072-0.051
			s0.063,0.021,0.072,0.051l0,0l0.1,0.272c0.031,0.098,0.135,0.154,0.234,0.128c0.088-0.024,0.146-0.104,0.145-0.192l0,0
			c0,0,0-0.014-0.002-0.036C60.848,27.183,60.846,27.157,60.844,27.155z"/>
		<path fill="#FFFFFF" d="M67.67,33.029L67.67,33.029c-0.078-0.499-0.098-0.663-0.098-0.682l0,0l0,0l0,0c0-0.005,0-0.011,0-0.016
			c0-0.062,0.035-0.116,0.088-0.141l0,0c0,0,0.025-0.015,0.172-0.056c0.021-0.006,0.041-0.014,0.053-0.018l0,0
			c0.066-0.028,0.111-0.093,0.111-0.168c0-0.096-0.072-0.174-0.166-0.182l0,0c-0.281-0.025-0.332-0.038-0.332-0.038l0,0
			c-0.072-0.013-0.129-0.076-0.129-0.152c0-0.017,0.004-0.031,0.008-0.045l0,0c0.014-0.05,0.016-0.059,0.018-0.079
			c0.002-0.021,0.002-0.051,0.002-0.051l0,0v-0.004c0-0.15-0.121-0.272-0.271-0.272s-0.271,0.122-0.271,0.272v0.004l0,0
			c0,0,0,0.029,0.002,0.051c0.004,0.021,0.004,0.029,0.02,0.079l0,0c0.002,0.014,0.006,0.028,0.006,0.045
			c0,0.076-0.055,0.14-0.127,0.152l0,0c0,0-0.051,0.013-0.332,0.038H66.42l0,0c-0.092,0.008-0.166,0.086-0.166,0.182
			c0,0.075,0.047,0.14,0.111,0.168l0,0c0.014,0.004,0.031,0.012,0.053,0.018c0.148,0.041,0.174,0.056,0.174,0.056l0,0
			c0.053,0.024,0.09,0.079,0.09,0.141c0,0.005-0.002,0.011-0.002,0.016l0,0l0,0l0,0c-0.002,0.019-0.021,0.183-0.098,0.682l0,0
			c0,0-0.004,0.03-0.006,0.041c-0.002,0.021-0.002,0.034-0.002,0.034c-0.002,0.09,0.055,0.17,0.145,0.193
			c0.1,0.028,0.203-0.028,0.234-0.127l0,0l0.098-0.272l0,0c0.014-0.029,0.041-0.051,0.074-0.051c0.035,0,0.063,0.021,0.072,0.051
			l0,0l0.1,0.272c0.031,0.099,0.135,0.155,0.234,0.127c0.09-0.023,0.146-0.104,0.145-0.191l0,0c0,0,0-0.013-0.002-0.036
			C67.672,33.059,67.67,33.032,67.67,33.029z"/>
		<path fill="#FFFFFF" d="M59.102,19.646L59.102,19.646c-0.076-0.499-0.096-0.664-0.098-0.681v-0.002l0,0l0,0v-0.015
			c0-0.063,0.035-0.116,0.088-0.141l0,0c0,0,0.025-0.016,0.174-0.056c0.021-0.007,0.043-0.014,0.051-0.019l0,0
			c0.066-0.027,0.113-0.092,0.113-0.168c0-0.095-0.074-0.173-0.166-0.181l0,0c-0.283-0.024-0.334-0.039-0.334-0.039l0,0
			c-0.072-0.013-0.127-0.076-0.127-0.152c0-0.017,0.002-0.031,0.008-0.045l0,0c0.014-0.049,0.014-0.059,0.018-0.08
			c0.002-0.021,0.002-0.05,0.002-0.05l0,0v-0.003c0-0.15-0.123-0.273-0.271-0.273c-0.15,0-0.271,0.123-0.271,0.273v0.003l0,0
			c0,0,0,0.029,0.002,0.05c0.002,0.021,0.004,0.031,0.018,0.08l0,0c0.004,0.014,0.008,0.028,0.008,0.045
			c0,0.076-0.057,0.14-0.129,0.152l0,0c0,0-0.051,0.015-0.332,0.039l0,0l0,0c-0.094,0.008-0.166,0.086-0.166,0.181
			c0,0.076,0.045,0.141,0.111,0.168l0,0c0.012,0.005,0.031,0.012,0.053,0.019c0.148,0.04,0.172,0.056,0.172,0.056l0,0
			c0.055,0.024,0.09,0.078,0.09,0.141v0.015l0,0l0,0v0.002c-0.002,0.017-0.021,0.182-0.098,0.681l0,0c0,0-0.006,0.03-0.006,0.041
			c-0.002,0.021-0.002,0.034-0.002,0.034c-0.004,0.09,0.057,0.171,0.145,0.194c0.1,0.026,0.203-0.029,0.234-0.129l0,0l0.098-0.271
			l0,0c0.012-0.031,0.039-0.052,0.074-0.052c0.033,0,0.063,0.021,0.072,0.052l0,0l0.1,0.271c0.031,0.1,0.135,0.155,0.234,0.129
			c0.088-0.023,0.146-0.104,0.145-0.191l0,0c0,0,0-0.015-0.002-0.037C59.105,19.676,59.102,19.649,59.102,19.646z"/>
		<path fill="#FFFFFF" d="M53.016,17.467L53.016,17.467c-0.076-0.499-0.096-0.665-0.098-0.682v-0.001l0,0l0,0
			c0-0.006,0-0.009,0-0.016c0-0.062,0.035-0.115,0.09-0.141l0,0c0,0,0.023-0.015,0.172-0.055c0.021-0.007,0.041-0.014,0.053-0.019
			l0,0c0.066-0.027,0.111-0.092,0.111-0.168c0-0.095-0.072-0.173-0.166-0.18l0,0c-0.283-0.025-0.332-0.039-0.332-0.039l0,0
			c-0.072-0.015-0.127-0.077-0.127-0.154c0-0.015,0.002-0.031,0.006-0.045l0,0c0.014-0.048,0.016-0.058,0.018-0.079
			s0.004-0.05,0.004-0.05l0,0v-0.004c0-0.15-0.123-0.271-0.273-0.271c-0.148,0-0.271,0.121-0.271,0.271v0.004l0,0
			c0,0,0,0.028,0.002,0.05c0.004,0.021,0.004,0.031,0.018,0.079l0,0c0.006,0.014,0.008,0.03,0.008,0.045
			c0,0.077-0.055,0.14-0.129,0.154l0,0c0,0-0.049,0.014-0.332,0.039l0,0l0,0c-0.092,0.007-0.166,0.085-0.166,0.18
			c0,0.076,0.045,0.141,0.113,0.168l0,0c0.01,0.005,0.029,0.012,0.051,0.019c0.148,0.04,0.174,0.055,0.174,0.055l0,0
			c0.053,0.025,0.088,0.079,0.088,0.141c0,0.007,0,0.01,0,0.016l0,0l0,0v0.001c-0.002,0.017-0.021,0.183-0.098,0.682l0,0
			c0,0-0.004,0.029-0.006,0.04c-0.002,0.021-0.002,0.035-0.002,0.037c-0.002,0.087,0.057,0.168,0.145,0.192
			c0.1,0.025,0.203-0.031,0.234-0.129l0,0l0.1-0.271l0,0c0.012-0.03,0.039-0.051,0.072-0.051s0.063,0.021,0.074,0.051l0,0
			l0.098,0.271c0.031,0.098,0.135,0.154,0.234,0.129c0.088-0.024,0.146-0.104,0.145-0.192l0,0c0,0,0-0.015-0.002-0.037
			C53.021,17.497,53.016,17.469,53.016,17.467z"/>
		<path fill="#FFFFFF" d="M54.281,22.875L54.281,22.875c-0.076-0.499-0.096-0.666-0.098-0.682v-0.002l0,0l0,0v-0.015
			c0-0.063,0.035-0.115,0.09-0.141l0,0c0,0,0.025-0.016,0.172-0.056c0.021-0.006,0.041-0.015,0.053-0.019l0,0
			c0.064-0.027,0.111-0.092,0.111-0.168c0-0.095-0.072-0.173-0.166-0.18l0,0c-0.281-0.025-0.332-0.039-0.332-0.039l0,0
			c-0.072-0.013-0.127-0.077-0.127-0.153c0-0.015,0.002-0.03,0.008-0.045l0,0c0.012-0.049,0.014-0.058,0.016-0.079
			c0.002-0.021,0.004-0.05,0.004-0.05l0,0c0,0,0-0.003,0-0.005c0-0.15-0.123-0.271-0.273-0.271s-0.271,0.121-0.271,0.271
			c0,0.002,0,0.004,0,0.004v0.001c0,0,0,0.029,0.002,0.05c0.004,0.021,0.004,0.03,0.018,0.079l0,0
			c0.006,0.015,0.008,0.03,0.008,0.045c0,0.076-0.055,0.141-0.127,0.153l0,0c0,0-0.051,0.014-0.334,0.039l0,0l0,0
			c-0.092,0.007-0.166,0.085-0.166,0.18c0,0.076,0.047,0.141,0.111,0.168l0,0c0.012,0.004,0.031,0.013,0.053,0.019
			c0.148,0.04,0.174,0.056,0.174,0.056l0,0c0.051,0.025,0.088,0.078,0.088,0.141v0.015l0,0l0,0v0.002
			c-0.002,0.016-0.021,0.183-0.098,0.682l0,0c0,0-0.004,0.029-0.006,0.04c0,0.021-0.002,0.034-0.002,0.034
			c-0.002,0.089,0.057,0.17,0.145,0.194c0.1,0.027,0.203-0.029,0.236-0.128l0,0l0.098-0.272l0,0c0.01-0.029,0.039-0.05,0.072-0.05
			c0.035,0,0.063,0.021,0.072,0.05l0,0l0.1,0.272c0.031,0.099,0.135,0.155,0.234,0.128c0.09-0.024,0.146-0.104,0.145-0.191l0,0
			c0,0,0-0.014-0.002-0.037C54.285,22.904,54.281,22.875,54.281,22.875z"/>
		<path fill="#FFFFFF" d="M53.41,26.677L53.41,26.677c-0.076-0.499-0.096-0.665-0.098-0.682v-0.001l0,0l0,0
			c0-0.005-0.002-0.01-0.002-0.016c0-0.062,0.039-0.115,0.092-0.141l0,0c0,0,0.023-0.015,0.174-0.056
			c0.02-0.005,0.039-0.013,0.051-0.018l0,0c0.066-0.026,0.111-0.092,0.111-0.168c0-0.095-0.072-0.173-0.166-0.18l0,0
			c-0.283-0.025-0.334-0.039-0.334-0.039h0.002c-0.072-0.015-0.129-0.077-0.129-0.154c0-0.015,0.004-0.03,0.008-0.044l0,0
			c0.014-0.049,0.016-0.059,0.018-0.08c0.002-0.02,0.004-0.049,0.004-0.049l0,0v-0.005c0-0.149-0.123-0.271-0.273-0.271
			s-0.271,0.122-0.271,0.271v0.005l0,0c0,0,0,0.029,0.002,0.049c0.004,0.021,0.004,0.031,0.018,0.08l0,0
			c0.006,0.014,0.008,0.029,0.008,0.044c0,0.077-0.057,0.14-0.129,0.154l0,0c0,0-0.049,0.014-0.332,0.039l0,0l0,0
			c-0.094,0.007-0.166,0.085-0.166,0.18c0,0.076,0.047,0.142,0.113,0.168l0,0c0.01,0.005,0.029,0.013,0.051,0.018
			c0.148,0.041,0.174,0.056,0.174,0.056l0,0c0.051,0.025,0.088,0.079,0.088,0.141c0,0.006,0,0.011,0,0.016l0,0l0,0v0.001
			c-0.002,0.017-0.021,0.183-0.098,0.682l0,0c0,0-0.004,0.03-0.006,0.04c-0.002,0.021-0.002,0.034-0.002,0.037
			c-0.002,0.087,0.057,0.168,0.145,0.192c0.1,0.026,0.203-0.03,0.234-0.127l0,0l0.1-0.272l0,0c0.01-0.03,0.039-0.052,0.072-0.052
			s0.063,0.021,0.074,0.052l0,0l0.098,0.272c0.031,0.097,0.135,0.153,0.234,0.127c0.088-0.024,0.146-0.105,0.145-0.191l0,0
			c0,0,0-0.015-0.002-0.038C53.414,26.708,53.41,26.679,53.41,26.677z"/>
		<path fill="#FFFFFF" d="M48.631,22.461L48.631,22.461c-0.076-0.5-0.096-0.665-0.098-0.682v-0.001l0,0l0,0c0-0.006,0-0.009,0-0.016
			c0-0.062,0.035-0.115,0.088-0.141l0,0c0,0,0.025-0.015,0.174-0.056c0.021-0.005,0.041-0.013,0.051-0.018l0,0
			c0.066-0.027,0.113-0.092,0.113-0.168c0-0.095-0.072-0.173-0.166-0.181l0,0c-0.283-0.025-0.332-0.038-0.332-0.038l0,0
			c-0.072-0.015-0.129-0.077-0.129-0.153c0-0.016,0.004-0.032,0.008-0.045l0,0c0.014-0.049,0.014-0.06,0.018-0.08
			c0.002-0.021,0.002-0.05,0.002-0.05l0,0c0-0.001,0-0.003,0-0.003c0-0.151-0.121-0.272-0.271-0.272s-0.271,0.121-0.271,0.271
			c0,0,0,0.003,0,0.004l0,0c0,0,0,0.028,0.002,0.05c0.002,0.021,0.004,0.031,0.018,0.08l0,0c0.006,0.013,0.008,0.029,0.008,0.045
			c0,0.076-0.057,0.139-0.129,0.153l0,0c0,0-0.049,0.013-0.332,0.038l0,0l0,0c-0.092,0.008-0.166,0.086-0.166,0.181
			c0,0.076,0.045,0.141,0.111,0.168l0,0c0.012,0.005,0.031,0.013,0.051,0.018c0.148,0.041,0.174,0.056,0.174,0.056l0,0
			c0.053,0.025,0.09,0.079,0.09,0.141c0,0.007,0,0.01,0,0.016l0,0l0,0v0.001c-0.004,0.017-0.021,0.182-0.098,0.682l0,0
			c0,0-0.006,0.029-0.006,0.04c-0.002,0.021-0.002,0.034-0.002,0.034c-0.002,0.09,0.057,0.172,0.145,0.195
			c0.1,0.025,0.201-0.031,0.234-0.129l0,0l0.098-0.271l0,0c0.012-0.03,0.039-0.05,0.074-0.05c0.033,0,0.063,0.02,0.072,0.05l0,0
			l0.1,0.271c0.031,0.098,0.133,0.154,0.232,0.129c0.09-0.023,0.148-0.105,0.146-0.192l0,0c0,0,0-0.014-0.002-0.037
			C48.635,22.491,48.631,22.463,48.631,22.461z"/>
		<path fill="#FFFFFF" d="M43.383,11.181L43.383,11.181c-0.076-0.498-0.096-0.665-0.098-0.681V10.5l0,0l0,0v-0.016
			c0-0.063,0.037-0.115,0.09-0.14l0,0c0,0,0.023-0.017,0.172-0.057c0.021-0.005,0.041-0.014,0.053-0.019l0,0
			c0.064-0.027,0.111-0.092,0.111-0.167c0-0.096-0.072-0.173-0.166-0.181l0,0c-0.283-0.026-0.334-0.039-0.334-0.039h0.002
			c-0.072-0.013-0.127-0.077-0.127-0.153c0-0.015,0.002-0.03,0.006-0.045l0,0c0.014-0.049,0.016-0.059,0.018-0.078
			c0.004-0.021,0.004-0.051,0.004-0.051l0,0c0-0.002,0-0.003,0-0.003c0-0.152-0.123-0.273-0.273-0.273S42.568,9.4,42.568,9.551
			c0,0,0,0.002,0,0.004l0,0c0,0,0,0.029,0.002,0.051c0.002,0.02,0.004,0.029,0.018,0.078l0,0c0.004,0.015,0.006,0.03,0.006,0.045
			c0,0.076-0.053,0.141-0.125,0.153l0,0c0,0-0.051,0.013-0.334,0.039l0,0l0,0c-0.094,0.008-0.166,0.085-0.166,0.181
			c0,0.075,0.047,0.14,0.111,0.167l0,0c0.012,0.005,0.031,0.014,0.053,0.019c0.148,0.04,0.174,0.057,0.174,0.057l0,0
			c0.051,0.024,0.088,0.077,0.088,0.14V10.5l0,0l0,0V10.5c-0.002,0.016-0.021,0.183-0.098,0.681l0,0c0,0-0.004,0.031-0.006,0.041
			c-0.002,0.021-0.002,0.034-0.002,0.034c-0.002,0.09,0.057,0.171,0.143,0.194c0.102,0.027,0.205-0.029,0.236-0.127l0,0l0.1-0.272
			l0,0C42.777,11.021,42.807,11,42.84,11s0.063,0.021,0.072,0.051l0,0l0.1,0.272c0.031,0.098,0.135,0.154,0.234,0.127
			c0.09-0.023,0.146-0.104,0.145-0.192h0.002c0,0-0.002-0.014-0.004-0.036C43.387,11.212,43.383,11.183,43.383,11.181z"/>
		<path fill="#FFFFFF" d="M34.926,9.002L34.926,9.002c-0.078-0.499-0.096-0.664-0.098-0.681V8.32l0,0l0,0l-0.002-0.016
			c0-0.061,0.037-0.115,0.092-0.139l0,0c0,0,0.023-0.016,0.172-0.056c0.021-0.007,0.039-0.016,0.053-0.019l0,0
			c0.066-0.027,0.111-0.093,0.111-0.169c0-0.095-0.074-0.172-0.166-0.181l0,0c-0.283-0.024-0.334-0.038-0.334-0.038h0.002
			c-0.074-0.013-0.129-0.076-0.129-0.153c0-0.016,0.004-0.029,0.008-0.044l0,0c0.014-0.049,0.014-0.058,0.018-0.08
			c0.002-0.021,0.002-0.05,0.002-0.05l0,0V7.373c0-0.151-0.121-0.272-0.271-0.272S34.11,7.221,34.11,7.373v0.004l0,0
			c0,0,0.002,0.029,0.004,0.05c0.002,0.022,0.004,0.031,0.018,0.08l0,0c0.004,0.015,0.006,0.028,0.006,0.044
			c0,0.077-0.055,0.141-0.127,0.153l0,0c0,0-0.051,0.014-0.332,0.038l0,0l0,0C33.584,7.75,33.51,7.828,33.51,7.922
			c0,0.076,0.047,0.142,0.113,0.169l0,0c0.012,0.003,0.031,0.012,0.053,0.019c0.146,0.04,0.172,0.056,0.172,0.056l0,0
			c0.053,0.023,0.09,0.078,0.09,0.139L33.936,8.32l0,0l0,0v0.002c0,0.017-0.02,0.182-0.096,0.681l0,0
			c-0.002,0.003-0.004,0.03-0.006,0.041c-0.002,0.021-0.002,0.034-0.002,0.034c-0.002,0.091,0.055,0.17,0.143,0.194
			c0.102,0.026,0.205-0.029,0.236-0.128l0,0l0.1-0.271l0,0c0.01-0.03,0.039-0.052,0.072-0.052s0.063,0.021,0.072,0.052l0,0
			l0.1,0.271c0.031,0.099,0.133,0.154,0.234,0.128c0.088-0.024,0.146-0.104,0.145-0.191l0,0c0,0,0-0.015-0.004-0.037
			C34.93,9.033,34.926,9.005,34.926,9.002z"/>
		<path fill="#FFFFFF" d="M33.184,18.555L33.184,18.555c-0.076-0.498-0.096-0.664-0.098-0.681l0,0v-0.001l0,0
			c0,0-0.002-0.01-0.002-0.016c0-0.061,0.037-0.115,0.09-0.14l0,0c0,0,0.025-0.015,0.174-0.056c0.021-0.005,0.039-0.014,0.051-0.019
			l0,0c0.066-0.027,0.111-0.092,0.111-0.168c0-0.095-0.072-0.173-0.164-0.18l0,0c-0.283-0.025-0.334-0.039-0.334-0.039l0,0
			c-0.072-0.014-0.127-0.077-0.127-0.153c0-0.017,0.002-0.03,0.008-0.045l0,0c0.014-0.049,0.014-0.059,0.018-0.079
			c0.002-0.021,0.002-0.051,0.002-0.051l0,0v-0.001c0-0.152-0.123-0.274-0.271-0.274c-0.152,0-0.273,0.122-0.273,0.272v0.003l0,0
			c0,0,0,0.03,0.004,0.051c0.002,0.021,0.002,0.03,0.016,0.079l0,0c0.006,0.015,0.008,0.028,0.008,0.045
			c0,0.076-0.055,0.14-0.127,0.153l0,0c0,0-0.049,0.014-0.334,0.039l0,0l0,0c-0.092,0.007-0.164,0.085-0.164,0.18
			c0,0.076,0.045,0.141,0.111,0.168l0,0c0.01,0.005,0.029,0.014,0.051,0.019c0.148,0.041,0.174,0.056,0.174,0.056l0,0
			c0.053,0.024,0.09,0.079,0.09,0.14c0,0.006-0.002,0.011-0.002,0.011v0.005v0.001l0,0c0,0.017-0.021,0.183-0.096,0.681l0,0
			c0,0-0.006,0.031-0.008,0.041c0,0.021,0,0.034,0,0.034c-0.004,0.091,0.055,0.171,0.143,0.195c0.102,0.026,0.205-0.029,0.236-0.128
			l0,0l0.098-0.272l0,0c0.012-0.029,0.039-0.051,0.074-0.051c0.033,0,0.063,0.021,0.072,0.051l0,0l0.098,0.272
			c0.033,0.099,0.137,0.154,0.234,0.128c0.09-0.024,0.148-0.104,0.146-0.192l0,0c0,0,0-0.014-0.004-0.037
			C33.188,18.586,33.184,18.558,33.184,18.555z"/>
		<path fill="#FFFFFF" d="M22.252,20.735L22.252,20.735c-0.076-0.499-0.096-0.665-0.098-0.682l0,0v-0.001l0,0v-0.016
			c0-0.062,0.035-0.115,0.088-0.14v-0.001c0,0,0.027-0.015,0.172-0.056c0.023-0.005,0.043-0.014,0.055-0.018l0,0
			c0.066-0.026,0.111-0.092,0.111-0.168c0-0.096-0.072-0.173-0.166-0.18l0,0c-0.283-0.025-0.334-0.038-0.334-0.038l0,0
			c-0.07-0.015-0.125-0.078-0.125-0.154c0-0.015,0.002-0.03,0.006-0.046l0,0c0.014-0.049,0.016-0.057,0.018-0.078
			c0.002-0.021,0.002-0.05,0.002-0.05l0,0v-0.005c0-0.149-0.121-0.271-0.271-0.271s-0.271,0.122-0.271,0.271v0.005l0,0
			c0,0,0,0.029,0.002,0.05c0.002,0.021,0.004,0.029,0.018,0.078l0,0c0.004,0.016,0.006,0.031,0.006,0.046
			c0,0.076-0.055,0.14-0.127,0.154l0,0c0,0-0.049,0.013-0.332,0.038l0,0l0,0c-0.094,0.007-0.166,0.084-0.166,0.18
			c0,0.076,0.045,0.142,0.111,0.168l0,0c0.012,0.004,0.031,0.013,0.053,0.018c0.146,0.041,0.174,0.056,0.174,0.056v0.001
			c0.051,0.024,0.088,0.078,0.088,0.14v0.016l0,0v0.001l0,0c-0.004,0.017-0.021,0.183-0.098,0.682l0,0c0,0-0.004,0.03-0.006,0.041
			c-0.002,0.021-0.002,0.033-0.002,0.033c-0.002,0.091,0.055,0.171,0.143,0.195c0.102,0.027,0.205-0.029,0.238-0.127l0,0
			l0.098-0.272l0,0c0.01-0.029,0.039-0.052,0.072-0.052s0.063,0.022,0.072,0.052l0,0l0.1,0.272c0.031,0.098,0.133,0.154,0.234,0.127
			c0.09-0.024,0.146-0.104,0.145-0.192h0.002c0,0-0.002-0.013-0.004-0.036C22.256,20.765,22.252,20.737,22.252,20.735z"/>
		<path fill="#FFFFFF" d="M40.432,21.825L40.432,21.825c-0.076-0.5-0.096-0.664-0.098-0.681v-0.001v-0.001l0,0
			c-0.002-0.006-0.002-0.011-0.002-0.011c0-0.067,0.037-0.119,0.09-0.146l0,0c0,0,0.025-0.015,0.172-0.056
			c0.021-0.006,0.041-0.013,0.055-0.019l0,0c0.064-0.027,0.111-0.091,0.111-0.167c0-0.096-0.074-0.174-0.166-0.182l0,0
			c-0.283-0.024-0.334-0.038-0.334-0.038l0,0c-0.072-0.013-0.127-0.077-0.127-0.153c0-0.016,0.004-0.03,0.008-0.044l0,0
			c0.014-0.05,0.014-0.059,0.016-0.08c0.004-0.021,0.004-0.049,0.004-0.049l0,0v-0.005c0-0.149-0.121-0.272-0.271-0.272
			s-0.273,0.123-0.273,0.272v0.005l0,0c0,0,0,0.027,0.004,0.049c0.002,0.021,0.004,0.03,0.018,0.08l0,0
			c0.004,0.014,0.006,0.028,0.006,0.044c0,0.076-0.055,0.141-0.127,0.153l0,0c0,0-0.051,0.014-0.332,0.038l0,0l0,0
			c-0.094,0.008-0.168,0.086-0.168,0.182c0,0.076,0.047,0.14,0.113,0.167l0,0c0.01,0.006,0.031,0.013,0.053,0.019
			c0.146,0.041,0.172,0.056,0.172,0.056l0,0c0.053,0.026,0.088,0.078,0.088,0.142v0.015l0,0v0.001l0,0
			c0,0.018-0.02,0.182-0.096,0.682l0,0c0,0-0.004,0.029-0.006,0.041c-0.002,0.02-0.002,0.033-0.002,0.033
			c-0.004,0.09,0.055,0.172,0.143,0.194c0.102,0.027,0.205-0.029,0.236-0.128l0,0l0.1-0.271l0,0c0.01-0.03,0.037-0.052,0.072-0.052
			c0.033,0,0.063,0.021,0.072,0.052l0,0l0.098,0.271c0.033,0.099,0.137,0.155,0.236,0.128c0.088-0.022,0.146-0.104,0.145-0.191l0,0
			c0,0,0-0.014-0.004-0.036C40.436,21.854,40.432,21.827,40.432,21.825z"/>
		<path fill="#FFFFFF" d="M44.256,26.065L44.256,26.065c-0.078-0.499-0.098-0.664-0.1-0.682v-0.001l0,0l0,0v-0.016
			c0-0.061,0.035-0.116,0.09-0.141l0,0c0,0,0.023-0.015,0.174-0.056c0.02-0.006,0.039-0.014,0.051-0.018l0,0
			c0.066-0.028,0.111-0.093,0.111-0.168c0-0.096-0.072-0.173-0.166-0.181l0,0c-0.281-0.026-0.332-0.039-0.332-0.039l0,0
			c-0.072-0.013-0.129-0.077-0.129-0.152c0-0.016,0.004-0.03,0.008-0.045l0,0c0.014-0.05,0.016-0.059,0.018-0.08
			c0.002-0.021,0.002-0.05,0.002-0.05l0,0v-0.004c0-0.15-0.121-0.272-0.271-0.272c-0.148,0-0.273,0.122-0.273,0.272v0.004l0,0
			c0,0,0.002,0.029,0.004,0.05c0.002,0.021,0.006,0.03,0.018,0.08l0,0c0.004,0.015,0.008,0.029,0.008,0.045
			c0,0.075-0.055,0.14-0.127,0.152l0,0c0,0-0.051,0.013-0.334,0.039l0,0l0,0c-0.094,0.008-0.166,0.085-0.166,0.181
			c0,0.075,0.047,0.14,0.113,0.168l0,0c0.01,0.004,0.029,0.012,0.051,0.018c0.148,0.041,0.174,0.056,0.174,0.056l0,0
			c0.053,0.024,0.088,0.08,0.088,0.141v0.016l0,0l0,0v0.001c-0.002,0.018-0.021,0.183-0.098,0.682l0,0c0,0-0.004,0.029-0.006,0.04
			c-0.002,0.021-0.002,0.035-0.002,0.035c-0.002,0.088,0.057,0.17,0.145,0.193c0.1,0.027,0.203-0.029,0.234-0.128l0,0l0.1-0.272l0,0
			c0.01-0.029,0.039-0.051,0.072-0.051s0.063,0.021,0.074,0.051l0,0l0.098,0.272c0.031,0.099,0.135,0.155,0.234,0.128
			c0.09-0.023,0.146-0.104,0.145-0.192l0,0c0,0,0-0.014-0.002-0.036C44.26,26.094,44.256,26.066,44.256,26.065z"/>
		<path fill="#FFFFFF" d="M39.561,27.155L39.561,27.155c-0.078-0.501-0.096-0.665-0.098-0.683l0,0v-0.001l0,0v-0.015
			c0-0.063,0.033-0.116,0.088-0.141l0,0c0,0,0.025-0.016,0.174-0.057c0.021-0.005,0.039-0.013,0.053-0.018l0,0
			c0.064-0.027,0.111-0.092,0.111-0.167c0-0.097-0.072-0.174-0.166-0.182l0,0c-0.283-0.025-0.334-0.037-0.334-0.037l0,0
			c-0.072-0.015-0.127-0.078-0.127-0.154c0-0.016,0.004-0.031,0.006-0.045l0,0c0.016-0.048,0.016-0.059,0.02-0.08
			c0.002-0.021,0.002-0.049,0.002-0.049l0,0c0,0,0-0.004,0-0.005c0-0.149-0.121-0.272-0.273-0.272c-0.148,0-0.271,0.123-0.271,0.272
			c0,0.001,0,0.003,0,0.003v0.002c0,0,0,0.028,0.002,0.049c0.004,0.021,0.006,0.032,0.02,0.08l0,0
			c0.004,0.014,0.006,0.029,0.006,0.045c0,0.076-0.055,0.14-0.127,0.154l0,0c0,0-0.051,0.012-0.334,0.037l0,0l0,0
			c-0.092,0.008-0.166,0.085-0.166,0.182c0,0.075,0.047,0.14,0.113,0.167l0,0c0.012,0.005,0.029,0.013,0.053,0.018
			c0.146,0.041,0.172,0.057,0.172,0.057l0,0c0.053,0.024,0.09,0.078,0.09,0.141l-0.002,0.015l0,0v0.001l0,0
			c-0.002,0.018-0.02,0.182-0.096,0.683l0,0c0,0-0.004,0.028-0.006,0.04c-0.002,0.021-0.004,0.034-0.004,0.034
			c-0.002,0.089,0.057,0.17,0.145,0.194c0.102,0.026,0.205-0.03,0.236-0.128l0,0l0.098-0.272l0,0
			c0.012-0.029,0.041-0.051,0.072-0.051c0.033,0,0.064,0.021,0.074,0.051l0,0l0.098,0.272c0.031,0.098,0.135,0.154,0.236,0.128
			c0.09-0.024,0.146-0.104,0.145-0.192l0,0c0,0,0-0.014-0.002-0.036C39.565,27.183,39.561,27.157,39.561,27.155z"/>
		<path fill="#FFFFFF" d="M35.504,21.826L35.504,21.826c-0.078-0.501-0.096-0.665-0.098-0.683l0,0v-0.001l0,0l-0.002-0.015
			c0-0.063,0.037-0.116,0.09-0.142l0,0c0,0,0.025-0.015,0.174-0.056c0.021-0.006,0.039-0.013,0.051-0.019l0,0
			c0.066-0.026,0.111-0.091,0.111-0.167c0-0.095-0.072-0.173-0.164-0.182l0,0c-0.283-0.024-0.334-0.038-0.334-0.038h0.002
			c-0.074-0.013-0.129-0.077-0.129-0.153c0-0.015,0.002-0.03,0.006-0.044l0,0c0.014-0.05,0.016-0.059,0.018-0.08
			c0.004-0.021,0.004-0.049,0.004-0.049l0,0v-0.005c0-0.15-0.123-0.272-0.273-0.272s-0.271,0.122-0.271,0.272v0.005l0,0
			c0,0,0,0.028,0.004,0.049c0.002,0.021,0.004,0.03,0.018,0.08l0,0c0.002,0.014,0.006,0.029,0.006,0.044
			c0,0.076-0.055,0.141-0.127,0.153l0,0c0,0-0.051,0.014-0.334,0.038l0,0l0,0c-0.092,0.009-0.166,0.087-0.166,0.182
			c0,0.076,0.047,0.141,0.111,0.167l0,0c0.014,0.006,0.031,0.013,0.055,0.019c0.146,0.041,0.172,0.056,0.172,0.056l0,0
			c0.053,0.025,0.09,0.078,0.09,0.142l-0.002,0.015l0,0v0.001l0,0c-0.002,0.018-0.02,0.182-0.096,0.683l0,0
			c0,0-0.006,0.028-0.008,0.04c-0.002,0.02-0.002,0.033-0.002,0.033c0,0.09,0.057,0.171,0.145,0.194
			c0.102,0.027,0.205-0.029,0.236-0.128l0,0l0.098-0.271l0,0c0.012-0.03,0.039-0.052,0.072-0.052c0.035,0,0.063,0.021,0.074,0.052
			l0,0l0.098,0.271c0.033,0.099,0.135,0.155,0.236,0.128c0.088-0.023,0.146-0.104,0.145-0.191l0,0c0,0,0-0.014-0.004-0.036
			C35.508,21.854,35.504,21.827,35.504,21.826z"/>
		<path fill="#FFFFFF" d="M32.313,32.372L32.313,32.372c-0.078-0.499-0.098-0.664-0.1-0.682v-0.001l0,0l0,0v-0.015
			c0-0.062,0.037-0.116,0.09-0.142l0,0c0,0,0.025-0.015,0.172-0.056c0.021-0.004,0.041-0.014,0.053-0.018l0,0
			c0.066-0.026,0.113-0.093,0.113-0.168c0-0.095-0.074-0.173-0.166-0.181l0,0c-0.283-0.025-0.334-0.037-0.334-0.037l0,0
			c-0.072-0.015-0.127-0.077-0.127-0.154c0-0.015,0.002-0.03,0.006-0.045l0,0c0.016-0.049,0.016-0.058,0.018-0.079
			c0.004-0.021,0.004-0.05,0.004-0.05l0,0v-0.005c0-0.15-0.123-0.271-0.271-0.271c-0.152,0-0.273,0.121-0.273,0.271v0.005l0,0
			c0,0,0,0.029,0.002,0.05c0.004,0.021,0.006,0.03,0.018,0.079l0,0c0.006,0.015,0.008,0.03,0.008,0.045
			c0,0.077-0.055,0.14-0.127,0.154l0,0c0,0-0.051,0.012-0.334,0.037l0,0l0,0c-0.092,0.008-0.166,0.086-0.166,0.181
			c0,0.075,0.047,0.142,0.111,0.168l0,0c0.014,0.004,0.031,0.014,0.053,0.018c0.148,0.041,0.174,0.056,0.174,0.056l0,0
			c0.053,0.025,0.09,0.08,0.09,0.142c0,0,0,0.01-0.002,0.015l0,0l0,0v0.001c0,0.018-0.02,0.183-0.098,0.682l0,0
			c0,0.003-0.004,0.03-0.004,0.041c-0.002,0.021-0.004,0.034-0.004,0.034c-0.002,0.089,0.057,0.17,0.145,0.194
			c0.102,0.027,0.203-0.03,0.236-0.128l0,0l0.1-0.272l0,0c0.008-0.029,0.037-0.05,0.072-0.05c0.033,0,0.063,0.021,0.072,0.05l0,0
			l0.098,0.272c0.031,0.098,0.135,0.155,0.236,0.128c0.088-0.024,0.146-0.105,0.143-0.192l0,0c0,0,0-0.014-0.002-0.036
			C32.315,32.402,32.313,32.375,32.313,32.372z"/>
		<path fill="#FFFFFF" d="M21.381,30.852L21.381,30.852c-0.076-0.501-0.096-0.665-0.098-0.682v-0.002l0,0l0,0
			c0-0.006,0-0.011,0-0.016c0-0.061,0.035-0.115,0.09-0.141l0,0c0,0,0.023-0.015,0.172-0.055c0.021-0.006,0.041-0.014,0.053-0.02
			l0,0c0.064-0.026,0.111-0.092,0.111-0.167c0-0.095-0.072-0.173-0.166-0.181l0,0c-0.283-0.025-0.332-0.038-0.332-0.038l0,0
			c-0.074-0.014-0.129-0.078-0.129-0.154c0-0.015,0.004-0.029,0.008-0.044l0,0c0.014-0.05,0.016-0.058,0.018-0.08
			c0.002-0.021,0.002-0.049,0.002-0.049l0,0v-0.004c0-0.151-0.121-0.273-0.271-0.273s-0.271,0.122-0.271,0.273v0.002v0.002
			c0,0,0,0.028,0.002,0.049c0.002,0.022,0.004,0.03,0.018,0.08l0,0c0.004,0.015,0.008,0.029,0.008,0.044
			c0,0.076-0.055,0.141-0.129,0.154l0,0c0,0-0.049,0.013-0.332,0.038l0,0l0,0c-0.094,0.008-0.166,0.086-0.166,0.181
			c0,0.075,0.045,0.141,0.111,0.167l0,0c0.01,0.006,0.029,0.014,0.051,0.02c0.148,0.04,0.174,0.055,0.174,0.055l0,0
			c0.053,0.025,0.09,0.08,0.09,0.141c0,0.005,0,0.01-0.002,0.016l0,0l0,0v0.002c-0.002,0.017-0.021,0.181-0.096,0.682l0,0
			c0,0-0.004,0.028-0.006,0.039c-0.002,0.021-0.002,0.034-0.002,0.034c-0.002,0.09,0.057,0.171,0.145,0.194
			c0.1,0.027,0.203-0.029,0.234-0.128l0,0l0.098-0.272l0,0c0.012-0.029,0.041-0.051,0.074-0.051s0.063,0.021,0.072,0.051l0,0
			l0.1,0.272c0.031,0.099,0.135,0.155,0.234,0.128c0.09-0.023,0.146-0.104,0.145-0.191l0,0c0,0,0-0.014-0.002-0.037
			C21.385,30.88,21.381,30.853,21.381,30.852z"/>
		<path fill="#FFFFFF" d="M9.438,36.597L9.438,36.597c-0.076-0.5-0.096-0.665-0.098-0.682v-0.001l0,0l0,0c0-0.005,0-0.011,0-0.016
			c0-0.062,0.037-0.116,0.088-0.141l0,0c0,0,0.025-0.015,0.174-0.056c0.021-0.006,0.041-0.014,0.051-0.018l0,0
			c0.066-0.028,0.113-0.093,0.113-0.168c0-0.095-0.074-0.174-0.166-0.182l0,0c-0.283-0.024-0.334-0.038-0.334-0.038l0,0
			c-0.07-0.014-0.127-0.076-0.127-0.153c0-0.017,0.002-0.03,0.008-0.045l0,0c0.014-0.048,0.016-0.058,0.016-0.079
			c0.004-0.021,0.004-0.049,0.004-0.049l0,0v-0.006c0-0.149-0.121-0.272-0.273-0.272c-0.148,0-0.271,0.123-0.271,0.272v0.006l0,0
			c0,0,0,0.027,0.004,0.049c0.002,0.021,0.004,0.031,0.018,0.079l0,0c0.004,0.015,0.006,0.028,0.006,0.045
			c0,0.077-0.055,0.14-0.127,0.153l0,0c0,0-0.049,0.014-0.332,0.038l0,0l0,0c-0.094,0.008-0.166,0.087-0.166,0.182
			c0,0.075,0.045,0.14,0.111,0.168l0,0c0.012,0.004,0.031,0.012,0.051,0.018c0.148,0.041,0.174,0.056,0.174,0.056l0,0
			c0.053,0.024,0.09,0.079,0.09,0.141c0,0.005,0,0.011,0,0.016l0,0l0,0v0.001c-0.004,0.017-0.021,0.182-0.098,0.682l0,0
			c0,0-0.006,0.028-0.006,0.04c-0.002,0.021-0.002,0.034-0.002,0.034c-0.004,0.09,0.055,0.17,0.145,0.194
			c0.1,0.026,0.203-0.03,0.234-0.128l0,0l0.1-0.271l0,0c0.01-0.03,0.037-0.052,0.07-0.052c0.035,0,0.064,0.021,0.074,0.052l0,0
			l0.1,0.271c0.031,0.098,0.133,0.154,0.234,0.128c0.088-0.024,0.146-0.104,0.143-0.192l0,0c0,0,0-0.014,0-0.036
			C9.442,36.625,9.438,36.599,9.438,36.597z"/>
		<path fill="#FFFFFF" d="M32.313,26.677L32.313,26.677c-0.078-0.499-0.096-0.665-0.1-0.682v-0.001l0,0l0,0c0-0.005,0-0.009,0-0.015
			c0-0.063,0.037-0.116,0.09-0.142l0,0c0,0,0.025-0.015,0.174-0.056c0.02-0.005,0.039-0.014,0.053-0.019l0,0
			c0.064-0.025,0.111-0.091,0.111-0.167c0-0.095-0.074-0.173-0.166-0.181l0,0c-0.283-0.024-0.334-0.038-0.334-0.038l0,0
			c-0.072-0.015-0.127-0.077-0.127-0.154c0-0.015,0.002-0.03,0.008-0.045l0,0c0.014-0.049,0.014-0.058,0.016-0.079
			c0.004-0.02,0.004-0.05,0.004-0.05l0,0v-0.004c0-0.149-0.121-0.271-0.271-0.271c-0.152,0-0.273,0.122-0.273,0.271v0.004l0,0
			c0,0,0,0.03,0.002,0.05c0.004,0.021,0.006,0.03,0.02,0.079l0,0c0.004,0.015,0.006,0.03,0.006,0.045
			c0,0.077-0.055,0.14-0.127,0.154l0,0c0,0-0.051,0.014-0.334,0.038l0,0l0,0c-0.092,0.008-0.166,0.086-0.166,0.181
			c0,0.076,0.047,0.142,0.111,0.167l0,0c0.014,0.005,0.033,0.014,0.055,0.019c0.146,0.041,0.172,0.056,0.172,0.056l0,0
			c0.053,0.025,0.09,0.079,0.09,0.142c0,0.006,0,0.01,0,0.015l0,0l0,0v0.001c-0.002,0.017-0.021,0.183-0.1,0.682l0,0
			c0,0-0.002,0.03-0.004,0.04c-0.002,0.021-0.004,0.034-0.004,0.037c-0.002,0.087,0.057,0.168,0.145,0.192
			c0.102,0.026,0.203-0.03,0.236-0.127l0,0l0.1-0.272l0,0c0.008-0.031,0.037-0.052,0.072-0.052c0.033,0,0.063,0.021,0.072,0.052l0,0
			l0.098,0.272c0.033,0.097,0.135,0.153,0.236,0.127c0.088-0.024,0.146-0.105,0.145-0.192l0,0c0,0,0-0.015-0.004-0.037
			C32.317,26.708,32.313,26.679,32.313,26.677z"/>
		<path fill="#FFFFFF" d="M26.819,31.941L26.819,31.941c-0.076-0.5-0.096-0.665-0.098-0.682l0,0v-0.001l0,0
			c-0.002-0.006-0.002-0.01-0.002-0.01c0-0.068,0.037-0.122,0.09-0.147l0,0c0,0,0.025-0.015,0.174-0.055
			c0.02-0.005,0.041-0.014,0.051-0.019l0,0c0.066-0.026,0.111-0.092,0.111-0.167c0-0.096-0.072-0.174-0.166-0.181l0,0
			c-0.283-0.025-0.332-0.038-0.332-0.038h0.002c-0.074-0.015-0.129-0.078-0.129-0.153c0-0.016,0.002-0.031,0.006-0.046l0,0
			c0.014-0.048,0.016-0.058,0.018-0.08c0.004-0.021,0.004-0.048,0.004-0.048l0,0c0-0.002,0-0.004,0-0.004
			c0-0.151-0.123-0.273-0.271-0.273c-0.15,0-0.273,0.122-0.273,0.272c0,0,0,0.003,0,0.005l0,0c0,0,0,0.027,0.004,0.048
			c0.002,0.022,0.002,0.032,0.018,0.08l0,0c0.004,0.015,0.006,0.03,0.006,0.046c0,0.075-0.055,0.139-0.127,0.153l0,0
			c0,0-0.049,0.013-0.332,0.038l0,0l0,0c-0.094,0.007-0.168,0.085-0.168,0.181c0,0.075,0.047,0.141,0.113,0.167l0,0
			c0.01,0.005,0.031,0.014,0.053,0.019c0.146,0.04,0.172,0.055,0.172,0.055l0,0c0.053,0.025,0.09,0.079,0.09,0.143
			c0,0,0,0.009,0,0.015l0,0v0.001l0,0c-0.004,0.017-0.023,0.182-0.098,0.682l0,0c0,0-0.006,0.028-0.008,0.041
			c0,0.02,0,0.033,0,0.033c-0.002,0.089,0.055,0.17,0.143,0.194c0.102,0.027,0.203-0.03,0.236-0.128l0,0l0.098-0.271l0,0
			c0.012-0.03,0.039-0.052,0.074-0.052c0.033,0,0.061,0.021,0.072,0.052l0,0l0.098,0.271c0.033,0.098,0.135,0.155,0.236,0.128
			c0.088-0.024,0.146-0.104,0.143-0.191h0.002c0,0-0.002-0.014-0.004-0.036C26.823,31.969,26.819,31.942,26.819,31.941z"/>
		<path fill="#FFFFFF" d="M36.375,35.506L36.375,35.506c-0.076-0.498-0.096-0.664-0.098-0.681v-0.001l0,0l0,0
			c-0.002-0.005-0.002-0.011-0.002-0.016c0-0.062,0.037-0.116,0.09-0.141l0,0c0,0,0.025-0.016,0.174-0.055
			c0.021-0.007,0.041-0.015,0.051-0.019l0,0c0.066-0.028,0.111-0.093,0.111-0.168c0-0.095-0.072-0.173-0.164-0.181l0,0
			c-0.283-0.025-0.334-0.039-0.334-0.039l0,0c-0.072-0.013-0.129-0.076-0.129-0.152c0-0.016,0.004-0.03,0.008-0.045l0,0
			c0.014-0.05,0.016-0.058,0.018-0.08c0.004-0.021,0.004-0.05,0.004-0.05l0,0v-0.004c0-0.15-0.123-0.272-0.273-0.272
			c-0.148,0-0.271,0.122-0.271,0.272v0.004l0,0c0,0,0.002,0.029,0.004,0.05c0.002,0.022,0.004,0.03,0.018,0.08l0,0
			c0.004,0.015,0.006,0.029,0.006,0.045c0,0.076-0.055,0.14-0.127,0.152l0,0c0,0-0.049,0.014-0.332,0.039l0,0l0,0
			c-0.096,0.008-0.168,0.086-0.168,0.181c0,0.075,0.047,0.14,0.113,0.168l0,0c0.012,0.004,0.031,0.012,0.051,0.019
			c0.148,0.039,0.174,0.055,0.174,0.055l0,0c0.053,0.024,0.09,0.079,0.09,0.141c0,0.005-0.002,0.011-0.002,0.016l0,0l0,0l0,0
			c-0.002,0.018-0.02,0.184-0.096,0.682l0,0c0,0-0.006,0.03-0.006,0.041c-0.002,0.021-0.004,0.034-0.004,0.034
			c-0.002,0.09,0.057,0.17,0.145,0.194c0.1,0.027,0.203-0.029,0.234-0.128l0,0l0.1-0.272l0,0c0.012-0.028,0.039-0.05,0.072-0.05
			c0.035,0,0.063,0.021,0.074,0.05l0,0l0.098,0.272c0.031,0.099,0.135,0.155,0.236,0.128c0.088-0.024,0.145-0.104,0.143-0.192l0,0
			c0,0,0-0.014-0.002-0.036C36.379,35.537,36.375,35.509,36.375,35.506z"/>
		<path fill="#FFFFFF" d="M40.727,31.79L40.727,31.79c-0.076-0.5-0.096-0.665-0.098-0.682v-0.001l0,0l0,0c0-0.006,0-0.011,0-0.015
			c0-0.063,0.037-0.116,0.088-0.142l0,0c0,0,0.025-0.015,0.174-0.056c0.021-0.006,0.041-0.013,0.051-0.018l0,0
			c0.068-0.027,0.113-0.093,0.113-0.169c0-0.094-0.074-0.173-0.166-0.18l0,0c-0.283-0.025-0.332-0.038-0.332-0.038l0,0
			c-0.074-0.015-0.129-0.078-0.129-0.153c0-0.017,0.004-0.031,0.008-0.046l0,0c0.014-0.049,0.014-0.058,0.018-0.08
			c0.002-0.02,0.002-0.049,0.002-0.049l0,0v-0.005c0-0.149-0.121-0.271-0.271-0.271s-0.271,0.122-0.271,0.271v0.005l0,0
			c0,0,0,0.029,0.002,0.049c0.002,0.022,0.004,0.031,0.018,0.08l0,0c0.004,0.015,0.008,0.029,0.008,0.046
			c0,0.075-0.057,0.139-0.129,0.153l0,0c0,0-0.049,0.013-0.332,0.038l0,0l0,0c-0.094,0.007-0.166,0.086-0.166,0.18
			c0,0.076,0.045,0.142,0.111,0.169l0,0c0.012,0.005,0.031,0.012,0.053,0.018c0.148,0.041,0.172,0.056,0.172,0.056l0,0
			c0.055,0.025,0.09,0.079,0.09,0.142c0,0.004,0,0.009,0,0.015l0,0l0,0v0.001c-0.002,0.017-0.021,0.182-0.098,0.682l0,0
			c0,0-0.004,0.029-0.006,0.041c-0.002,0.021-0.002,0.033-0.002,0.033c-0.002,0.089,0.057,0.171,0.145,0.194
			c0.1,0.027,0.203-0.03,0.234-0.128l0,0l0.098-0.271l0,0c0.012-0.03,0.041-0.051,0.074-0.051s0.063,0.021,0.072,0.051l0,0
			l0.1,0.271c0.031,0.098,0.135,0.155,0.234,0.128c0.088-0.023,0.146-0.104,0.145-0.191l0,0c0,0,0-0.014-0.002-0.036
			C40.731,31.819,40.727,31.792,40.727,31.79z"/>
		<path fill="#FFFFFF" d="M43.383,31.284L43.383,31.284c-0.076-0.5-0.096-0.665-0.098-0.682l0,0V30.6l0,0v-0.015
			c0-0.062,0.037-0.116,0.09-0.142l0,0c0,0,0.023-0.015,0.172-0.055c0.021-0.007,0.041-0.014,0.053-0.018l0,0
			c0.064-0.028,0.111-0.093,0.111-0.168c0-0.096-0.072-0.174-0.166-0.182l0,0c-0.283-0.024-0.334-0.039-0.334-0.039h0.002
			c-0.072-0.013-0.127-0.077-0.127-0.152c0-0.016,0.002-0.03,0.006-0.045l0,0c0.014-0.049,0.016-0.058,0.018-0.08
			c0.004-0.021,0.004-0.049,0.004-0.049l0,0c0,0,0-0.003,0-0.004c0-0.15-0.123-0.273-0.273-0.273s-0.271,0.123-0.271,0.273
			c0,0.001,0,0.003,0,0.003v0.001c0,0,0,0.028,0.002,0.049c0.002,0.022,0.004,0.031,0.018,0.08l0,0
			c0.004,0.015,0.006,0.029,0.006,0.045c0,0.075-0.053,0.14-0.125,0.152l0,0c0,0-0.051,0.015-0.334,0.039l0,0l0,0
			c-0.094,0.008-0.166,0.086-0.166,0.182c0,0.075,0.047,0.14,0.111,0.168l0,0c0.012,0.004,0.031,0.011,0.053,0.018
			c0.148,0.04,0.174,0.055,0.174,0.055l0,0c0.051,0.025,0.088,0.08,0.088,0.142V30.6l0,0v0.002l0,0
			c-0.002,0.017-0.021,0.182-0.098,0.682l0,0c0,0-0.004,0.028-0.006,0.041c-0.002,0.02-0.002,0.034-0.002,0.034
			c-0.002,0.087,0.057,0.169,0.143,0.192c0.102,0.027,0.205-0.029,0.236-0.127l0,0l0.1-0.272l0,0
			c0.01-0.029,0.039-0.052,0.072-0.052s0.063,0.022,0.072,0.052l0,0l0.1,0.272c0.031,0.098,0.135,0.154,0.234,0.127
			c0.09-0.023,0.146-0.104,0.145-0.19h0.002c0,0-0.002-0.015-0.004-0.036C43.387,31.312,43.383,31.286,43.383,31.284z"/>
		<path fill="#FFFFFF" d="M49.502,30.7L49.502,30.7c-0.076-0.499-0.096-0.664-0.098-0.682l0,0l0,0l0,0c0-0.006,0-0.011,0-0.016
			c0-0.063,0.035-0.115,0.088-0.141l0,0c0,0,0.025-0.015,0.174-0.056c0.021-0.006,0.041-0.014,0.053-0.019l0,0
			c0.064-0.027,0.111-0.092,0.111-0.167c0-0.096-0.074-0.174-0.168-0.182l0,0c-0.281-0.025-0.332-0.038-0.332-0.038h0.002
			c-0.072-0.015-0.127-0.077-0.127-0.153c0-0.016,0-0.03,0.006-0.045l0,0c0.014-0.049,0.014-0.058,0.018-0.079
			c0.002-0.021,0.002-0.051,0.002-0.051l0,0V29.07c0-0.15-0.121-0.273-0.271-0.273s-0.273,0.123-0.273,0.273v0.003l0,0
			c0,0,0,0.03,0.004,0.051c0.002,0.021,0.004,0.03,0.018,0.079l0,0c0.004,0.015,0.006,0.029,0.006,0.045
			c0,0.076-0.055,0.139-0.127,0.153l0,0c0,0-0.049,0.013-0.332,0.038l0,0l0,0c-0.094,0.008-0.166,0.086-0.166,0.182
			c0,0.075,0.045,0.14,0.111,0.167l0,0c0.012,0.005,0.031,0.013,0.053,0.019c0.148,0.041,0.174,0.056,0.174,0.056l0,0
			c0.051,0.025,0.088,0.078,0.088,0.141c0,0.005,0,0.01,0,0.016l0,0l0,0l0,0c-0.002,0.018-0.021,0.183-0.098,0.682l0,0
			c0,0-0.004,0.029-0.006,0.04c-0.002,0.021-0.002,0.035-0.002,0.035c-0.002,0.09,0.055,0.171,0.143,0.194
			c0.102,0.027,0.205-0.03,0.238-0.128l0,0l0.098-0.272l0,0c0.01-0.029,0.039-0.052,0.072-0.052s0.063,0.022,0.072,0.052l0,0
			l0.1,0.272c0.031,0.098,0.135,0.155,0.234,0.128c0.088-0.023,0.145-0.104,0.145-0.192l0,0c0,0,0-0.014-0.002-0.037
			C49.506,30.729,49.502,30.702,49.502,30.7z"/>
		<path fill="#FFFFFF" d="M45.998,35.506L45.998,35.506c-0.078-0.498-0.096-0.664-0.098-0.681v-0.001l0,0l0,0
			c-0.002-0.005-0.002-0.011-0.002-0.016c0-0.062,0.037-0.116,0.09-0.141l0,0c0,0,0.025-0.016,0.172-0.055
			c0.023-0.007,0.041-0.015,0.053-0.019l0,0c0.066-0.028,0.113-0.093,0.113-0.168c0-0.095-0.074-0.173-0.166-0.181l0,0
			c-0.285-0.025-0.334-0.039-0.334-0.039l0,0c-0.072-0.013-0.127-0.076-0.127-0.152c0-0.016,0.002-0.03,0.006-0.045l0,0
			c0.014-0.05,0.016-0.058,0.018-0.08c0.002-0.021,0.004-0.05,0.004-0.05l0,0v-0.004c0-0.15-0.123-0.272-0.271-0.272
			c-0.152,0-0.273,0.122-0.273,0.272v0.004l0,0c0,0,0,0.029,0.002,0.05c0.004,0.022,0.004,0.03,0.02,0.08l0,0
			c0.002,0.015,0.006,0.029,0.006,0.045c0,0.076-0.055,0.14-0.127,0.152l0,0c0,0-0.051,0.014-0.334,0.039l0,0l0,0
			c-0.092,0.008-0.166,0.086-0.166,0.181c0,0.075,0.047,0.14,0.111,0.168l0,0c0.012,0.004,0.031,0.012,0.053,0.019
			c0.148,0.039,0.174,0.055,0.174,0.055l0,0c0.053,0.024,0.088,0.079,0.088,0.141c0,0.005,0,0.011,0,0.016l0,0l0,0l0,0
			c-0.002,0.018-0.021,0.184-0.098,0.682l0,0c0,0-0.004,0.03-0.006,0.041c-0.002,0.021-0.002,0.034-0.002,0.034
			c-0.002,0.09,0.057,0.17,0.145,0.194c0.102,0.027,0.203-0.029,0.236-0.128l0,0l0.098-0.272l0,0c0.01-0.028,0.041-0.05,0.074-0.05
			s0.061,0.021,0.072,0.05l0,0l0.098,0.272c0.031,0.099,0.135,0.155,0.234,0.128c0.09-0.024,0.148-0.104,0.146-0.192l0,0
			c0,0,0-0.014-0.004-0.036C46.002,35.537,45.998,35.509,45.998,35.506z"/>
		<path fill="#FFFFFF" d="M58.23,35.084L58.23,35.084c-0.076-0.499-0.096-0.665-0.098-0.681v-0.001v-0.001l0,0v-0.015
			c0-0.063,0.037-0.116,0.088-0.141v-0.001c0,0,0.027-0.015,0.174-0.056c0.021-0.006,0.041-0.013,0.053-0.018l0,0
			c0.066-0.027,0.111-0.092,0.111-0.168c0-0.095-0.074-0.173-0.166-0.182l0,0c-0.283-0.024-0.334-0.038-0.334-0.038l0,0
			c-0.072-0.014-0.127-0.077-0.127-0.151c0-0.018,0.002-0.032,0.008-0.046l0,0c0.012-0.05,0.014-0.058,0.018-0.08
			c0.002-0.021,0.002-0.05,0.002-0.05l0,0c0,0,0-0.002,0-0.004c0-0.15-0.121-0.272-0.271-0.272c-0.152,0-0.271,0.122-0.271,0.272
			c0,0.002,0,0.004,0,0.004l0,0c0,0,0,0.029,0,0.05c0.004,0.022,0.006,0.03,0.02,0.08l0,0c0.004,0.014,0.006,0.028,0.006,0.046
			c0,0.074-0.055,0.138-0.127,0.151l0,0c0,0-0.049,0.014-0.332,0.038l0,0l0,0c-0.094,0.009-0.168,0.087-0.168,0.182
			c0,0.076,0.047,0.141,0.113,0.168l0,0c0.012,0.005,0.031,0.012,0.053,0.018c0.146,0.041,0.172,0.056,0.172,0.056v0.001
			c0.053,0.024,0.09,0.078,0.09,0.141v0.015l0,0v0.001l0,0c-0.002,0.017-0.021,0.183-0.1,0.682l0,0c0,0-0.002,0.029-0.004,0.041
			c-0.002,0.02-0.004,0.033-0.004,0.033c0,0.089,0.057,0.172,0.145,0.195c0.102,0.026,0.205-0.03,0.236-0.129l0,0l0.1-0.271l0,0
			c0.01-0.03,0.039-0.053,0.072-0.053s0.063,0.022,0.072,0.053l0,0l0.1,0.271c0.031,0.099,0.133,0.155,0.234,0.129
			c0.088-0.023,0.146-0.105,0.145-0.192l0,0c0,0,0-0.014-0.004-0.036C58.234,35.114,58.23,35.086,58.23,35.084z"/>
		<path fill="#FFFFFF" d="M65.055,35.506L65.055,35.506c-0.076-0.498-0.096-0.664-0.098-0.681v-0.001l0,0l0,0
			c0-0.005,0-0.011,0-0.016c0-0.062,0.035-0.116,0.09-0.141l0,0c0,0,0.023-0.016,0.172-0.055c0.021-0.007,0.041-0.015,0.053-0.019
			l0,0c0.064-0.028,0.111-0.093,0.111-0.168c0-0.095-0.074-0.173-0.166-0.181l0,0c-0.281-0.025-0.332-0.039-0.332-0.039l0,0
			c-0.072-0.013-0.129-0.076-0.129-0.152c0-0.016,0.004-0.03,0.008-0.045l0,0c0.012-0.05,0.014-0.058,0.018-0.08
			c0.002-0.021,0.002-0.05,0.002-0.05l0,0v-0.004c0-0.15-0.121-0.272-0.271-0.272c-0.152,0-0.273,0.122-0.273,0.272v0.004l0,0
			c0,0,0.002,0.029,0.004,0.05c0.004,0.022,0.004,0.03,0.02,0.08l0,0c0.002,0.015,0.004,0.029,0.004,0.045
			c0,0.076-0.055,0.14-0.127,0.152l0,0c0,0-0.049,0.014-0.332,0.039l0,0l0,0c-0.094,0.008-0.166,0.086-0.166,0.181
			c0,0.075,0.045,0.14,0.111,0.168l0,0c0.012,0.004,0.031,0.012,0.053,0.019c0.146,0.039,0.174,0.055,0.174,0.055l0,0
			c0.051,0.024,0.088,0.079,0.088,0.141c0,0.005,0,0.011,0,0.016l0,0l0,0l0,0c-0.002,0.018-0.021,0.184-0.098,0.682l0,0
			c0,0-0.006,0.03-0.006,0.041c-0.002,0.021-0.002,0.034-0.002,0.034c-0.002,0.09,0.055,0.17,0.145,0.194
			c0.1,0.027,0.203-0.029,0.234-0.128l0,0l0.098-0.272l0,0c0.012-0.028,0.041-0.05,0.074-0.05s0.063,0.021,0.074,0.05l0,0
			l0.098,0.272c0.031,0.099,0.135,0.155,0.234,0.128c0.088-0.024,0.146-0.104,0.145-0.192l0,0c0,0,0-0.014-0.004-0.036
			C65.059,35.537,65.055,35.509,65.055,35.506z"/>
		<path fill="#FFFFFF" d="M71.646,39.649L71.646,39.649c-0.076-0.5-0.096-0.665-0.096-0.682v-0.001h-0.002l0,0
			c0-0.006,0-0.011,0-0.017c0-0.061,0.037-0.115,0.09-0.139l0,0c0,0,0.025-0.015,0.174-0.056c0.02-0.007,0.039-0.015,0.051-0.02l0,0
			c0.066-0.026,0.111-0.091,0.111-0.167c0-0.095-0.072-0.173-0.166-0.182l0,0c-0.283-0.024-0.332-0.039-0.332-0.039l0,0
			c-0.072-0.013-0.127-0.076-0.127-0.152c0-0.016,0.002-0.03,0.006-0.044l0,0c0.016-0.05,0.016-0.059,0.018-0.08
			c0.004-0.021,0.004-0.05,0.004-0.05l0,0v-0.004c0-0.15-0.123-0.272-0.271-0.272c-0.152,0-0.273,0.122-0.273,0.272v0.004l0,0
			c0,0,0,0.029,0.004,0.05c0,0.021,0.002,0.03,0.016,0.08l0,0c0.006,0.014,0.008,0.028,0.008,0.044c0,0.076-0.055,0.14-0.127,0.152
			l0,0c0,0-0.051,0.015-0.334,0.039l0,0l0,0c-0.092,0.009-0.166,0.087-0.166,0.182c0,0.076,0.047,0.141,0.113,0.167l0,0
			c0.012,0.005,0.029,0.013,0.051,0.02c0.148,0.041,0.174,0.056,0.174,0.056l0,0c0.051,0.023,0.09,0.078,0.09,0.139
			c0,0.006,0,0.011,0,0.017l0,0l0,0v0.001c-0.002,0.017-0.023,0.182-0.098,0.682l0,0c0,0-0.006,0.029-0.008,0.039
			c-0.002,0.022-0.002,0.035-0.002,0.037c-0.002,0.088,0.057,0.17,0.145,0.192c0.1,0.026,0.205-0.03,0.236-0.128l0,0l0.098-0.272
			l0,0c0.012-0.029,0.039-0.051,0.074-0.051c0.033,0,0.061,0.021,0.07,0.051l0,0l0.1,0.272c0.031,0.098,0.137,0.154,0.234,0.128
			c0.09-0.022,0.146-0.104,0.146-0.191l0,0c0,0,0-0.015-0.004-0.038C71.65,39.678,71.648,39.65,71.646,39.649z"/>
		<path fill="#FFFFFF" d="M65.928,45.65L65.928,45.65c-0.078-0.5-0.096-0.666-0.1-0.682v-0.002l0,0l0,0c0-0.006,0-0.01,0-0.014
			c0-0.064,0.035-0.117,0.088-0.143l0,0c0,0,0.027-0.016,0.174-0.055c0.021-0.006,0.041-0.014,0.053-0.02l0,0
			c0.066-0.025,0.111-0.092,0.111-0.168c0-0.094-0.072-0.172-0.166-0.18l0,0c-0.283-0.025-0.332-0.037-0.332-0.037l0,0
			c-0.072-0.014-0.129-0.078-0.129-0.154c0-0.016,0.004-0.029,0.006-0.045l0,0c0.016-0.049,0.016-0.059,0.02-0.08
			c0.002-0.02,0.004-0.049,0.004-0.049l0,0v-0.006c0-0.148-0.123-0.271-0.273-0.271s-0.271,0.123-0.271,0.271v0.004v0.002
			c0,0,0,0.029,0.002,0.049c0.002,0.021,0.004,0.031,0.018,0.08l0,0c0.004,0.016,0.006,0.029,0.006,0.045
			c0,0.076-0.055,0.141-0.127,0.154l0,0c0,0-0.049,0.012-0.33,0.037h-0.002l0,0c-0.092,0.008-0.168,0.086-0.168,0.18
			c0,0.076,0.049,0.143,0.113,0.168l0,0c0.012,0.006,0.031,0.014,0.053,0.02c0.146,0.039,0.174,0.055,0.174,0.055l0,0
			c0.053,0.025,0.088,0.078,0.088,0.143c0,0.004,0,0.008,0,0.014l0,0l0,0v0.002c-0.002,0.016-0.021,0.182-0.098,0.682l0,0
			c0,0-0.004,0.029-0.006,0.039c-0.002,0.021-0.002,0.033-0.002,0.037c-0.002,0.088,0.057,0.168,0.145,0.191
			c0.1,0.027,0.203-0.029,0.234-0.127l0,0l0.1-0.273l0,0c0.01-0.027,0.039-0.051,0.072-0.051s0.063,0.023,0.072,0.051l0,0
			l0.098,0.273c0.033,0.098,0.137,0.154,0.236,0.127c0.09-0.023,0.146-0.104,0.145-0.191l0,0c0,0,0-0.014-0.002-0.037
			C65.93,45.68,65.928,45.65,65.928,45.65z"/>
		<path fill="#FFFFFF" d="M56.883,43.469L56.883,43.469c-0.076-0.498-0.096-0.662-0.098-0.68l0,0l0,0l0,0c0-0.006,0-0.012,0-0.016
			c0-0.063,0.035-0.117,0.088-0.141l0,0c0,0,0.025-0.016,0.172-0.055c0.023-0.006,0.043-0.016,0.053-0.02l0,0
			c0.068-0.027,0.111-0.092,0.111-0.168c0-0.094-0.072-0.172-0.164-0.18l0,0c-0.285-0.025-0.334-0.039-0.334-0.039h0.002
			c-0.074-0.014-0.129-0.078-0.129-0.152c0-0.018,0.002-0.031,0.006-0.045l0,0c0.016-0.051,0.016-0.059,0.02-0.08
			c0.002-0.021,0.002-0.051,0.002-0.051l0,0V41.84c0-0.148-0.123-0.271-0.271-0.271c-0.15,0-0.273,0.123-0.273,0.271v0.004l0,0
			c0,0,0.002,0.029,0.004,0.051s0.002,0.029,0.018,0.08l0,0c0.004,0.014,0.006,0.027,0.006,0.045c0,0.074-0.055,0.139-0.127,0.152
			l0,0c0,0-0.051,0.014-0.332,0.039l0,0l0,0c-0.094,0.008-0.168,0.086-0.168,0.18c0,0.076,0.047,0.141,0.113,0.168l0,0
			c0.012,0.004,0.031,0.014,0.053,0.02c0.146,0.039,0.172,0.055,0.172,0.055l0,0c0.053,0.023,0.09,0.078,0.09,0.141
			c0,0.004-0.002,0.01-0.002,0.016l0,0l0,0l0,0c0,0.018-0.021,0.182-0.098,0.68l0,0c0,0-0.004,0.031-0.006,0.043
			c0,0.02,0,0.033,0,0.033c-0.002,0.09,0.055,0.172,0.143,0.195c0.102,0.027,0.205-0.029,0.236-0.127l0,0l0.098-0.273l0,0
			c0.012-0.029,0.041-0.051,0.074-0.051s0.061,0.021,0.072,0.051l0,0l0.098,0.273c0.033,0.098,0.137,0.154,0.236,0.127
			c0.088-0.023,0.146-0.105,0.145-0.191l0,0c0,0,0-0.014-0.004-0.037C56.887,43.5,56.883,43.473,56.883,43.469z"/>
		<path fill="#FFFFFF" d="M53.016,38.559L53.016,38.559c-0.076-0.5-0.096-0.665-0.098-0.682v-0.001l0,0l0,0c0-0.006,0-0.01,0-0.015
			c0-0.063,0.035-0.116,0.09-0.141V37.72c0,0,0.023-0.015,0.172-0.055c0.021-0.006,0.041-0.015,0.053-0.019l0,0
			c0.066-0.027,0.111-0.093,0.111-0.168c0-0.094-0.072-0.174-0.166-0.181l0,0c-0.283-0.024-0.332-0.038-0.332-0.038l0,0
			c-0.072-0.014-0.127-0.076-0.127-0.153c0-0.016,0.002-0.031,0.006-0.045l0,0c0.014-0.049,0.016-0.059,0.018-0.079
			c0.002-0.021,0.004-0.05,0.004-0.05l0,0v-0.004c0-0.151-0.123-0.271-0.273-0.271c-0.148,0-0.271,0.12-0.271,0.271v0.005l0,0
			c0,0,0,0.028,0.002,0.05c0.004,0.021,0.004,0.03,0.018,0.079l0,0c0.006,0.014,0.008,0.029,0.008,0.045
			c0,0.077-0.055,0.14-0.129,0.153l0,0c0,0-0.049,0.014-0.332,0.038l0,0l0,0c-0.092,0.007-0.166,0.087-0.166,0.181
			c0,0.075,0.045,0.141,0.113,0.168l0,0c0.01,0.004,0.029,0.013,0.051,0.019c0.148,0.04,0.174,0.055,0.174,0.055v0.001
			c0.053,0.024,0.088,0.078,0.088,0.141c0,0.005,0,0.009,0,0.015l0,0l0,0v0.001c-0.002,0.017-0.021,0.182-0.098,0.682l0,0
			c0,0-0.004,0.029-0.006,0.04c-0.002,0.021-0.002,0.034-0.002,0.037c-0.002,0.087,0.057,0.168,0.145,0.192
			c0.1,0.026,0.203-0.031,0.234-0.128l0,0l0.1-0.272l0,0c0.012-0.029,0.039-0.051,0.072-0.051s0.063,0.021,0.074,0.051l0,0
			l0.098,0.272c0.031,0.097,0.135,0.154,0.234,0.128c0.088-0.024,0.146-0.104,0.145-0.191l0,0c0,0,0-0.016-0.002-0.038
			C53.021,38.588,53.016,38.561,53.016,38.559z"/>
		<path fill="#FFFFFF" d="M51.244,39.151L51.244,39.151c-0.076-0.499-0.096-0.665-0.098-0.682v-0.001l0,0l0,0
			c0-0.006,0-0.01,0-0.015c0-0.063,0.037-0.116,0.088-0.142l0,0c0,0,0.027-0.015,0.174-0.055c0.021-0.007,0.041-0.014,0.053-0.019
			l0,0c0.064-0.027,0.111-0.092,0.111-0.167c0-0.097-0.072-0.174-0.166-0.182l0,0c-0.283-0.024-0.332-0.038-0.332-0.038l0,0
			c-0.072-0.015-0.129-0.076-0.129-0.153c0-0.017,0.002-0.032,0.008-0.045l0,0c0.014-0.049,0.016-0.059,0.018-0.08
			c0.002-0.021,0.002-0.049,0.002-0.049l0,0v-0.004c0-0.15-0.121-0.273-0.271-0.273s-0.271,0.123-0.271,0.273v0.002v0.002
			c0,0,0,0.028,0.004,0.049c0,0.021,0.002,0.031,0.016,0.08l0,0c0.004,0.013,0.006,0.028,0.006,0.045
			c0,0.077-0.055,0.139-0.125,0.153l0,0c0,0-0.051,0.014-0.334,0.038l0,0l0,0c-0.092,0.008-0.166,0.085-0.166,0.182
			c0,0.075,0.045,0.14,0.111,0.167l0,0c0.012,0.005,0.031,0.012,0.053,0.019c0.146,0.04,0.174,0.055,0.174,0.055l0,0
			c0.051,0.025,0.088,0.079,0.088,0.142c0,0.005,0,0.009,0,0.015l0,0l0,0v0.001c-0.002,0.017-0.021,0.183-0.098,0.682l0,0
			c0,0-0.004,0.029-0.006,0.04c0,0.022-0.002,0.034-0.002,0.034c-0.002,0.09,0.057,0.171,0.145,0.195
			c0.1,0.026,0.203-0.031,0.234-0.128l0,0l0.1-0.271l0,0c0.01-0.031,0.037-0.053,0.072-0.053s0.063,0.021,0.072,0.053l0,0l0.1,0.271
			c0.033,0.097,0.135,0.154,0.234,0.128c0.088-0.024,0.146-0.104,0.145-0.191l0,0c0,0,0-0.016-0.002-0.038
			C51.248,39.18,51.244,39.153,51.244,39.151z"/>
		<path fill="#FFFFFF" d="M47.76,45.277L47.76,45.277c-0.076-0.5-0.096-0.664-0.098-0.682l0,0v-0.002l0,0
			c-0.002-0.004-0.002-0.01-0.002-0.014c0-0.063,0.037-0.115,0.09-0.141l0,0c0,0,0.025-0.016,0.174-0.057
			c0.021-0.006,0.039-0.014,0.053-0.018l0,0c0.064-0.027,0.111-0.092,0.111-0.168c0-0.094-0.074-0.174-0.166-0.18l0,0
			c-0.283-0.025-0.334-0.039-0.334-0.039l0,0c-0.072-0.014-0.127-0.076-0.127-0.154c0-0.014,0.004-0.029,0.006-0.045l0,0
			c0.016-0.047,0.016-0.057,0.02-0.078c0.002-0.021,0.002-0.051,0.002-0.051l0,0v-0.004c0-0.15-0.121-0.271-0.271-0.271
			s-0.273,0.121-0.273,0.271v0.004l0,0c0,0,0.002,0.029,0.004,0.051s0.004,0.031,0.018,0.078l0,0
			c0.004,0.016,0.008,0.031,0.008,0.045c0,0.078-0.057,0.141-0.129,0.154l0,0c0,0-0.051,0.014-0.332,0.039l0,0l0,0
			c-0.094,0.006-0.168,0.086-0.168,0.18c0,0.076,0.047,0.141,0.113,0.168l0,0c0.012,0.004,0.031,0.012,0.053,0.018
			c0.148,0.041,0.172,0.057,0.172,0.057l0,0c0.053,0.025,0.09,0.078,0.09,0.141c0,0.004-0.002,0.01-0.002,0.014l0,0v0.002l0,0
			c0,0.018-0.021,0.182-0.098,0.682l0,0c0,0-0.002,0.029-0.004,0.041c-0.002,0.02-0.002,0.033-0.002,0.037
			c-0.002,0.086,0.055,0.166,0.145,0.191c0.1,0.025,0.201-0.031,0.234-0.129l0,0l0.098-0.271l0,0
			c0.012-0.029,0.039-0.051,0.074-0.051c0.033,0,0.061,0.021,0.072,0.051l0,0l0.1,0.271c0.031,0.098,0.133,0.154,0.234,0.129
			c0.088-0.025,0.146-0.105,0.145-0.191l0,0c0,0,0-0.016-0.004-0.037C47.764,45.307,47.76,45.279,47.76,45.277z"/>
		<path fill="#FFFFFF" d="M56.883,50.834L56.883,50.834c-0.076-0.5-0.096-0.664-0.098-0.682V50.15l0,0l0,0v-0.014
			c0-0.063,0.035-0.117,0.088-0.141l0,0c0,0,0.025-0.018,0.172-0.057c0.023-0.006,0.041-0.014,0.053-0.018l0,0
			c0.068-0.027,0.111-0.094,0.111-0.168c0-0.096-0.072-0.174-0.164-0.182l0,0c-0.285-0.025-0.334-0.037-0.334-0.037l0,0
			c-0.072-0.014-0.127-0.078-0.127-0.154c0-0.014,0.002-0.029,0.006-0.045l0,0c0.016-0.049,0.016-0.057,0.02-0.078
			c0.002-0.021,0.002-0.051,0.002-0.051l0,0c0,0,0-0.002,0-0.004c0-0.15-0.121-0.273-0.271-0.273c-0.152,0-0.273,0.123-0.273,0.273
			c0,0.002,0,0.002,0,0.002v0.002c0,0,0.002,0.029,0.004,0.051s0.004,0.029,0.018,0.078l0,0c0.004,0.016,0.006,0.031,0.006,0.045
			c0,0.076-0.055,0.141-0.127,0.154l0,0c0,0-0.049,0.012-0.332,0.037l0,0l0,0c-0.094,0.008-0.168,0.086-0.168,0.182
			c0,0.074,0.047,0.141,0.113,0.168l0,0c0.012,0.004,0.031,0.012,0.053,0.018c0.146,0.039,0.172,0.057,0.172,0.057l0,0
			c0.053,0.023,0.09,0.078,0.09,0.141l-0.002,0.014l0,0l0,0v0.002c0,0.018-0.02,0.182-0.096,0.682l0,0c0,0-0.006,0.029-0.006,0.041
			c-0.002,0.02-0.002,0.033-0.002,0.033c-0.002,0.09,0.055,0.17,0.143,0.195c0.102,0.027,0.205-0.031,0.236-0.129l0,0l0.098-0.271
			l0,0c0.012-0.029,0.041-0.051,0.074-0.051s0.061,0.021,0.072,0.051l0,0l0.098,0.271c0.033,0.098,0.137,0.156,0.236,0.129
			c0.088-0.025,0.146-0.105,0.145-0.193l0,0c0,0,0-0.014-0.004-0.035C56.887,50.863,56.883,50.836,56.883,50.834z"/>
		<path fill="#FFFFFF" d="M41.6,40.24L41.6,40.24c-0.076-0.499-0.096-0.665-0.098-0.682l0,0l0,0l0,0c0-0.006,0-0.01,0-0.017
			c0-0.062,0.035-0.115,0.088-0.139v-0.001c0,0,0.025-0.015,0.174-0.056c0.02-0.006,0.041-0.014,0.053-0.019l0,0
			c0.064-0.026,0.111-0.092,0.111-0.168c0-0.095-0.074-0.173-0.168-0.18l0,0c-0.281-0.026-0.332-0.039-0.332-0.039l0,0
			c-0.072-0.013-0.127-0.077-0.127-0.152c0-0.016,0.002-0.032,0.008-0.046l0,0c0.012-0.049,0.014-0.059,0.016-0.079
			c0.004-0.021,0.004-0.05,0.004-0.05l0,0v-0.005c0-0.149-0.121-0.271-0.273-0.271c-0.15,0-0.271,0.122-0.271,0.271v0.004v0.001
			c0,0,0,0.029,0.002,0.05s0.004,0.03,0.018,0.079l0,0c0.004,0.014,0.006,0.03,0.006,0.046c0,0.075-0.053,0.14-0.125,0.152l0,0
			c0,0-0.051,0.013-0.334,0.039l0,0l0,0c-0.094,0.007-0.166,0.085-0.166,0.18c0,0.076,0.047,0.142,0.111,0.168l0,0
			c0.012,0.005,0.031,0.013,0.053,0.019c0.148,0.041,0.174,0.056,0.174,0.056v0.001c0.051,0.023,0.088,0.077,0.088,0.139
			c0,0.007,0,0.011,0,0.017l0,0l0,0l0,0c-0.002,0.017-0.021,0.183-0.098,0.682l0,0c0,0-0.004,0.03-0.006,0.041
			c-0.002,0.021-0.004,0.033-0.004,0.033c0,0.091,0.057,0.172,0.146,0.195c0.1,0.028,0.203-0.029,0.236-0.127l0,0l0.098-0.272l0,0
			c0.01-0.029,0.039-0.052,0.072-0.052c0.035,0,0.063,0.022,0.072,0.052l0,0l0.1,0.272c0.033,0.098,0.135,0.155,0.236,0.127
			c0.088-0.023,0.145-0.104,0.143-0.192l0,0c0,0,0-0.014-0.002-0.036C41.602,40.27,41.6,40.242,41.6,40.24z"/>
		<path fill="#FFFFFF" d="M37.819,41.826L37.819,41.826c-0.078-0.498-0.098-0.664-0.1-0.68v-0.002l0,0l0,0c0-0.004,0-0.01,0-0.016
			c0-0.063,0.037-0.115,0.09-0.14l0,0c0,0,0.025-0.016,0.174-0.056c0.02-0.005,0.039-0.014,0.051-0.018l0,0
			c0.066-0.027,0.111-0.093,0.111-0.168c0-0.096-0.072-0.173-0.164-0.181l0,0c-0.283-0.025-0.334-0.039-0.334-0.039l0,0
			c-0.072-0.014-0.127-0.077-0.127-0.153c0-0.015,0.002-0.03,0.006-0.046l0,0c0.016-0.048,0.016-0.057,0.018-0.077
			c0.004-0.021,0.004-0.051,0.004-0.051l0,0v-0.003c0-0.151-0.121-0.273-0.273-0.273c-0.148,0-0.271,0.122-0.271,0.273v0.003l0,0
			c0,0,0,0.029,0.002,0.051c0.004,0.021,0.006,0.029,0.018,0.077l0,0c0.006,0.016,0.008,0.031,0.008,0.046
			c0,0.076-0.055,0.14-0.127,0.153l0,0c0,0-0.051,0.014-0.332,0.039h-0.002l0,0c-0.092,0.008-0.166,0.085-0.166,0.181
			c0,0.075,0.047,0.141,0.111,0.168l0,0c0.014,0.004,0.033,0.013,0.053,0.018c0.148,0.04,0.174,0.056,0.174,0.056l0,0
			c0.053,0.025,0.09,0.078,0.09,0.14c0,0.006,0,0.012-0.002,0.016l0,0l0,0v0.002c-0.002,0.016-0.021,0.182-0.096,0.68l0,0
			c0,0-0.006,0.031-0.008,0.041c0,0.021-0.002,0.033-0.002,0.037c-0.002,0.088,0.057,0.168,0.145,0.191
			c0.1,0.027,0.203-0.029,0.234-0.127l0,0l0.1-0.271l0,0c0.012-0.031,0.039-0.053,0.072-0.053c0.035,0,0.064,0.021,0.074,0.053l0,0
			l0.098,0.271c0.033,0.098,0.135,0.154,0.234,0.127c0.09-0.023,0.146-0.104,0.145-0.191l0,0c0,0,0-0.014-0.002-0.037
			C37.823,41.857,37.819,41.828,37.819,41.826z"/>
		<path fill="#FFFFFF" d="M34.055,49.279L34.055,49.279c-0.076-0.498-0.096-0.664-0.098-0.68v-0.002l0,0l0,0
			c0-0.006-0.002-0.01-0.002-0.016c0-0.061,0.037-0.115,0.09-0.141l0,0c0,0,0.025-0.016,0.174-0.055
			c0.02-0.006,0.041-0.016,0.053-0.018l0,0c0.064-0.027,0.111-0.094,0.111-0.17c0-0.094-0.072-0.172-0.166-0.18l0,0
			c-0.283-0.025-0.334-0.039-0.334-0.039l0,0c-0.072-0.012-0.125-0.076-0.125-0.152c0-0.016,0-0.031,0.006-0.045l0,0
			c0.014-0.049,0.014-0.059,0.018-0.08c0.002-0.021,0.002-0.049,0.002-0.049l0,0c0-0.002,0-0.004,0-0.004
			c0-0.15-0.121-0.273-0.271-0.273s-0.273,0.123-0.273,0.273c0,0,0,0.002,0,0.004l0,0c0,0,0,0.027,0.004,0.049
			c0.002,0.021,0.004,0.031,0.018,0.08l0,0c0.004,0.014,0.006,0.029,0.006,0.045c0,0.076-0.055,0.141-0.125,0.152l0,0
			c0,0-0.051,0.014-0.334,0.039l0,0l0,0c-0.094,0.008-0.166,0.086-0.166,0.18c0,0.076,0.045,0.143,0.111,0.17l0,0
			c0.01,0.002,0.031,0.012,0.051,0.018c0.148,0.039,0.174,0.055,0.174,0.055l0,0c0.053,0.025,0.09,0.08,0.09,0.141
			c0,0.006,0,0.01-0.002,0.016l0,0l0,0l0,0c0,0.018-0.02,0.184-0.096,0.682l0,0c0,0-0.006,0.031-0.006,0.043
			c-0.002,0.02-0.002,0.033-0.002,0.033c-0.004,0.088,0.055,0.17,0.143,0.193c0.102,0.027,0.205-0.029,0.236-0.127l0,0l0.1-0.273
			l0,0c0.01-0.029,0.039-0.051,0.072-0.051s0.063,0.021,0.072,0.051l0,0l0.098,0.273c0.033,0.098,0.135,0.154,0.236,0.127
			c0.09-0.023,0.145-0.104,0.145-0.191l0,0c0,0,0-0.014-0.002-0.035C34.059,49.311,34.055,49.283,34.055,49.279z"/>
		<path fill="#FFFFFF" d="M29.967,39.649L29.967,39.649c-0.076-0.5-0.096-0.665-0.098-0.682v-0.001l0,0l0,0c0-0.006,0-0.011,0-0.017
			c0-0.061,0.035-0.115,0.088-0.139l0,0c0,0,0.025-0.015,0.174-0.056c0.02-0.007,0.041-0.015,0.053-0.02l0,0
			c0.064-0.026,0.111-0.091,0.111-0.167c0-0.095-0.072-0.173-0.166-0.182l0,0c-0.283-0.024-0.334-0.039-0.334-0.039l0,0
			c-0.07-0.013-0.127-0.076-0.127-0.152c0-0.016,0.002-0.03,0.008-0.044l0,0c0.014-0.05,0.016-0.059,0.018-0.08
			c0.002-0.021,0.002-0.05,0.002-0.05l0,0v-0.004c0-0.15-0.121-0.272-0.271-0.272s-0.273,0.122-0.273,0.272v0.004l0,0
			c0,0,0,0.029,0.004,0.05c0.002,0.021,0.004,0.03,0.018,0.08l0,0c0.004,0.014,0.006,0.028,0.006,0.044
			c0,0.076-0.055,0.14-0.125,0.152l0,0c0,0-0.051,0.015-0.334,0.039h-0.002l0,0c-0.092,0.009-0.164,0.087-0.164,0.182
			c0,0.076,0.045,0.141,0.111,0.167l0,0c0.012,0.005,0.031,0.013,0.051,0.02c0.148,0.041,0.174,0.056,0.174,0.056l0,0
			c0.053,0.023,0.09,0.078,0.09,0.139c0,0.006,0,0.011,0,0.017l0,0l0,0v0.001c-0.002,0.017-0.021,0.182-0.098,0.682l0,0
			c0,0-0.006,0.029-0.006,0.039c-0.002,0.022-0.002,0.035-0.002,0.037c-0.004,0.088,0.055,0.17,0.143,0.192
			c0.102,0.026,0.205-0.03,0.236-0.128l0,0l0.1-0.272l0,0c0.01-0.029,0.037-0.051,0.072-0.051c0.033,0,0.063,0.021,0.072,0.051l0,0
			l0.098,0.272c0.033,0.098,0.137,0.154,0.236,0.128c0.088-0.022,0.146-0.104,0.145-0.191l0,0c0,0,0-0.015-0.002-0.038
			C29.971,39.678,29.967,39.65,29.967,39.649z"/>
		<path fill="#FFFFFF" d="M18.182,42.381L18.182,42.381c-0.076-0.498-0.094-0.664-0.096-0.682l0,0h-0.002l0,0v-0.016
			c0-0.063,0.037-0.115,0.09-0.141l0,0c0,0,0.025-0.016,0.174-0.055c0.02-0.006,0.039-0.014,0.051-0.02l0,0
			c0.066-0.027,0.111-0.092,0.111-0.168c0-0.094-0.072-0.172-0.164-0.18l0,0c-0.283-0.025-0.334-0.039-0.334-0.039l0,0
			c-0.072-0.014-0.127-0.076-0.127-0.153c0-0.015,0.002-0.031,0.008-0.046l0,0c0.014-0.048,0.014-0.058,0.016-0.079
			c0.002-0.021,0.004-0.049,0.004-0.049l0,0c0-0.002,0-0.003,0-0.003c0-0.152-0.123-0.273-0.271-0.273
			c-0.152,0-0.273,0.121-0.273,0.271c0,0,0,0.003,0,0.005l0,0c0,0,0,0.028,0.004,0.049c0.002,0.021,0.004,0.031,0.018,0.079l0,0
			c0.004,0.015,0.008,0.031,0.008,0.046c0,0.077-0.057,0.139-0.129,0.153l0,0c0,0-0.049,0.014-0.334,0.039l0,0l0,0
			c-0.092,0.008-0.164,0.086-0.164,0.18c0,0.076,0.045,0.141,0.111,0.168l0,0c0.01,0.006,0.029,0.014,0.051,0.02
			c0.148,0.039,0.174,0.055,0.174,0.055l0,0c0.053,0.025,0.09,0.078,0.09,0.141l-0.002,0.016l0,0l0,0l0,0
			c-0.002,0.018-0.021,0.184-0.096,0.682l0,0c0,0-0.006,0.029-0.006,0.041c-0.002,0.021-0.002,0.033-0.002,0.033
			c-0.002,0.09,0.055,0.172,0.143,0.195c0.102,0.027,0.205-0.029,0.236-0.127l0,0l0.098-0.271l0,0
			c0.012-0.031,0.041-0.053,0.074-0.053s0.063,0.021,0.072,0.053l0,0l0.1,0.271c0.031,0.098,0.135,0.154,0.232,0.127
			c0.09-0.023,0.148-0.105,0.146-0.191l0,0c0,0,0-0.014-0.002-0.037C18.188,42.41,18.184,42.383,18.182,42.381z"/>
		<path fill="#FFFFFF" d="M23.124,51.459L23.124,51.459c-0.076-0.5-0.096-0.664-0.098-0.682l0,0v-0.002l0,0c0-0.004,0-0.01,0-0.016
			c0-0.061,0.035-0.115,0.088-0.139l0,0c0,0,0.025-0.016,0.174-0.057c0.021-0.006,0.041-0.014,0.053-0.018l0,0
			c0.066-0.027,0.111-0.094,0.111-0.168c0-0.096-0.072-0.174-0.166-0.18l0,0c-0.283-0.027-0.332-0.039-0.332-0.039l0,0
			c-0.072-0.014-0.129-0.076-0.129-0.154c0-0.014,0.004-0.029,0.008-0.045l0,0c0.014-0.049,0.016-0.059,0.018-0.078
			c0.002-0.021,0.004-0.051,0.004-0.051l0,0v-0.004c0-0.15-0.123-0.271-0.273-0.271c-0.148,0-0.271,0.121-0.271,0.271v0.004l0,0
			c0,0,0,0.029,0.002,0.051c0.004,0.02,0.004,0.029,0.018,0.078l0,0c0.004,0.016,0.006,0.031,0.006,0.045
			c0,0.078-0.053,0.141-0.127,0.154l0,0c0,0-0.049,0.012-0.332,0.039l0,0l0,0c-0.094,0.006-0.166,0.084-0.166,0.18
			c0,0.074,0.045,0.141,0.113,0.168l0,0c0.01,0.004,0.029,0.012,0.051,0.018c0.148,0.041,0.174,0.057,0.174,0.057l0,0
			c0.053,0.023,0.088,0.078,0.088,0.139c0,0.006,0,0.012-0.002,0.016l0,0v0.002l0,0c0,0.018-0.02,0.182-0.096,0.682l0,0
			c0,0-0.004,0.029-0.006,0.041c-0.002,0.02-0.002,0.033-0.002,0.033c-0.002,0.09,0.057,0.17,0.145,0.193
			c0.1,0.027,0.203-0.029,0.234-0.127l0,0l0.1-0.271l0,0c0.01-0.029,0.039-0.051,0.072-0.051s0.063,0.021,0.074,0.051l0,0
			l0.098,0.271c0.031,0.098,0.135,0.154,0.234,0.127c0.09-0.023,0.146-0.104,0.145-0.191l0,0c0,0,0-0.014-0.002-0.035
			C23.127,51.488,23.124,51.461,23.124,51.459z"/>
	</g>
	<path d="M55.676,43.875c-0.086-1.959-1.338-2.762-2.656-2.936c-1.824-0.24-3.059,0.901-3.533,2.709c0,0-0.883,3.264-1.918,5.492
		c-0.74,1.592-1.211,2.803-2.447,2.453c-0.672-0.188-0.803-0.93-0.803-1.602c0-0.273,0.043-0.539,0.119-0.789h-0.004
		c0.242-0.865,0.266-1.025,0.311-1.404c0.043-0.365,0.053-0.873,0.053-0.873c0-0.025,0-0.049,0-0.072
		c0-2.65-2.146-4.801-4.796-4.803l0,0h-0.002h-0.002l0,0c-2.648,0.002-4.795,2.152-4.795,4.803c0,0.023,0,0.047,0,0.072
		c0,0,0.01,0.508,0.053,0.873c0.045,0.379,0.068,0.539,0.311,1.404h-0.002c0.076,0.25,0.119,0.516,0.119,0.789
		c0,0.672-0.133,1.414-0.805,1.602c-1.236,0.35-1.707-0.861-2.447-2.453c-1.035-2.229-1.918-5.492-1.918-5.492
		c-0.475-1.809-1.709-2.95-3.531-2.709c-1.32,0.174-2.572,0.977-2.658,2.936c-0.121,2.693,4.879,11.285,4.879,11.285
		s3.072,4.533,2.957,8.131c-0.002,0.088-0.004,0.176-0.012,0.264v0.008c0,0.008-0.004,0.014-0.004,0.014
		c-0.031,0.299-0.371,3.213-1.715,12.014c-0.006,0.029-0.074,0.516-0.094,0.713c-0.041,0.4-0.041,0.646-0.041,0.646
		c-0.031,1.539,0.984,2.963,2.541,3.379c1.77,0.471,3.586-0.527,4.146-2.25l1.73-4.795c0.193-0.527,0.697-0.902,1.287-0.904
		c0.592,0.002,1.095,0.377,1.289,0.904l1.732,4.795c0.559,1.723,2.375,2.721,4.145,2.25c1.557-0.416,2.572-1.84,2.541-3.379
		c0,0,0-0.246-0.041-0.646c-0.02-0.197-0.088-0.684-0.094-0.713c-1.344-8.801-1.684-11.715-1.715-12.008c0,0-0.002-0.012-0.002-0.02
		v-0.008c-0.01-0.088-0.012-0.176-0.014-0.264c-0.115-3.598,2.957-8.131,2.957-8.131S55.797,46.568,55.676,43.875z"/>
</g>
</svg>
