<?xml version="1.0" encoding="utf-8"?>
<!-- Generator: Adobe Illustrator 16.0.0, SVG Export Plug-In . SVG Version: 6.00 Build 0)  -->
<!DOCTYPE svg PUBLIC "-//W3C//DTD SVG 1.1//EN" "http://www.w3.org/Graphics/SVG/1.1/DTD/svg11.dtd">
<svg version="1.1" id="图层_1" xmlns="http://www.w3.org/2000/svg" xmlns:xlink="http://www.w3.org/1999/xlink" x="0px" y="0px"
	 width="157px" height="91px" viewBox="0 0 157 91" enable-background="new 0 0 157 91" xml:space="preserve">
<g>
	<g>
		<path fill="#040000" d="M5.596,56.822c0,0.422,0.238,0.398,0.331,0.322c0.103-0.084,0.194-0.205,0.329-0.387
			c0.113-0.152,0.219-0.275,0.271-0.352c0.558-0.688,1.152-1.203,1.782-1.547c0.629-0.338,1.316-0.508,2.058-0.508
			c0.751,0,1.435,0.152,2.055,0.449c0.62,0.299,1.152,0.734,1.602,1.301c0.182,0.238,0.358,0.529,0.531,0.879
			c0.173,0.352,0.305,0.512,0.397,0.523c0.192,0.027,0.281-0.047,0.64-0.592c0.165-0.252,0.305-0.463,0.426-0.627
			c0.528-0.67,1.104-1.16,1.729-1.467c0.623-0.313,1.347-0.467,2.171-0.467c1.094,0,2.055,0.258,2.872,0.771
			c0.817,0.512,1.398,1.223,1.744,2.139c0.213,0.547,0.406,1.184,0.497,1.906c0.093,0.721,0.16,1.746,0.16,3.076v2.693
			c0,1.387,0,1.652,0,2.283c0,0.936,0.128,1.213,0.333,1.42c0.132,0.131,0.299,0.211,0.808,0.352
			c0.431,0.119,0.639,0.33,0.639,0.594c0,0.324-0.241,0.561-0.723,0.709c-0.481,0.146-1.26,0.221-2.339,0.221
			c-1.076,0-1.855-0.074-2.338-0.221c-0.482-0.148-0.724-0.385-0.724-0.709c0-0.264,0.236-0.469,0.709-0.617
			c0.473-0.146,0.767-0.32,0.89-0.512c0.123-0.184,0.2-0.588,0.2-1.473c0-0.75,0-5.168,0-5.168c0-1.965-0.164-3.293-0.641-4.121
			c-0.477-0.826-1.255-1.24-2.332-1.24c-0.75,0-1.508,0.248-2.268,0.746c-0.762,0.498-1.416,1.123-1.768,1.904
			c-0.107,0.24-0.23,0.758-0.23,1.359c0,0.781,0,6.379,0,6.861c0,0.607,0.078,0.93,0.174,1.1c0.183,0.32,0.501,0.434,0.941,0.566
			c0.436,0.133,0.653,0.33,0.653,0.594c0,0.324-0.239,0.561-0.716,0.709c-0.476,0.146-1.248,0.221-2.314,0.221
			c-1.056,0-1.82-0.074-2.294-0.221c-0.472-0.148-0.707-0.385-0.707-0.709c0-0.264,0.234-0.469,0.707-0.617
			c0.474-0.146,0.786-0.324,0.922-0.602c0.085-0.172,0.093-0.684,0.093-1.154V61.82c0-1.918-0.089-3.297-0.571-4.125
			c-0.485-0.826-1.27-1.24-2.355-1.24c-0.742,0-1.501,0.252-2.279,0.76c-0.777,0.512-1.439,1.148-1.818,1.918
			c-0.105,0.211-0.186,0.486-0.208,0.811c-0.021,0.338-0.038,0.896-0.038,1.689v5.219c0,0.973,0.099,1.393,0.195,1.566
			c0.148,0.271,0.438,0.404,0.91,0.551c0.473,0.148,0.709,0.354,0.709,0.617c0,0.324-0.242,0.561-0.724,0.709
			c-0.481,0.146-1.262,0.221-2.338,0.221c-1.088,0-1.915-0.074-2.401-0.221c-0.489-0.148-0.729-0.385-0.729-0.709
			c0-0.264,0.234-0.469,0.705-0.617c0.474-0.146,0.808-0.32,0.933-0.512c0.152-0.232,0.198-0.658,0.198-1.668v-8.125
			c0-0.885-0.127-1.377-0.346-1.59c-0.118-0.117-0.244-0.197-0.825-0.346c-0.425-0.105-0.665-0.268-0.665-0.627
			c0-0.365,0.24-0.637,1.098-1.037c0.858-0.402,1.527-0.627,2.379-0.709c0.274-0.023,0.512,0.094,0.644,0.24
			c0.145,0.162,0.259,0.469,0.259,0.912V56.822z"/>
		<path fill="#040000" d="M48.788,67.238c0,0.779,0.146,1.068,0.251,1.219c0.16,0.238,0.35,0.365,0.821,0.512
			c0.473,0.148,0.71,0.354,0.71,0.617c0,0.324-0.242,0.561-0.724,0.709c-0.482,0.146-1.172,0.221-2.249,0.221
			c-1.087,0-1.952-0.074-2.439-0.221c-0.488-0.148-0.731-0.385-0.731-0.709c0-0.264,0.239-0.469,0.709-0.617
			c0.471-0.146,0.841-0.344,0.953-0.543c0.132-0.234,0.117-0.584,0.117-1.75V52.07c0-1.676-0.025-1.875-0.287-2.137
			c-0.135-0.133-0.346-0.25-0.897-0.328c-0.548-0.078-0.822-0.293-0.822-0.646c0-0.193,0.092-0.369,0.274-0.533
			c0.184-0.162,0.473-0.33,0.87-0.504c0.538-0.203,1.068-0.369,1.591-0.494c0.523-0.127,0.902-0.191,1.134-0.191
			c0.308,0,0.455,0.094,0.572,0.252c0.117,0.156,0.146,0.531,0.146,0.967c0,0.092,0,12.111,0,12.111
			c0,0.496,0.313,0.395,0.438,0.357c0.209-0.072,0.398-0.217,0.598-0.365c0.777-0.58,2.855-2.66,3.197-3.035
			c0.38-0.422,0.509-0.689,0.48-0.885c-0.034-0.232-0.224-0.426-0.67-0.58c-0.447-0.152-0.672-0.344-0.672-0.578
			c0-0.305,0.27-0.527,0.808-0.662c0.539-0.139,1.433-0.207,2.683-0.207c1.064,0,1.837,0.063,2.318,0.191
			c0.475,0.129,0.713,0.33,0.713,0.615c0,0.387-0.252,0.523-1.205,0.762c-0.814,0.207-1.354,0.582-1.917,1.041
			c-0.928,0.754-1.983,1.713-2.806,2.549c0,0-0.979,0.988-1.091,1.244c-0.025,0.053-0.088,0.139,0.004,0.299
			c0.092,0.164,0.349,0.516,0.584,0.832c1.176,1.584,2.168,2.84,3.165,3.992c0.996,1.152,1.78,1.957,2.361,2.41
			c0.304,0.258,0.792,0.551,1.498,0.678c0.696,0.119,0.882,0.191,0.882,0.486c0,0.285-0.324,0.512-0.842,0.629
			c-1.82,0.42-3.122-0.039-3.414-0.164c-0.316-0.133-0.698-0.355-1.197-0.926c-0.262-0.295-0.961-1.156-1.94-2.479
			c-0.98-1.322-1.526-2.02-2.572-3.313c-0.357-0.434-0.623-0.705-0.771-0.844c-0.145-0.135-0.255-0.203-0.326-0.203
			c-0.11,0-0.19,0.055-0.236,0.174c-0.045,0.115-0.068,0.379-0.068,0.783V67.238z"/>
		<path fill="#040000" d="M99.311,57.313c0.631-0.943,1.297-1.676,2-2.189c0.727-0.537,1.434-0.771,2.125-0.771
			c0.566,0,1.027,0.146,1.377,0.502c0.352,0.357,0.527,0.826,0.527,1.402c0,0.506-0.16,0.928-0.482,1.256
			c-0.32,0.33-0.723,0.496-1.209,0.496c-0.438,0-0.799-0.139-1.084-0.412c-0.24-0.232-0.354-0.436-0.482-0.893
			c-0.021-0.063-0.061-0.229-0.264-0.176c-0.836,0.215-1.652,0.861-2.031,1.563c-0.383,0.703-0.383,1.268-0.383,3.553v4.822
			c0,1.201,0.055,1.688,0.209,1.975c0.146,0.271,0.367,0.41,0.928,0.49c0.182,0.02,0.328,0.043,0.441,0.063
			c0.223,0.041,0.402,0.113,0.533,0.215s0.197,0.225,0.197,0.379c0,0.324-0.291,0.561-0.867,0.709
			c-0.582,0.146-1.484,0.221-2.711,0.221c-1.098,0-1.889-0.074-2.369-0.221c-0.482-0.148-0.725-0.385-0.725-0.709
			c0-0.264,0.211-0.461,0.639-0.594s0.684-0.258,0.795-0.352c0.322-0.273,0.387-0.637,0.387-1.436v-7.076
			c0-1.391-0.023-1.738-0.104-2.16c-0.061-0.314-0.252-0.66-0.436-0.82c-0.16-0.141-0.453-0.236-0.932-0.236
			c0,0-0.498,0.047-0.721-0.184c-0.125-0.127-0.195-0.268-0.195-0.443c0-0.191,0.078-0.367,0.232-0.525
			c0.15-0.158,0.432-0.363,0.836-0.555c0.52-0.273,1.014-0.465,1.494-0.631c0.479-0.168,0.73-0.223,0.92-0.223
			c0.275,0,0.572,0.191,0.727,0.633c0.15,0.441,0.277,1.223,0.381,2.336c0,0,0.008,0.113,0.121,0.094
			C99.234,57.404,99.303,57.328,99.311,57.313z"/>
		<path fill="#040000" d="M119.342,61.938h-9.609c-0.207,0-0.344,0.043-0.422,0.123c-0.076,0.082-0.111,0.238-0.111,0.475
			c0,1.898,0.5,3.516,1.508,4.727c1.006,1.213,2.287,1.707,3.85,1.707c1.811,0,3.223-0.855,4.373-2.035
			c0.451-0.467,0.674-0.715,0.963-0.783c0.195-0.043,0.422,0.045,0.535,0.152c0.109,0.107,0.164,0.24,0.164,0.404
			c0,0.223-0.07,0.471-0.203,0.738c-0.141,0.268-0.332,0.547-0.59,0.828c-0.762,0.846-1.641,1.486-2.641,1.93
			c-1,0.441-2.074,0.664-3.223,0.664c-2.172,0-3.975-0.754-5.4-2.264c-1.428-1.51-2.139-3.471-2.139-5.768
			c0-2.436,0.746-4.455,2.238-6.055c1.492-1.598,3.367-2.43,5.619-2.43c1.953,0,3.498,0.58,4.646,1.676
			c1.148,1.098,1.723,2.582,1.723,4.445c0,0.613-0.064,1.008-0.195,1.191C120.291,61.846,119.932,61.938,119.342,61.938z
			 M109.971,60.627h7.541c0.229,0,0.385-0.041,0.463-0.125c0.08-0.084,0.121-0.246,0.121-0.486c0-1.164-0.395-2.129-1.18-2.898
			c-0.785-0.771-1.777-1.184-2.98-1.184c-0.637,0-1.24,0.168-1.811,0.445c-0.572,0.279-1.076,0.676-1.516,1.193
			c-0.346,0.418-0.627,0.871-0.84,1.357c-0.213,0.488-0.318,0.908-0.318,1.266c0,0.16,0.033,0.27,0.109,0.336
			S109.771,60.627,109.971,60.627z"/>
		<path fill="#040000" d="M133.447,60.75c0.008-0.129,0.006-0.328,0.006-0.594c0-1.555-0.254-2.67-0.758-3.342
			c-0.51-0.678-1.332-1.15-2.475-1.15c-0.578,0-1.223,0.172-1.676,0.453c-0.434,0.273-0.787,0.547-1.189,0.992
			c-0.082,0.102-0.211,0.26-0.381,0.471c-0.527,0.721-1.059,1.084-1.598,1.084c-0.328,0-0.594-0.098-0.793-0.291
			c-0.199-0.191-0.297-0.451-0.297-0.777c0-0.75,0.602-1.459,1.813-2.115c1.207-0.66,2.594-1.129,4.154-1.129
			c1.953,0,3.398,0.604,4.33,1.537c0.938,0.938,1.402,2.391,1.402,4.359c0,0.568,0,3.875,0,4.25c0,1.848-0.012,3.021,0.09,3.525
			c0.059,0.289,0.137,0.494,0.246,0.617c0.08,0.09,0.279,0.195,0.631,0.119c0.162-0.037,0.324-0.084,0.365-0.088
			c0.164-0.023,0.262,0.041,0.34,0.129c0.078,0.086,0.119,0.199,0.119,0.344c0,0.354-0.273,0.932-0.732,1.275
			c-0.473,0.357-0.949,0.447-1.422,0.447c-0.621,0-1.611-0.309-2.139-1.867c-0.014-0.047-0.051-0.168-0.109-0.227
			c-0.162-0.16-0.342,0.018-0.377,0.055c-0.695,0.65-1.48,1.232-2.254,1.551c-0.986,0.408-1.66,0.488-2.641,0.488
			c-1.564,0-2.904-0.531-3.797-1.439c-0.842-0.861-1.352-1.945-1.352-3.314c0-1.625,0.621-2.895,1.859-3.809
			c1.242-0.916,2.977-1.375,5.203-1.375c0.559,0,1.121,0.021,1.688,0.057c0.461,0.027,0.932,0.068,1.404,0.111
			C133.213,61.109,133.424,61.02,133.447,60.75z M133.15,62.43c-0.455-0.074-0.879-0.121-1.273-0.156
			c-0.469-0.039-0.904-0.061-1.307-0.061c-1.604,0-2.82,0.318-3.65,0.945c-0.828,0.629-1.244,1.541-1.244,2.74
			c0,0.996,0.365,1.859,0.91,2.457c0.609,0.668,1.432,0.965,2.467,0.965c1.32,0,2.373-0.488,3.191-1.277
			c0.818-0.785,1.178-1.971,1.178-3.27v-2.051C133.422,62.723,133.436,62.477,133.15,62.43z"/>
		<path fill="#040000" d="M151.283,52.174c0-0.865-0.012-1.516-0.107-1.869c-0.096-0.355-0.322-0.529-0.543-0.602
			c-0.1-0.027-0.279-0.059-0.533-0.09c-0.602-0.063-0.9-0.277-0.9-0.654c0-0.213,0.096-0.4,0.283-0.566
			c0.188-0.158,0.502-0.318,0.938-0.471c0.578-0.213,1.117-0.383,1.621-0.5c0.502-0.125,0.887-0.186,1.15-0.186
			c0.283,0,0.432,0.063,0.535,0.221c0.107,0.16,0.098,0.471,0.098,0.908v17.701c0,0.963,0.055,1.896,0.223,2.117
			c0.184,0.242,0.389,0.236,0.928,0.314c0.537,0.076,0.688,0.291,0.688,0.646c0,0.354-0.309,0.73-1.168,1.129
			c-0.859,0.395-1.672,0.594-2.445,0.594c-0.285,0-0.48-0.08-0.592-0.238c-0.111-0.156-0.17-0.455-0.17-0.891v-0.504
			c0-0.162-0.012-0.271-0.031-0.338c-0.02-0.057-0.055-0.088-0.115-0.096c-0.193-0.033-0.559,0.32-0.967,0.615
			c-0.686,0.49-1.355,0.889-2.074,1.123c-0.705,0.229-1.24,0.328-2.053,0.328c-2.029,0-3.689-0.916-4.982-2.35
			c-1.289-1.434-1.934-3.307-1.934-5.617c0-2.42,0.729-4.432,2.188-6.045c1.457-1.607,3.262-2.504,5.414-2.504
			c1.361,0,2.656,0.426,3.887,1.098c0.184,0.102,0.268,0.121,0.307,0.129c0.117,0.031,0.252,0.035,0.314-0.119
			c0.051-0.127,0.043-0.756,0.043-0.756V52.174z M151.281,60.064c0-1.33-0.354-2.342-1.053-3.039
			c-0.703-0.697-1.727-1.074-3.07-1.074c-1.547,0-2.803,0.646-3.758,1.881c-0.955,1.236-1.436,2.859-1.436,4.883
			c0,1.859,0.443,3.355,1.326,4.488c0.889,1.133,2.051,1.766,3.482,1.766c1.721,0,2.928-0.951,3.535-1.547
			c0.631-0.617,0.973-1.605,0.973-2.434v-0.643V60.064z"/>
		<path fill="#040000" d="M91.178,56.5c-1.297-1.43-3.213-2.148-5.271-2.148c-0.975,0-1.848,0.17-2.613,0.508
			c-0.428,0.191-0.83,0.439-1.203,0.725c-0.197,0.152-0.365,0.289-0.574,0.488c-0.182,0.174-0.254,0.314-0.395,0.275
			c-0.004,0-0.139-0.014-0.139-0.23c0-1.156,0-7.662,0-7.752c0-0.447-0.035-0.748-0.145-0.896c-0.105-0.154-0.313-0.232-0.617-0.232
			c-0.225,0-0.596,0.064-1.127,0.191c-0.527,0.125-1.055,0.291-1.583,0.494c-0.405,0.174-0.702,0.342-0.884,0.504
			c-0.183,0.164-0.275,0.34-0.275,0.533c0,0.354,0.269,0.566,0.802,0.641c0.533,0.07,0.812,0.219,0.95,0.334
			c0.221,0.184,0.336,0.525,0.336,2.133v14.658c-0.013,0.447-0.04,0.818-0.091,1.094c-0.124,0.65-0.453,0.879-0.934,1.15
			c-0.202,0.117-0.256,0.422-0.02,0.613c0.27,0.217,0.604,0.313,1.027,0.309c0.205-0.004,0.431-0.043,0.68-0.131
			c0.209-0.07,0.434-0.184,0.691-0.314c0.152-0.08,0.248-0.02,0.299,0.016c0.646,0.453,1.32,0.799,2.02,1.031
			c0.754,0.248,1.547,0.375,2.391,0.375c1.051,0,2.258-0.176,3.164-0.52c0.91-0.348,1.723-0.85,2.432-1.508
			c0.975-0.906,1.725-1.938,2.248-3.092c0.521-1.158,0.783-2.379,0.783-3.658C93.129,59.795,92.479,57.932,91.178,56.5z
			 M88.896,67.572c-0.949,1.262-2.416,1.891-3.953,1.891c-0.922,0-1.746-0.244-2.469-0.729c-0.719-0.49-1.166-1.09-1.338-1.801
			c-0.072-0.262-0.092-0.828-0.133-1.695c-0.041-0.871-0.021-1.969-0.021-3.301c0-1.381-0.012-2.303,0.055-2.762
			c0.066-0.465,0.213-0.832,0.363-1.092c0.385-0.68,0.934-1.18,1.625-1.561c0.689-0.381,1.43-0.572,2.225-0.572
			c1.432,0,2.826,0.609,3.717,1.828c0.896,1.219,1.344,2.822,1.344,4.811C90.311,64.656,89.838,66.316,88.896,67.572z"/>
		<path fill="#040000" d="M76.701,69.225c-0.104,0.014-0.279,0.061-0.405,0.072c-0.592,0.055-1.279-0.055-2.172-0.631
			c-0.746-0.482-1.497-1.029-1.772-1.232c-0.072-0.053-0.043-0.172-0.012-0.213c0.314-0.432,0.567-0.895,0.752-1.34
			c0.203-0.492,0.384-1.131,0.451-1.99c0,0,0.035-0.881,0.512-1.094c0.251-0.111,0.348-0.219,0.374-0.383
			c0.02-0.133-0.02-0.199-0.063-0.234c-0.043-0.043-0.135-0.08-0.282-0.08c-0.148,0-3.2,0-3.441,0c-0.19,0-0.335-0.006-0.437,0.057
			c-0.101,0.057-0.155,0.172-0.155,0.285c0,0.199,0.243,0.328,0.729,0.385c0.244,0.033,0.436,0.066,0.58,0.098
			c0.344,0.072,0.588,0.248,0.744,0.521c0.153,0.275,0.227,0.729,0.229,1.131c0.005,0.488-0.113,0.957-0.195,1.201
			c-0.125,0.375-0.232,0.604-0.406,0.838c-0.133,0.182-0.26,0.127-0.301,0.092c-2.137-1.793-3.86-3.322-5.093-4.836
			c-1.256-1.541-1.885-2.822-1.885-3.846c0-0.355,0.145-0.66,0.43-0.92c0.284-0.26,0.625-0.391,1.017-0.391
			c0.592,0,1.161,0.205,1.713,0.605c0.551,0.406,0.985,0.941,1.3,1.609c0.11,0.252,0.205,0.539,0.283,0.865
			c0.074,0.297,0.19,0.445,0.355,0.445c0.11,0,0.193-0.029,0.245-0.078c0.054-0.057,0.079-0.135,0.079-0.236
			c0-0.063,0-3.164,0-3.248c0-0.064,0.005-0.16-0.041-0.217c-0.047-0.055-0.155-0.078-0.225-0.059
			c-0.049,0.02-0.082,0.07-0.235,0.133c-0.146,0.057-0.327,0.094-0.431,0.094c-0.269-0.004-0.692-0.09-1.346-0.326
			s-1.264-0.352-1.835-0.352c-0.923,0-1.692,0.299-2.307,0.908c-0.613,0.605-0.917,1.371-0.917,2.297c0,0.32,0.048,0.75,0.128,1.053
			c0.053,0.197,0.137,0.412,0.246,0.688c0.055,0.135-0.022,0.209-0.073,0.229c-0.875,0.359-1.688,0.922-2.235,1.715
			c-0.575,0.836-0.789,1.766-0.789,2.762c0,1.422,0.587,2.594,1.714,3.518c1.124,0.92,2.576,1.396,4.352,1.396
			c0.877,0,1.742-0.137,2.594-0.406c0.775-0.25,1.469-0.605,2.086-1.039c0.019-0.012,0.064-0.047,0.104-0.051
			c0.042-0.002,0.075,0.031,0.093,0.041c0.577,0.393,1.17,0.748,1.742,1.035c0.059,0.033,0.118,0.061,0.171,0.086
			c0.406,0.186,0.905,0.291,1.265,0.318c0.856,0.07,1.594-0.1,2.159-0.332c0.457-0.186,0.828-0.469,0.828-0.758
			C76.921,69.217,76.766,69.215,76.701,69.225z M68.862,69.055c-0.409,0.129-0.856,0.195-1.349,0.195
			c-0.684,0-1.365-0.156-2.046-0.471s-1.342-0.775-1.979-1.389c-0.576-0.551-1.028-1.145-1.352-1.789
			c-0.326-0.643-0.487-1.254-0.487-1.83c0-0.553,0.159-1.029,0.481-1.432c0.221-0.279,0.525-0.5,0.764-0.559
			c0.232-0.061,0.382,0.016,0.501,0.135c0.14,0.146,0.315,0.41,0.536,0.729c0.401,0.586,0.78,1.057,1.12,1.473
			c0.446,0.52,0.952,1.039,1.517,1.566c0.072,0.066,1.517,1.438,3.274,2.734c0.015,0.012,0.05,0.047,0.047,0.082
			c-0.004,0.035-0.045,0.07-0.049,0.076C69.524,68.785,69.198,68.945,68.862,69.055z"/>
		<path fill="#040000" d="M41.994,68.969c-0.472-0.146-0.66-0.273-0.822-0.512c-0.105-0.15-0.251-0.439-0.251-1.219
			c0,0,0-18.725,0-18.783c0-0.436-0.027-0.811-0.145-0.967c-0.117-0.158-0.265-0.252-0.571-0.252c-0.233,0-0.61,0.064-1.135,0.191
			c-0.521,0.125-1.053,0.291-1.59,0.494c-0.398,0.174-0.686,0.342-0.869,0.504c-0.182,0.164-0.274,0.34-0.274,0.533
			c0,0.354,0.274,0.568,0.822,0.646c0.547,0.078,0.76,0.195,0.895,0.328c0.264,0.262,0.29,0.461,0.29,2.137v14.605
			c0,1.166,0.012,1.516-0.118,1.75c-0.112,0.199-0.481,0.396-0.954,0.543c-0.473,0.148-0.709,0.354-0.709,0.617
			c0,0.324,0.243,0.561,0.733,0.709c0.486,0.146,1.35,0.221,2.438,0.221c1.076,0,1.765-0.074,2.246-0.221
			c0.484-0.148,0.725-0.385,0.725-0.709C42.704,69.322,42.467,69.117,41.994,68.969z"/>
		<g>
			<path fill="#040000" d="M31.732,50.836c0.468,0,0.86-0.17,1.174-0.508c0.314-0.34,0.465-0.744,0.453-1.219
				c-0.015-0.465-0.176-0.846-0.485-1.141c-0.31-0.297-0.701-0.445-1.181-0.445c-0.477,0-0.873,0.174-1.188,0.516
				c-0.315,0.344-0.464,0.768-0.45,1.273c0.014,0.436,0.181,0.797,0.505,1.084C30.884,50.691,31.275,50.836,31.732,50.836z"/>
			<path fill="#040000" d="M34.129,68.969c-0.474-0.146-0.662-0.273-0.825-0.512c-0.103-0.15-0.251-0.439-0.251-1.219
				c0,0,0-11.611,0-11.666c0-0.439-0.025-0.814-0.144-0.975c-0.118-0.154-0.266-0.246-0.571-0.246c-0.232,0-0.61,0.063-1.135,0.191
				c-0.523,0.127-1.054,0.293-1.59,0.492c-0.398,0.176-0.686,0.344-0.869,0.508c-0.182,0.16-0.273,0.338-0.273,0.531
				c0,0.355,0.273,0.57,0.821,0.646c0.548,0.076,0.76,0.191,0.894,0.326c0.264,0.262,0.291,0.461,0.291,2.141v7.488
				c0,1.166,0.012,1.516-0.118,1.75c-0.113,0.199-0.482,0.396-0.955,0.543c-0.471,0.148-0.706,0.354-0.706,0.617
				c0,0.324,0.242,0.561,0.729,0.709c0.489,0.146,1.355,0.221,2.441,0.221c1.075,0,1.764-0.074,2.247-0.221
				c0.48-0.148,0.723-0.385,0.723-0.709C34.836,69.322,34.6,69.117,34.129,68.969z"/>
		</g>
	</g>
	<path fill="#040000" d="M86.143,27.886L86.143,27.886c-1.082-7.08-1.355-9.425-1.383-9.663c0-0.002,0-0.009,0-0.009
		c-0.002-0.008-0.002-0.011-0.002-0.011l0,0c-0.008-0.069-0.008-0.141-0.008-0.213c0-0.882,0.518-1.636,1.262-1.992v-0.002
		c0,0,0.361-0.212,2.455-0.787c0.301-0.083,0.578-0.196,0.738-0.258l0,0c0.934-0.387,1.59-1.306,1.59-2.377
		c0-1.349-1.039-2.454-2.357-2.564l-0.002-0.001c-4.01-0.352-4.719-0.547-4.719-0.547l0.002-0.001
		c-1.025-0.187-1.805-1.087-1.805-2.167c0-0.221,0.037-0.434,0.096-0.636h-0.002c0.193-0.694,0.213-0.825,0.252-1.129
		c0.035-0.296,0.043-0.704,0.043-0.704v0.001c0-0.02,0-0.038,0-0.061c0-2.133-1.73-3.859-3.863-3.859
		c-2.13,0-3.861,1.726-3.861,3.859c0,0.023,0,0.041,0,0.061V4.824c0,0,0.006,0.408,0.045,0.704c0.037,0.304,0.055,0.435,0.248,1.129
		l0,0c0.061,0.203,0.093,0.415,0.093,0.636c0,1.08-0.776,1.98-1.803,2.167l0.001,0.001c0,0-0.707,0.195-4.716,0.547h-0.002v0.001
		c-1.322,0.11-2.359,1.215-2.359,2.564c0,1.071,0.658,1.991,1.59,2.377l0,0c0.161,0.062,0.437,0.174,0.742,0.258
		c2.09,0.574,2.45,0.787,2.45,0.787v0.002c0.747,0.356,1.265,1.11,1.265,1.992c0,0.073-0.005,0.144-0.01,0.213l0,0
		c0,0,0,0.003,0,0.009c-0.002,0.001-0.002,0.008-0.002,0.01c-0.026,0.238-0.3,2.583-1.381,9.663l0,0
		c-0.003,0.024-0.059,0.414-0.075,0.573c-0.028,0.291-0.032,0.48-0.032,0.512c-0.028,1.245,0.789,2.392,2.043,2.727
		c1.424,0.382,2.884-0.424,3.337-1.809l0,0l1.394-3.857l0,0c0.153-0.426,0.56-0.729,1.035-0.729c0.477,0,0.881,0.303,1.035,0.729
		h0.002l1.396,3.857c0.445,1.385,1.91,2.19,3.332,1.809c1.252-0.335,2.068-1.478,2.043-2.719l0.004,0.001
		c0,0-0.004-0.197-0.033-0.521C86.201,28.3,86.145,27.911,86.143,27.886z"/>
	<g>
		<g>
			<g>
				<path fill="#040000" d="M60.344,79.102v2.094H64.5c0.295,0,0.513,0.094,0.513,0.48c0,0.32-0.216,0.48-0.47,0.48h-4.199v3.348
					h4.643c0.367,0,0.574,0.094,0.574,0.479c0,0.318-0.208,0.479-0.526,0.479h-4.69v3.244c0,0.52-0.957,0.52-0.957,0.008v-3.252
					h-4.641c-0.355,0-0.575-0.172-0.575-0.479c0-0.287,0.209-0.479,0.575-0.479h4.641v-3.348h-3.012
					c-0.446,0.891-0.908,1.496-1.387,1.814c-0.254,0.193-0.495,0.193-0.717,0c-0.16-0.191-0.127-0.416,0.097-0.666
					c1.02-1.055,1.594-2.285,1.721-3.686c0.032-0.256,0.207-0.383,0.526-0.383c0.287,0.033,0.436,0.174,0.43,0.432
					c-0.006,0.52-0.088,0.951-0.286,1.527h2.628v-2.094c0-0.258,0.158-0.432,0.479-0.432C60.163,78.67,60.344,78.822,60.344,79.102z
					"/>
				<path fill="#040000" d="M69.102,80.717h1.005c0.668,0.035,0.985,0.375,0.94,1.045c-0.131,1.861-0.631,4.182-1.226,5.467
					c-0.206,0.434-0.819,1.758-2.394,2.533c-0.319,0.156-0.543,0.125-0.669-0.096c-0.16-0.26-0.096-0.479,0.191-0.672
					c0.796-0.412,1.389-0.957,1.77-1.627c-0.035-0.031-0.08-0.078-0.145-0.139c-0.956-1.025-1.347-1.574-1.34-1.869
					c0.004-0.096,0.072-0.58,0.766-3.732h-0.905c-0.259,0-0.433-0.148-0.433-0.432c0-0.287,0.174-0.443,0.433-0.479h1.098
					c0.094-0.635,0.149-1.162,0.189-1.576c0.04-0.398,0.239-0.502,0.524-0.471c0.26,0.025,0.361,0.152,0.361,0.447
					C69.264,79.203,69.286,79.617,69.102,80.717z M69.867,81.627h-0.908c-0.287,1.311-0.493,2.25-0.62,2.822
					c-0.097,0.479-0.145,0.768-0.145,0.863c0,0.16,0.893,1.209,0.956,1.244c0.415-1.148,0.75-2.65,1.006-4.5
					C70.186,81.77,70.092,81.627,69.867,81.627z M70.633,79.189h4.879c0.732,0,1.083,0.303,1.05,0.908l-0.19,2.582
					c-0.029,0.344,0.027,0.383,0.336,0.383h0.569c0.538,0,0.816,0.379,0.816,0.988v2.125c0,1.66-0.498,2.48-1.096,2.953
					c-0.761,0.602-2.484,0.902-4.115,0.582c-0.367-0.072-0.572-0.313-0.433-0.668c0.103-0.252,0.271-0.352,0.621-0.287
					c1.851,0.383,2.949-0.027,3.351-0.428c0.297-0.299,0.683-0.813,0.716-2.152v-1.914c0-0.203-0.145-0.291-0.336-0.291h-0.649
					c-0.543,0-0.837-0.25-0.783-0.861l0.191-2.58c0.024-0.322-0.127-0.432-0.382-0.432h-1.962c0.028,2.777-0.318,4.77-0.671,5.984
					c-0.311,1.158-0.784,2.322-1.654,3.439c-0.113,0.145-0.513,0.764-1.01,0.514c-0.287-0.141-0.299-0.422-0.088-0.703
					c0.111-0.141,0.218-0.266,0.352-0.42c1.521-1.771,2.197-5.092,2.162-8.814h-1.674c-0.287,0-0.43-0.145-0.43-0.43
					C70.203,79.379,70.346,79.219,70.633,79.189z"/>
				<g>
					<path fill="#040000" d="M94.025,80.773h6.488c0.252,0,0.391,0.146,0.391,0.428v1.883c0,1.912-0.289,2.715-0.691,3.025
						c-0.279,0.215-0.664,0.375-1.635,0.354c-0.287-0.008-0.52,0.086-0.572,0.383c-0.047,0.244,0.027,0.494,0.334,0.525
						c1.254,0.123,2.057-0.102,2.564-0.512c0.637-0.51,1.004-1.387,1.004-3.68v-2.018c0.031-0.83-0.291-1.283-0.953-1.283h-6.49
						c0,0,0.199-0.416,0.223-0.672c0.021-0.254-0.084-0.465-0.383-0.523c-0.314-0.066-0.527,0.08-0.621,0.334
						c-0.414,1.275-1.199,2.393-2.346,3.35c-0.254,0.223-0.27,0.461-0.047,0.717c0.254,0.225,0.492,0.201,0.766,0
						C92.734,82.578,93.672,81.512,94.025,80.773z"/>
					<path fill="#040000" d="M102.541,87.654c-0.262-0.186-0.566-0.043-0.734,0.191c-0.725,1.021-1.82,1.086-3.117,1.086h-4.242
						c-0.533,0-0.67-0.127-0.67-0.619v-2.551h4.076c0.77,0,1.184-0.211,1.184-0.906v-1.918c0-0.633-0.297-0.811-1.146-0.811h-4.393
						c0,0-0.676,0.033-0.676,0.928v5.412c0,0.994,0.285,1.389,1.385,1.389h4.863c0.99,0,2.818-0.232,3.51-1.443
						C102.721,88.16,102.787,87.836,102.541,87.654z M93.777,83.465c0-0.252,0.113-0.43,0.385-0.43h3.539
						c0.254,0,0.381,0.113,0.381,0.336v1.006c0,0.352-0.09,0.479-0.381,0.479h-3.924V83.465z"/>
				</g>
			</g>
			<path fill="#040000" d="M89.953,79.441H79.906c-0.391,0-0.527,0.184-0.527,0.479c0,0.289,0.209,0.432,0.527,0.432h4.416
				c-0.129,0.352-0.336,0.795-0.623,1.275h-2.787c-0.734,0-1.053,0.238-1.053,0.908v6.508c0,0.596,0.26,0.813,1.1,0.813h7.967
				c0.676,0,1.004-0.232,1.004-0.766v-6.51c0-0.621-0.313-0.953-1.004-0.953h-4.125c0.221-0.48,0.395-0.924,0.521-1.275h4.631
				c0.283,0,0.455-0.145,0.455-0.432C90.408,79.637,90.236,79.475,89.953,79.441z M83.26,84.971h3.273V86.5H83.26V84.971z
				 M82.305,88.932h-1.152c-0.225,0-0.334-0.092-0.334-0.379v-5.637c0-0.244,0.066-0.381,0.334-0.381h1.152V88.932z M83.26,88.932
				v-1.525h3.273v1.525H83.26z M87.49,82.535h1.193c0.197,0,0.287,0.09,0.287,0.383v5.641c0,0.367-0.082,0.373-0.287,0.373H87.49
				V82.535z M86.533,82.535v1.525H83.26v-1.525H86.533z"/>
		</g>
	</g>
</g>
</svg>
