<?xml version="1.0" encoding="utf-8"?>
<!-- Generator: Adobe Illustrator 16.0.0, SVG Export Plug-In . SVG Version: 6.00 Build 0)  -->
<!DOCTYPE svg PUBLIC "-//W3C//DTD SVG 1.1//EN" "http://www.w3.org/Graphics/SVG/1.1/DTD/svg11.dtd">
<svg version="1.1" id="图层_1" xmlns="http://www.w3.org/2000/svg" xmlns:xlink="http://www.w3.org/1999/xlink" x="0px" y="0px"
	 width="172.918px" height="158.738px" viewBox="0 0 172.918 158.738" enable-background="new 0 0 172.918 158.738"
	 xml:space="preserve">
<g>
	<defs>
		<rect id="SVGID_1_" width="172.918" height="158.738"/>
	</defs>
	<clipPath id="SVGID_2_">
		<use xlink:href="#SVGID_1_"  overflow="visible"/>
	</clipPath>
	<path clip-path="url(#SVGID_2_)" fill="#FFFFFF" d="M19.197,95.745c0,0.389,0.218,0.368,0.303,0.299
		c0.094-0.079,0.179-0.19,0.301-0.356c0.103-0.14,0.201-0.254,0.247-0.319c0.512-0.633,1.057-1.104,1.633-1.416
		c0.577-0.313,1.205-0.468,1.883-0.468c0.689,0,1.315,0.138,1.883,0.41c0.568,0.275,1.056,0.674,1.467,1.194
		c0.166,0.214,0.328,0.481,0.487,0.802c0.159,0.321,0.279,0.472,0.363,0.481c0.177,0.022,0.258-0.043,0.586-0.543
		c0.151-0.231,0.28-0.424,0.39-0.572c0.484-0.615,1.012-1.063,1.584-1.348c0.572-0.283,1.234-0.425,1.989-0.425
		c1.003,0,1.881,0.235,2.63,0.705c0.748,0.47,1.28,1.122,1.596,1.96c0.196,0.503,0.372,1.083,0.455,1.743
		c0.084,0.66,0.147,1.601,0.147,2.819v2.469v2.09c0,0.855,0.117,1.113,0.306,1.301c0.12,0.119,0.273,0.191,0.739,0.32
		c0.395,0.109,0.585,0.304,0.585,0.544c0,0.299-0.22,0.516-0.662,0.65c-0.442,0.133-1.155,0.202-2.142,0.202
		c-0.985,0-1.699-0.069-2.141-0.202c-0.441-0.135-0.663-0.352-0.663-0.65c0-0.24,0.217-0.43,0.65-0.564
		c0.431-0.135,0.701-0.293,0.814-0.467c0.114-0.17,0.183-0.541,0.183-1.351v-4.732c0-1.799-0.149-3.017-0.587-3.775
		c-0.437-0.757-1.148-1.137-2.135-1.137c-0.687,0-1.381,0.229-2.077,0.684c-0.698,0.456-1.297,1.029-1.619,1.745
		c-0.099,0.219-0.21,0.694-0.21,1.245v6.282c0,0.56,0.071,0.854,0.159,1.009c0.167,0.292,0.46,0.398,0.861,0.518
		c0.399,0.121,0.599,0.304,0.599,0.544c0,0.299-0.22,0.516-0.656,0.65c-0.436,0.133-1.144,0.202-2.12,0.202
		c-0.967,0-1.667-0.069-2.101-0.202c-0.432-0.135-0.648-0.352-0.648-0.65c0-0.24,0.216-0.43,0.648-0.564
		c0.434-0.135,0.72-0.297,0.845-0.552c0.077-0.156,0.085-0.624,0.085-1.056v-4.938c0-1.758-0.082-3.021-0.523-3.78
		c-0.443-0.757-1.161-1.137-2.158-1.137c-0.679,0-1.373,0.232-2.085,0.699c-0.712,0.465-1.319,1.049-1.667,1.757
		c-0.095,0.19-0.171,0.442-0.189,0.74c-0.019,0.309-0.035,0.821-0.035,1.548v4.777c0,0.892,0.09,1.275,0.179,1.438
		c0.134,0.246,0.4,0.368,0.833,0.503s0.649,0.324,0.649,0.564c0,0.299-0.221,0.516-0.663,0.65c-0.441,0.133-1.156,0.202-2.142,0.202
		c-0.995,0-1.752-0.069-2.198-0.202c-0.448-0.135-0.668-0.352-0.668-0.65c0-0.24,0.213-0.43,0.646-0.564s0.738-0.292,0.854-0.467
		c0.138-0.217,0.181-0.603,0.181-1.528v-7.444c0-0.811-0.116-1.259-0.317-1.454c-0.109-0.106-0.224-0.182-0.756-0.314
		c-0.389-0.098-0.608-0.249-0.608-0.574c0-0.336,0.219-0.586,1.005-0.953c0.786-0.368,1.398-0.571,2.179-0.646
		c0.251-0.022,0.468,0.083,0.588,0.218c0.133,0.148,0.238,0.429,0.238,0.838V95.745z"/>
	<path clip-path="url(#SVGID_2_)" fill="#FFFFFF" d="M58.754,105.287c0,0.714,0.134,0.978,0.229,1.117
		c0.148,0.216,0.321,0.332,0.754,0.468c0.433,0.134,0.649,0.323,0.649,0.563c0,0.298-0.221,0.516-0.663,0.65
		c-0.442,0.134-1.073,0.202-2.059,0.202c-0.995,0-1.787-0.068-2.233-0.202c-0.447-0.135-0.67-0.353-0.67-0.65
		c0-0.24,0.217-0.43,0.649-0.563c0.431-0.136,0.771-0.316,0.873-0.499c0.121-0.215,0.108-0.534,0.108-1.602V91.395
		c0-1.536-0.024-1.718-0.264-1.958c-0.123-0.123-0.317-0.23-0.821-0.3c-0.502-0.069-0.753-0.268-0.753-0.593
		c0-0.176,0.084-0.339,0.251-0.487c0.168-0.149,0.434-0.303,0.797-0.461c0.492-0.187,0.978-0.338,1.456-0.453
		c0.48-0.116,0.827-0.175,1.039-0.175c0.28,0,0.417,0.083,0.524,0.229c0.108,0.144,0.134,0.487,0.134,0.888v11.092
		c0,0.452,0.287,0.363,0.4,0.325c0.191-0.065,0.366-0.197,0.548-0.333c0.712-0.532,2.615-2.438,2.928-2.782
		c0.35-0.384,0.467-0.631,0.44-0.809c-0.031-0.212-0.205-0.391-0.613-0.53c-0.41-0.139-0.615-0.316-0.615-0.531
		c0-0.278,0.246-0.48,0.739-0.605c0.492-0.126,1.312-0.189,2.456-0.189c0.976,0,1.683,0.059,2.122,0.175
		c0.436,0.116,0.654,0.305,0.654,0.565c0,0.353-0.23,0.479-1.102,0.697c-0.747,0.188-1.241,0.534-1.756,0.952
		c-0.85,0.691-1.816,1.567-2.57,2.335c0,0-0.896,0.905-0.998,1.139c-0.023,0.05-0.081,0.127,0.003,0.275s0.319,0.473,0.534,0.761
		c1.078,1.451,1.986,2.599,2.898,3.656c0.913,1.055,1.632,1.792,2.163,2.21c0.278,0.232,0.725,0.502,1.371,0.615
		c0.638,0.113,0.809,0.178,0.809,0.448c0,0.26-0.297,0.467-0.771,0.576c-1.667,0.384-2.859-0.036-3.127-0.15
		c-0.289-0.123-0.64-0.327-1.096-0.847c-0.242-0.271-0.881-1.062-1.779-2.271c-0.897-1.209-1.396-1.85-2.354-3.031
		c-0.327-0.399-0.571-0.648-0.706-0.774c-0.134-0.125-0.234-0.188-0.299-0.188c-0.103,0-0.174,0.053-0.217,0.161
		c-0.041,0.105-0.062,0.346-0.062,0.718V105.287z"/>
	<path clip-path="url(#SVGID_2_)" fill="#FFFFFF" d="M105.024,96.197c0.578-0.866,1.188-1.537,1.832-2.008
		c0.664-0.489,1.313-0.704,1.945-0.704c0.521,0,0.941,0.134,1.262,0.459c0.322,0.326,0.482,0.754,0.482,1.284
		c0,0.465-0.147,0.849-0.439,1.15c-0.294,0.303-0.663,0.455-1.109,0.455c-0.4,0-0.731-0.127-0.99-0.378
		c-0.224-0.215-0.327-0.398-0.445-0.817c-0.017-0.06-0.054-0.209-0.24-0.162c-0.764,0.195-1.512,0.79-1.861,1.432
		c-0.349,0.643-0.349,1.161-0.349,3.253v4.415c0,1.102,0.048,1.547,0.19,1.81c0.133,0.248,0.337,0.377,0.851,0.451
		c0.165,0.018,0.3,0.038,0.404,0.055c0.204,0.037,0.366,0.104,0.488,0.196c0.119,0.093,0.181,0.209,0.181,0.349
		c0,0.298-0.267,0.514-0.796,0.649c-0.53,0.134-1.358,0.201-2.484,0.201c-1.004,0-1.727-0.067-2.169-0.201
		c-0.44-0.136-0.661-0.352-0.661-0.649c0-0.242,0.194-0.423,0.585-0.545c0.391-0.12,0.625-0.236,0.727-0.321
		c0.294-0.252,0.354-0.582,0.354-1.313v-6.481c0-1.274-0.021-1.591-0.094-1.976c-0.056-0.293-0.233-0.608-0.401-0.755
		c-0.146-0.127-0.414-0.217-0.852-0.217c0,0-0.455,0.044-0.662-0.168c-0.113-0.113-0.175-0.245-0.175-0.403
		c0-0.178,0.07-0.337,0.21-0.481c0.138-0.145,0.396-0.334,0.766-0.51c0.476-0.252,0.931-0.425,1.368-0.579
		c0.438-0.153,0.668-0.202,0.844-0.202c0.252,0,0.525,0.174,0.664,0.579s0.254,1.118,0.349,2.141c0,0,0.011,0.103,0.112,0.085
		C104.954,96.28,105.017,96.209,105.024,96.197"/>
	<path clip-path="url(#SVGID_2_)" fill="#FFFFFF" d="M123.371,100.432h-8.802c-0.188,0-0.314,0.037-0.385,0.111
		c-0.071,0.075-0.104,0.219-0.104,0.433c0,1.739,0.459,3.221,1.381,4.332c0.921,1.111,2.097,1.563,3.529,1.563
		c1.656,0,2.948-0.784,4.001-1.865c0.415-0.427,0.619-0.654,0.883-0.715c0.18-0.042,0.386,0.041,0.489,0.139
		c0.102,0.098,0.151,0.221,0.151,0.369c0,0.205-0.062,0.432-0.188,0.677c-0.126,0.246-0.305,0.5-0.538,0.761
		c-0.697,0.771-1.504,1.359-2.419,1.765c-0.917,0.406-1.901,0.608-2.952,0.608c-1.99,0-3.639-0.691-4.945-2.073
		c-1.308-1.381-1.961-3.179-1.961-5.281c0-2.23,0.686-4.08,2.051-5.546c1.367-1.465,3.085-2.225,5.148-2.225
		c1.787,0,3.205,0.529,4.256,1.533c1.05,1.007,1.577,2.365,1.577,4.074c0,0.56-0.062,0.922-0.181,1.09
		C124.241,100.347,123.911,100.432,123.371,100.432 M114.787,99.232h6.908c0.208,0,0.352-0.038,0.422-0.116
		c0.073-0.077,0.11-0.226,0.11-0.444c0-1.064-0.361-1.949-1.079-2.654c-0.72-0.706-1.629-1.087-2.73-1.087
		c-0.582,0-1.134,0.156-1.657,0.41c-0.525,0.256-0.987,0.619-1.388,1.093c-0.318,0.383-0.575,0.797-0.771,1.242
		c-0.195,0.446-0.293,0.834-0.293,1.161c0,0.146,0.033,0.247,0.102,0.307S114.604,99.232,114.787,99.232"/>
	<path clip-path="url(#SVGID_2_)" fill="#FFFFFF" d="M136.287,99.343c0.009-0.12,0.007-0.302,0.007-0.544
		c0-1.423-0.231-2.443-0.695-3.062c-0.464-0.619-1.219-1.055-2.264-1.055c-0.531,0-1.122,0.158-1.536,0.419
		c-0.397,0.247-0.722,0.497-1.089,0.907c-0.077,0.094-0.194,0.236-0.349,0.433c-0.482,0.66-0.971,0.989-1.464,0.989
		c-0.3,0-0.543-0.088-0.725-0.265c-0.186-0.176-0.275-0.413-0.275-0.711c0-0.688,0.553-1.335,1.66-1.939
		c1.107-0.604,2.376-1.032,3.807-1.032c1.788,0,3.111,0.553,3.968,1.409c0.855,0.855,1.283,2.187,1.283,3.99v3.893
		c0,1.692-0.013,2.769,0.079,3.229c0.054,0.265,0.127,0.452,0.227,0.564c0.074,0.084,0.257,0.179,0.578,0.109
		c0.149-0.031,0.297-0.075,0.335-0.081c0.151-0.021,0.238,0.04,0.312,0.119s0.108,0.185,0.108,0.313
		c0,0.326-0.251,0.854-0.672,1.171c-0.432,0.325-0.868,0.406-1.302,0.406c-0.568,0-1.475-0.281-1.958-1.708
		c-0.014-0.044-0.047-0.153-0.1-0.206c-0.149-0.149-0.313,0.016-0.345,0.047c-0.64,0.596-1.356,1.131-2.064,1.423
		c-0.903,0.373-1.522,0.444-2.422,0.444c-1.431,0-2.658-0.486-3.474-1.317c-0.771-0.788-1.239-1.78-1.239-3.036
		c0-1.488,0.566-2.65,1.703-3.489c1.137-0.836,2.725-1.255,4.765-1.255c0.512,0,1.028,0.018,1.546,0.051
		c0.423,0.025,0.853,0.061,1.286,0.103C136.074,99.672,136.268,99.589,136.287,99.343 M136.017,100.88
		c-0.417-0.067-0.806-0.109-1.165-0.142c-0.43-0.037-0.829-0.057-1.197-0.057c-1.469,0-2.584,0.29-3.344,0.865
		c-0.76,0.577-1.139,1.414-1.139,2.513c0,0.911,0.333,1.701,0.832,2.252c0.558,0.608,1.312,0.88,2.26,0.88
		c1.208,0,2.172-0.447,2.923-1.168c0.748-0.721,1.078-1.806,1.078-2.997v-1.877C136.265,101.15,136.278,100.924,136.017,100.88"/>
	<path clip-path="url(#SVGID_2_)" fill="#FFFFFF" d="M152.623,91.489c0-0.791-0.011-1.388-0.099-1.713
		c-0.089-0.325-0.294-0.482-0.498-0.548c-0.093-0.027-0.255-0.056-0.487-0.084c-0.551-0.056-0.824-0.255-0.824-0.6
		c0-0.196,0.087-0.367,0.26-0.516c0.172-0.149,0.458-0.293,0.857-0.433c0.529-0.195,1.025-0.349,1.484-0.46
		c0.461-0.111,0.813-0.168,1.055-0.168c0.26,0,0.395,0.058,0.491,0.201c0.099,0.146,0.091,0.431,0.091,0.831v16.212
		c0,0.882,0.046,1.736,0.199,1.939c0.169,0.223,0.358,0.217,0.851,0.285c0.493,0.071,0.63,0.27,0.63,0.594
		c0,0.326-0.282,0.671-1.069,1.033s-1.531,0.545-2.239,0.545c-0.261,0-0.44-0.072-0.543-0.219c-0.103-0.143-0.154-0.415-0.154-0.814
		v-0.461c0-0.148-0.009-0.251-0.027-0.309c-0.019-0.054-0.052-0.08-0.106-0.089c-0.179-0.032-0.512,0.291-0.887,0.562
		c-0.626,0.449-1.241,0.816-1.898,1.03c-0.645,0.209-1.136,0.3-1.879,0.3c-1.86,0-3.382-0.839-4.564-2.15
		c-1.18-1.312-1.771-3.027-1.771-5.147c0-2.214,0.668-4.058,2.004-5.532c1.334-1.475,2.986-2.295,4.958-2.295
		c1.246,0,2.433,0.39,3.559,1.005c0.167,0.093,0.247,0.11,0.283,0.12c0.105,0.027,0.23,0.03,0.289-0.11
		c0.045-0.118,0.037-0.694,0.037-0.694V91.489z M152.622,98.715c0-1.218-0.323-2.146-0.966-2.783
		c-0.645-0.637-1.582-0.983-2.812-0.983c-1.418,0-2.565,0.593-3.441,1.724c-0.876,1.129-1.314,2.62-1.314,4.471
		c0,1.702,0.405,3.072,1.215,4.109c0.814,1.038,1.877,1.618,3.191,1.618c1.572,0,2.679-0.871,3.235-1.416
		c0.578-0.564,0.892-1.469,0.892-2.229v-0.59V98.715z"/>
	<path clip-path="url(#SVGID_2_)" fill="#FFFFFF" d="M97.577,95.451c-1.19-1.31-2.942-1.967-4.83-1.967
		c-0.893,0-1.69,0.156-2.394,0.468c-0.393,0.173-0.759,0.399-1.1,0.66c-0.182,0.139-0.336,0.266-0.525,0.448
		c-0.167,0.157-0.233,0.287-0.362,0.254c-0.005-0.001-0.127-0.016-0.127-0.212V88c0-0.409-0.033-0.684-0.132-0.822
		c-0.098-0.141-0.285-0.211-0.564-0.211c-0.205,0-0.549,0.06-1.033,0.176c-0.483,0.115-0.967,0.267-1.451,0.452
		c-0.371,0.159-0.641,0.313-0.809,0.462c-0.167,0.147-0.252,0.311-0.252,0.487c0,0.325,0.246,0.521,0.734,0.587
		c0.488,0.065,0.743,0.199,0.872,0.307c0.2,0.168,0.307,0.48,0.307,1.955v13.423c-0.012,0.41-0.037,0.749-0.084,1.002
		c-0.113,0.596-0.416,0.804-0.855,1.053c-0.185,0.106-0.234,0.387-0.018,0.562c0.248,0.199,0.552,0.287,0.942,0.283
		c0.187-0.003,0.393-0.04,0.623-0.118c0.189-0.066,0.396-0.172,0.632-0.291c0.14-0.072,0.228-0.017,0.271,0.015
		c0.594,0.418,1.211,0.732,1.852,0.945c0.688,0.228,1.418,0.342,2.19,0.342c0.959,0,2.066-0.158,2.898-0.475
		s1.575-0.776,2.225-1.381c0.895-0.828,1.58-1.772,2.06-2.833c0.478-1.06,0.717-2.177,0.717-3.347
		C99.362,98.469,98.769,96.763,97.577,95.451 M95.485,105.593c-0.866,1.154-2.213,1.731-3.618,1.731c-0.845,0-1.6-0.224-2.26-0.67
		c-0.66-0.447-1.069-0.995-1.228-1.647c-0.065-0.24-0.084-0.76-0.122-1.555c-0.037-0.796-0.019-1.802-0.019-3.021
		c0-1.266-0.01-2.109,0.051-2.532c0.059-0.423,0.194-0.759,0.33-0.998c0.352-0.623,0.857-1.081,1.49-1.43
		c0.632-0.35,1.31-0.523,2.038-0.523c1.311,0,2.587,0.558,3.404,1.674c0.819,1.117,1.229,2.586,1.229,4.408
		C96.781,102.92,96.348,104.441,95.485,105.593"/>
	<path clip-path="url(#SVGID_2_)" fill="#FFFFFF" d="M84.318,107.103c-0.096,0.013-0.257,0.057-0.371,0.068
		c-0.542,0.051-1.172-0.051-1.989-0.578c-0.684-0.442-1.372-0.942-1.625-1.128c-0.064-0.048-0.039-0.156-0.01-0.197
		c0.288-0.392,0.519-0.818,0.69-1.226c0.185-0.45,0.351-1.036,0.413-1.824c0,0,0.032-0.807,0.468-1
		c0.231-0.103,0.319-0.202,0.343-0.352c0.018-0.121-0.02-0.18-0.058-0.216c-0.039-0.036-0.125-0.072-0.257-0.072H78.77
		c-0.175,0-0.307-0.004-0.4,0.052c-0.093,0.053-0.142,0.162-0.142,0.265c0,0.179,0.222,0.297,0.668,0.351
		c0.222,0.029,0.399,0.06,0.531,0.09c0.313,0.066,0.538,0.226,0.68,0.478c0.141,0.252,0.208,0.668,0.211,1.035
		c0.005,0.447-0.104,0.878-0.18,1.102c-0.115,0.344-0.212,0.55-0.371,0.766c-0.122,0.168-0.238,0.115-0.276,0.084
		c-1.956-1.641-3.535-3.043-4.664-4.429c-1.15-1.411-1.726-2.586-1.726-3.522c0-0.324,0.131-0.605,0.392-0.842
		c0.261-0.237,0.573-0.357,0.932-0.357c0.542,0,1.063,0.187,1.569,0.556c0.504,0.369,0.902,0.859,1.189,1.473
		c0.101,0.229,0.189,0.493,0.262,0.793c0.065,0.271,0.173,0.406,0.323,0.406c0.103,0,0.179-0.024,0.225-0.072
		c0.05-0.049,0.072-0.12,0.072-0.217v-2.975c0-0.06,0.005-0.145-0.038-0.195c-0.042-0.053-0.14-0.075-0.204-0.055
		c-0.045,0.017-0.075,0.063-0.215,0.121c-0.134,0.053-0.299,0.085-0.395,0.085c-0.246-0.002-0.635-0.081-1.233-0.298
		c-0.598-0.216-1.158-0.324-1.681-0.324c-0.846,0-1.55,0.278-2.113,0.833c-0.561,0.558-0.841,1.257-0.841,2.104
		c0,0.294,0.044,0.686,0.119,0.966c0.048,0.179,0.124,0.373,0.224,0.628c0.051,0.123-0.021,0.19-0.066,0.208
		c-0.802,0.33-1.546,0.846-2.046,1.571c-0.528,0.765-0.723,1.615-0.723,2.529c0,1.304,0.537,2.376,1.568,3.221
		c1.03,0.844,2.36,1.279,3.987,1.279c0.803,0,1.596-0.125,2.375-0.373c0.709-0.229,1.345-0.555,1.912-0.949
		c0.016-0.012,0.058-0.043,0.093-0.045c0.039-0.002,0.07,0.025,0.085,0.036c0.529,0.358,1.073,0.687,1.596,0.947
		c0.054,0.03,0.107,0.055,0.157,0.078c0.372,0.171,0.828,0.267,1.158,0.293c0.784,0.063,1.459-0.092,1.978-0.303
		c0.417-0.172,0.758-0.432,0.758-0.696C84.52,107.098,84.377,107.095,84.318,107.103 M77.139,106.95
		c-0.374,0.119-0.784,0.181-1.236,0.181c-0.625,0-1.25-0.146-1.873-0.433c-0.625-0.289-1.229-0.712-1.813-1.271
		c-0.527-0.505-0.94-1.051-1.237-1.641c-0.298-0.589-0.446-1.147-0.446-1.676c0-0.505,0.146-0.942,0.441-1.311
		c0.202-0.256,0.481-0.458,0.7-0.514c0.212-0.054,0.35,0.015,0.458,0.125c0.129,0.135,0.289,0.375,0.491,0.667
		c0.369,0.537,0.715,0.969,1.027,1.348c0.408,0.476,0.871,0.954,1.389,1.436c0.065,0.062,1.388,1.315,2.998,2.503
		c0.015,0.013,0.046,0.045,0.044,0.076c-0.005,0.033-0.041,0.065-0.045,0.069C77.746,106.702,77.447,106.849,77.139,106.95"/>
	<path clip-path="url(#SVGID_2_)" fill="#FFFFFF" d="M52.532,106.871c-0.432-0.135-0.605-0.252-0.753-0.467
		c-0.097-0.139-0.231-0.403-0.231-1.118V88.084c0-0.4-0.025-0.744-0.133-0.888c-0.106-0.145-0.242-0.229-0.523-0.229
		c-0.212,0-0.56,0.059-1.039,0.175s-0.965,0.266-1.457,0.453c-0.364,0.159-0.628,0.312-0.795,0.461
		c-0.168,0.147-0.251,0.311-0.251,0.487c0,0.325,0.251,0.523,0.752,0.594c0.502,0.068,0.697,0.176,0.82,0.299
		c0.24,0.24,0.265,0.422,0.265,1.959v13.376c0,1.067,0.011,1.385-0.108,1.601c-0.102,0.183-0.441,0.363-0.873,0.498
		c-0.432,0.136-0.65,0.323-0.65,0.565c0,0.298,0.224,0.514,0.671,0.648c0.446,0.135,1.238,0.202,2.234,0.202
		c0.985,0,1.616-0.067,2.058-0.202s0.663-0.351,0.663-0.648C53.182,107.194,52.966,107.006,52.532,106.871"/>
	<path clip-path="url(#SVGID_2_)" fill="#FFFFFF" d="M43.134,90.263c0.428,0,0.787-0.156,1.075-0.464
		c0.288-0.311,0.426-0.684,0.414-1.118c-0.013-0.425-0.16-0.773-0.443-1.044c-0.284-0.271-0.643-0.406-1.081-0.406
		c-0.437,0-0.8,0.158-1.089,0.471c-0.289,0.315-0.426,0.704-0.413,1.168c0.014,0.397,0.166,0.729,0.463,0.993
		C42.357,90.13,42.714,90.263,43.134,90.263"/>
	<path clip-path="url(#SVGID_2_)" fill="#FFFFFF" d="M45.328,106.871c-0.434-0.135-0.605-0.252-0.755-0.467
		c-0.094-0.139-0.229-0.403-0.229-1.118V94.6c0-0.4-0.024-0.744-0.133-0.89c-0.107-0.143-0.244-0.227-0.523-0.227
		c-0.213,0-0.559,0.059-1.039,0.175c-0.479,0.116-0.966,0.268-1.457,0.452c-0.364,0.159-0.628,0.313-0.796,0.461
		c-0.167,0.149-0.251,0.313-0.251,0.489c0,0.325,0.251,0.522,0.753,0.592c0.502,0.07,0.695,0.177,0.819,0.3
		c0.24,0.24,0.266,0.421,0.266,1.959v6.86c0,1.067,0.011,1.385-0.109,1.601c-0.103,0.183-0.441,0.363-0.874,0.498
		c-0.43,0.136-0.648,0.323-0.648,0.565c0,0.298,0.223,0.514,0.669,0.648c0.447,0.135,1.24,0.202,2.236,0.202
		c0.985,0,1.614-0.067,2.057-0.202c0.441-0.135,0.663-0.351,0.663-0.648C45.977,107.194,45.76,107.006,45.328,106.871"/>
	<path clip-path="url(#SVGID_2_)" fill="#FFFFFF" d="M92.965,69.245L92.965,69.245c-0.99-6.485-1.242-8.632-1.266-8.849v-0.011
		c-0.002-0.004-0.002-0.007-0.002-0.007c-0.007-0.065-0.009-0.129-0.009-0.196c0-0.807,0.475-1.5,1.156-1.823v-0.003
		c0,0,0.331-0.193,2.248-0.721c0.276-0.075,0.531-0.178,0.677-0.236c0.855-0.354,1.456-1.196,1.456-2.178
		c0-1.235-0.952-2.247-2.159-2.348l-0.001-0.001c-3.674-0.323-4.321-0.5-4.321-0.5l0.001-0.001c-0.94-0.174-1.652-0.996-1.652-1.986
		c0-0.202,0.03-0.397,0.087-0.582h-0.002c0.178-0.637,0.195-0.756,0.231-1.035c0.031-0.269,0.036-0.644,0.036-0.644v0.001
		c0.003-0.019,0-0.036,0-0.056c0-1.952-1.582-3.535-3.535-3.535s-3.537,1.583-3.537,3.535v0.056v-0.001c0,0,0.006,0.375,0.04,0.644
		c0.034,0.279,0.052,0.398,0.228,1.035c0.055,0.185,0.085,0.38,0.085,0.582c0,0.99-0.712,1.812-1.652,1.986l0.002,0.001
		c0,0-0.646,0.177-4.32,0.5h-0.002v0.001c-1.209,0.101-2.16,1.113-2.16,2.348c0,0.982,0.601,1.824,1.456,2.178
		c0.148,0.058,0.401,0.161,0.679,0.236c1.915,0.528,2.246,0.721,2.246,0.721l-0.001,0.003c0.684,0.323,1.157,1.016,1.157,1.823
		c0,0.067-0.003,0.131-0.009,0.196v0.007c-0.002,0.003-0.002,0.007-0.002,0.011c-0.023,0.217-0.273,2.364-1.263,8.849
		c-0.003,0.023-0.055,0.381-0.07,0.526c-0.026,0.266-0.029,0.439-0.029,0.469c-0.026,1.139,0.722,2.19,1.871,2.497
		c1.304,0.349,2.641-0.389,3.057-1.658l1.275-3.533c0.141-0.389,0.513-0.665,0.949-0.665s0.806,0.276,0.948,0.665h0.001l1.277,3.533
		c0.41,1.27,1.75,2.007,3.053,1.658c1.146-0.307,1.896-1.355,1.872-2.49l0.001,0.001c0,0-0.001-0.182-0.028-0.477
		C93.019,69.626,92.967,69.268,92.965,69.245"/>
	<path clip-path="url(#SVGID_2_)" fill="#FFFFFF" d="M69.338,116.149v1.92h3.806c0.271,0,0.471,0.087,0.471,0.439
		c0,0.294-0.199,0.438-0.431,0.438h-3.846v3.065h4.252c0.337,0,0.525,0.086,0.525,0.439c0,0.293-0.19,0.438-0.481,0.438h-4.296
		v2.976c0,0.471-0.876,0.471-0.876,0.005v-2.98h-4.25c-0.325,0-0.527-0.154-0.527-0.438c0-0.265,0.192-0.439,0.527-0.439h4.25
		v-3.065h-2.758c-0.409,0.817-0.832,1.372-1.27,1.663c-0.234,0.177-0.453,0.177-0.658,0c-0.145-0.175-0.115-0.379,0.089-0.609
		c0.934-0.966,1.459-2.09,1.576-3.375c0.03-0.235,0.19-0.352,0.482-0.352c0.263,0.029,0.399,0.159,0.394,0.395
		c-0.006,0.479-0.081,0.873-0.262,1.4h2.407v-1.92c0-0.233,0.144-0.395,0.438-0.395C69.172,115.754,69.338,115.893,69.338,116.149"
		/>
	<path clip-path="url(#SVGID_2_)" fill="#FFFFFF" d="M77.359,117.631h0.92c0.613,0.032,0.902,0.343,0.861,0.957
		c-0.12,1.702-0.578,3.829-1.123,5.003c-0.189,0.401-0.75,1.611-2.191,2.322c-0.294,0.143-0.497,0.116-0.614-0.088
		c-0.147-0.236-0.088-0.438,0.174-0.614c0.731-0.378,1.273-0.877,1.622-1.49c-0.031-0.027-0.074-0.072-0.132-0.13
		c-0.875-0.935-1.234-1.438-1.227-1.709c0.005-0.089,0.066-0.533,0.702-3.418H75.52c-0.236,0-0.396-0.136-0.396-0.395
		c0-0.265,0.16-0.406,0.396-0.438h1.006c0.086-0.583,0.137-1.065,0.174-1.445c0.038-0.362,0.219-0.46,0.479-0.432
		c0.24,0.026,0.332,0.139,0.331,0.412C77.508,116.245,77.528,116.623,77.359,117.631 M78.059,118.464h-0.832
		c-0.262,1.199-0.452,2.06-0.568,2.586c-0.088,0.438-0.133,0.701-0.133,0.788c0,0.147,0.818,1.109,0.876,1.14
		c0.38-1.053,0.686-2.426,0.92-4.118C78.351,118.596,78.264,118.464,78.059,118.464 M78.76,116.229h4.469
		c0.669,0,0.992,0.278,0.963,0.834l-0.176,2.364c-0.026,0.316,0.026,0.352,0.309,0.352h0.519c0.494,0,0.749,0.35,0.749,0.904v1.947
		c0,1.519-0.456,2.272-1.003,2.704c-0.697,0.551-2.276,0.826-3.77,0.533c-0.335-0.066-0.524-0.289-0.396-0.612
		c0.094-0.229,0.25-0.32,0.57-0.261c1.694,0.35,2.7-0.027,3.068-0.394c0.273-0.272,0.627-0.747,0.656-1.971v-1.756
		c0-0.186-0.132-0.264-0.307-0.264h-0.594c-0.498,0-0.769-0.23-0.718-0.788l0.175-2.365c0.022-0.296-0.116-0.395-0.351-0.395h-1.796
		c0.026,2.542-0.292,4.369-0.615,5.479c-0.284,1.062-0.718,2.128-1.515,3.153c-0.103,0.132-0.47,0.698-0.926,0.471
		c-0.262-0.13-0.272-0.386-0.079-0.646c0.1-0.129,0.199-0.241,0.321-0.383c1.393-1.623,2.012-4.665,1.98-8.074H78.76
		c-0.262,0-0.394-0.133-0.394-0.395C78.366,116.406,78.498,116.259,78.76,116.229"/>
	<path clip-path="url(#SVGID_2_)" fill="#FFFFFF" d="M100.185,117.683h5.942c0.229,0,0.357,0.133,0.357,0.392v1.724
		c0,1.752-0.265,2.487-0.635,2.771c-0.256,0.196-0.608,0.342-1.496,0.323c-0.263-0.006-0.477,0.078-0.524,0.35
		c-0.041,0.225,0.024,0.454,0.307,0.483c1.147,0.111,1.883-0.091,2.349-0.471c0.585-0.467,0.921-1.27,0.921-3.367v-1.851
		c0.027-0.759-0.271-1.174-0.876-1.174h-5.943c0,0,0.183-0.381,0.204-0.613c0.021-0.234-0.076-0.428-0.351-0.483
		c-0.288-0.057-0.483,0.075-0.568,0.307c-0.38,1.171-1.097,2.192-2.147,3.069c-0.233,0.204-0.248,0.423-0.043,0.656
		c0.232,0.205,0.449,0.184,0.699,0C99.001,119.334,99.859,118.357,100.185,117.683"/>
	<path clip-path="url(#SVGID_2_)" fill="#FFFFFF" d="M107.981,123.984c-0.238-0.17-0.519-0.04-0.672,0.173
		c-0.661,0.935-1.666,0.997-2.854,0.997h-3.886c-0.487,0-0.613-0.114-0.613-0.57v-2.332h3.734c0.705,0,1.083-0.193,1.083-0.833
		v-1.753c0-0.582-0.272-0.744-1.052-0.744H99.7c0,0-0.619,0.029-0.619,0.851v4.957c0,0.911,0.262,1.27,1.27,1.27h4.455
		c0.904,0,2.579-0.212,3.213-1.322C108.147,124.447,108.211,124.149,107.981,123.984 M99.956,120.148
		c0-0.233,0.104-0.395,0.352-0.395h3.241c0.234,0,0.351,0.104,0.351,0.308v0.921c0,0.322-0.082,0.437-0.351,0.437h-3.593V120.148z"
		/>
	<path clip-path="url(#SVGID_2_)" fill="#FFFFFF" d="M96.455,116.462h-9.2c-0.36,0-0.482,0.166-0.482,0.438
		c0,0.266,0.189,0.396,0.482,0.396h4.041c-0.117,0.321-0.307,0.728-0.568,1.166h-2.553c-0.673,0-0.963,0.22-0.963,0.832v5.962
		c0,0.546,0.236,0.743,1.007,0.743h7.294c0.619,0,0.92-0.213,0.92-0.7v-5.961c0-0.569-0.286-0.876-0.92-0.876h-3.778
		c0.204-0.438,0.362-0.845,0.48-1.166h4.24c0.261,0,0.416-0.132,0.416-0.396C96.871,116.64,96.716,116.494,96.455,116.462
		 M90.324,121.525h2.998v1.399h-2.998V121.525z M89.45,125.154h-1.057c-0.205,0-0.306-0.086-0.306-0.348v-5.161
		c0-0.225,0.063-0.352,0.306-0.352h1.057V125.154z M90.324,123.755h2.998v1.398h-2.998V123.755z M94.199,119.293h1.093
		c0.18,0,0.263,0.084,0.263,0.354v5.166c0,0.335-0.076,0.34-0.263,0.34h-1.093V119.293z M93.322,120.693h-2.998v-1.399h2.998
		V120.693z"/>
</g>
</svg>
