<?xml version="1.0" encoding="utf-8"?>
<!-- Generator: Adobe Illustrator 16.0.0, SVG Export Plug-In . SVG Version: 6.00 Build 0)  -->
<!DOCTYPE svg PUBLIC "-//W3C//DTD SVG 1.1//EN" "http://www.w3.org/Graphics/SVG/1.1/DTD/svg11.dtd">
<svg version="1.1" id="图层_1" xmlns="http://www.w3.org/2000/svg" xmlns:xlink="http://www.w3.org/1999/xlink" x="0px" y="0px"
	 width="120px" height="69px" viewBox="0 0 120 69" enable-background="new 0 0 120 69" xml:space="preserve">
<g>
	<g>
		<path fill="#5E5958" d="M4.783,43.195c0,0.316,0.178,0.299,0.248,0.242c0.077-0.063,0.146-0.154,0.247-0.29
			c0.084-0.115,0.164-0.207,0.203-0.265c0.418-0.516,0.864-0.902,1.336-1.159c0.472-0.254,0.987-0.381,1.543-0.381
			c0.563,0,1.076,0.113,1.541,0.336c0.465,0.225,0.864,0.551,1.201,0.977c0.136,0.178,0.269,0.396,0.398,0.658
			c0.13,0.264,0.229,0.384,0.298,0.394c0.144,0.02,0.211-0.035,0.48-0.444c0.124-0.188,0.229-0.347,0.319-0.47
			c0.396-0.503,0.829-0.87,1.297-1.101c0.467-0.234,1.01-0.35,1.628-0.35c0.821,0,1.541,0.192,2.154,0.578
			c0.613,0.384,1.048,0.917,1.308,1.604c0.16,0.411,0.305,0.889,0.373,1.43c0.07,0.541,0.12,1.311,0.12,2.308v2.021
			c0,1.039,0,1.239,0,1.712c0,0.701,0.096,0.91,0.25,1.065c0.099,0.098,0.224,0.158,0.606,0.264
			c0.323,0.089,0.479,0.247,0.479,0.445c0,0.243-0.181,0.42-0.542,0.531c-0.361,0.109-0.945,0.166-1.754,0.166
			c-0.807,0-1.392-0.057-1.753-0.166c-0.362-0.111-0.543-0.288-0.543-0.531c0-0.198,0.177-0.353,0.532-0.464
			c0.354-0.109,0.575-0.24,0.667-0.383c0.092-0.138,0.15-0.441,0.15-1.105c0-0.562,0-3.875,0-3.875c0-1.474-0.123-2.471-0.48-3.091
			c-0.357-0.62-0.941-0.931-1.749-0.931c-0.563,0-1.131,0.186-1.701,0.56c-0.572,0.373-1.062,0.843-1.326,1.429
			c-0.081,0.18-0.172,0.567-0.172,1.02c0,0.585,0,4.783,0,5.146c0,0.456,0.059,0.697,0.131,0.824
			c0.137,0.241,0.376,0.326,0.706,0.426c0.327,0.099,0.49,0.247,0.49,0.445c0,0.243-0.18,0.42-0.537,0.531
			c-0.356,0.109-0.936,0.166-1.736,0.166c-0.792,0-1.365-0.057-1.721-0.166c-0.354-0.111-0.53-0.288-0.53-0.531
			c0-0.198,0.176-0.353,0.53-0.464c0.355-0.109,0.589-0.243,0.692-0.451c0.064-0.128,0.07-0.513,0.07-0.865v-4.044
			c0-1.438-0.067-2.474-0.428-3.094C9.443,43.23,8.854,42.92,8.04,42.92c-0.557,0-1.125,0.189-1.709,0.57
			c-0.583,0.384-1.08,0.86-1.364,1.438c-0.079,0.157-0.14,0.364-0.156,0.607c-0.016,0.253-0.028,0.673-0.028,1.268v3.913
			c0,0.729,0.074,1.045,0.146,1.175c0.111,0.204,0.328,0.304,0.683,0.413c0.354,0.111,0.532,0.266,0.532,0.464
			c0,0.243-0.181,0.42-0.543,0.531c-0.361,0.109-0.946,0.166-1.753,0.166c-0.816,0-1.437-0.057-1.801-0.166
			c-0.367-0.111-0.547-0.288-0.547-0.531c0-0.198,0.175-0.353,0.529-0.464c0.355-0.109,0.605-0.24,0.7-0.383
			c0.114-0.175,0.148-0.494,0.148-1.252v-6.094c0-0.663-0.095-1.032-0.26-1.191c-0.088-0.089-0.183-0.148-0.619-0.26
			c-0.318-0.079-0.499-0.201-0.499-0.47c0-0.274,0.18-0.479,0.823-0.778c0.644-0.302,1.145-0.47,1.784-0.532
			c0.206-0.017,0.384,0.07,0.482,0.181c0.109,0.122,0.194,0.352,0.194,0.685V43.195z"/>
		<path fill="#5E5958" d="M37.177,51.008c0,0.584,0.109,0.801,0.188,0.914c0.12,0.178,0.263,0.273,0.616,0.383
			c0.354,0.111,0.533,0.266,0.533,0.464c0,0.243-0.181,0.42-0.543,0.531c-0.362,0.109-0.879,0.166-1.687,0.166
			c-0.815,0-1.464-0.057-1.83-0.166c-0.366-0.111-0.548-0.288-0.548-0.531c0-0.198,0.179-0.353,0.532-0.464
			c0.354-0.109,0.631-0.257,0.714-0.407c0.099-0.176,0.088-0.438,0.088-1.313V39.631c0-1.257-0.019-1.406-0.215-1.602
			c-0.102-0.101-0.26-0.188-0.673-0.246c-0.411-0.059-0.617-0.22-0.617-0.485c0-0.146,0.069-0.277,0.206-0.399
			c0.138-0.122,0.355-0.248,0.652-0.378c0.403-0.153,0.801-0.277,1.193-0.371c0.393-0.095,0.677-0.144,0.851-0.144
			c0.23,0,0.341,0.07,0.429,0.188c0.087,0.117,0.11,0.399,0.11,0.726c0,0.068,0,9.083,0,9.083c0,0.372,0.234,0.297,0.328,0.269
			c0.157-0.055,0.299-0.162,0.448-0.273c0.583-0.436,2.141-1.996,2.398-2.277c0.285-0.316,0.382-0.517,0.36-0.663
			c-0.025-0.175-0.168-0.319-0.502-0.435c-0.335-0.114-0.504-0.258-0.504-0.435c0-0.229,0.203-0.396,0.606-0.496
			c0.404-0.104,1.075-0.155,2.012-0.155c0.798,0,1.378,0.047,1.738,0.144c0.356,0.097,0.535,0.248,0.535,0.462
			c0,0.29-0.189,0.392-0.903,0.571c-0.611,0.155-1.016,0.437-1.438,0.78c-0.696,0.565-1.487,1.284-2.104,1.912
			c0,0-0.734,0.74-0.818,0.933c-0.019,0.04-0.066,0.104,0.003,0.225c0.069,0.122,0.262,0.387,0.438,0.624
			c0.882,1.188,1.626,2.129,2.374,2.994c0.747,0.863,1.335,1.467,1.771,1.808c0.228,0.192,0.594,0.413,1.124,0.508
			c0.522,0.09,0.662,0.144,0.662,0.365c0,0.213-0.243,0.383-0.631,0.471c-1.365,0.315-2.341-0.029-2.561-0.122
			c-0.237-0.1-0.524-0.268-0.898-0.695c-0.197-0.221-0.721-0.867-1.456-1.858c-0.735-0.991-1.145-1.515-1.929-2.484
			c-0.268-0.325-0.467-0.529-0.578-0.633c-0.109-0.102-0.191-0.152-0.245-0.152c-0.083,0-0.143,0.041-0.177,0.13
			c-0.034,0.087-0.051,0.285-0.051,0.588V51.008z"/>
		<path fill="#5E5958" d="M75.068,43.563c0.474-0.708,0.973-1.257,1.501-1.643c0.545-0.402,1.074-0.578,1.593-0.578
			c0.426,0,0.771,0.109,1.033,0.376c0.264,0.268,0.396,0.619,0.396,1.052c0,0.38-0.12,0.696-0.361,0.942
			c-0.24,0.247-0.542,0.372-0.907,0.372c-0.328,0-0.6-0.104-0.813-0.31c-0.181-0.175-0.266-0.326-0.362-0.67
			c-0.016-0.046-0.045-0.171-0.198-0.132c-0.626,0.161-1.238,0.646-1.522,1.173c-0.287,0.526-0.287,0.95-0.287,2.664v3.616
			c0,0.901,0.04,1.266,0.156,1.481c0.11,0.203,0.275,0.308,0.696,0.368c0.136,0.015,0.245,0.031,0.331,0.047
			c0.167,0.03,0.301,0.085,0.399,0.16c0.099,0.076,0.147,0.169,0.147,0.285c0,0.243-0.218,0.42-0.649,0.531
			c-0.437,0.109-1.113,0.166-2.034,0.166c-0.822,0-1.416-0.057-1.776-0.166c-0.362-0.111-0.543-0.288-0.543-0.531
			c0-0.198,0.158-0.347,0.479-0.445c0.32-0.1,0.513-0.194,0.596-0.264c0.242-0.206,0.291-0.478,0.291-1.077v-5.307
			c0-1.044-0.018-1.304-0.078-1.62c-0.045-0.236-0.189-0.496-0.327-0.616c-0.119-0.105-0.34-0.177-0.698-0.177
			c0,0-0.373,0.035-0.541-0.138c-0.094-0.095-0.146-0.201-0.146-0.332c0-0.145,0.059-0.275,0.174-0.395
			c0.113-0.118,0.324-0.272,0.627-0.416c0.39-0.205,0.761-0.349,1.121-0.473c0.358-0.127,0.547-0.167,0.689-0.167
			c0.206,0,0.43,0.144,0.545,0.474c0.113,0.332,0.208,0.917,0.285,1.753c0,0,0.007,0.085,0.092,0.07
			C75.012,43.632,75.063,43.575,75.068,43.563z"/>
		<path fill="#5E5958" d="M90.092,47.031h-7.207c-0.154,0-0.257,0.032-0.315,0.093c-0.058,0.062-0.084,0.179-0.084,0.356
			c0,1.423,0.375,2.636,1.131,3.545c0.754,0.909,1.716,1.279,2.888,1.279c1.357,0,2.416-0.642,3.279-1.525
			c0.339-0.351,0.506-0.537,0.722-0.588c0.147-0.032,0.317,0.033,0.401,0.114c0.083,0.08,0.123,0.181,0.123,0.304
			c0,0.166-0.052,0.353-0.152,0.554c-0.104,0.2-0.249,0.409-0.442,0.621c-0.57,0.634-1.229,1.114-1.98,1.446
			c-0.75,0.331-1.556,0.498-2.417,0.498c-1.629,0-2.98-0.564-4.05-1.697c-1.07-1.132-1.604-2.604-1.604-4.325
			c0-1.827,0.559-3.342,1.678-4.542c1.119-1.198,2.526-1.821,4.215-1.821c1.465,0,2.624,0.435,3.485,1.257
			c0.86,0.822,1.292,1.936,1.292,3.334c0,0.459-0.049,0.756-0.147,0.894C90.805,46.963,90.535,47.031,90.092,47.031z M83.063,46.049
			h5.656c0.172,0,0.288-0.03,0.348-0.094c0.06-0.063,0.09-0.185,0.09-0.364c0-0.873-0.296-1.597-0.885-2.174
			c-0.588-0.579-1.332-0.888-2.235-0.888c-0.478,0-0.93,0.126-1.357,0.334c-0.43,0.209-0.808,0.507-1.137,0.895
			c-0.26,0.313-0.47,0.653-0.63,1.019s-0.239,0.681-0.239,0.948c0,0.121,0.025,0.203,0.083,0.253
			C82.813,46.026,82.915,46.049,83.063,46.049z"/>
		<path fill="#5E5958" d="M100.671,46.141c0.007-0.097,0.005-0.246,0.005-0.444c0-1.167-0.19-2.003-0.568-2.507
			c-0.382-0.508-0.999-0.863-1.855-0.863c-0.434,0-0.918,0.13-1.258,0.341c-0.324,0.204-0.59,0.409-0.892,0.743
			c-0.062,0.076-0.158,0.195-0.285,0.354c-0.396,0.541-0.795,0.813-1.198,0.813c-0.246,0-0.445-0.073-0.595-0.218
			c-0.15-0.144-0.224-0.338-0.224-0.583c0-0.563,0.452-1.094,1.359-1.587c0.906-0.494,1.945-0.846,3.116-0.846
			c1.465,0,2.549,0.452,3.248,1.152c0.702,0.703,1.052,1.793,1.052,3.27c0,0.426,0,2.906,0,3.188c0,1.386-0.009,2.267,0.066,2.644
			c0.044,0.217,0.104,0.371,0.186,0.464c0.06,0.067,0.209,0.146,0.473,0.089c0.122-0.027,0.243-0.063,0.273-0.066
			c0.124-0.018,0.196,0.031,0.256,0.098c0.059,0.064,0.089,0.149,0.089,0.257c0,0.266-0.205,0.699-0.55,0.957
			c-0.354,0.269-0.712,0.335-1.066,0.335c-0.466,0-1.208-0.23-1.604-1.399c-0.01-0.036-0.038-0.127-0.082-0.17
			c-0.122-0.121-0.256,0.013-0.282,0.04c-0.522,0.488-1.11,0.925-1.691,1.163c-0.739,0.307-1.245,0.366-1.98,0.366
			c-1.173,0-2.178-0.398-2.847-1.079c-0.632-0.646-1.015-1.459-1.015-2.485c0-1.22,0.466-2.172,1.395-2.857
			c0.932-0.687,2.232-1.03,3.902-1.03c0.419,0,0.841,0.016,1.266,0.042c0.347,0.021,0.699,0.051,1.054,0.083
			C100.495,46.41,100.654,46.343,100.671,46.141z M100.448,47.401c-0.341-0.057-0.659-0.091-0.954-0.118
			c-0.353-0.029-0.679-0.045-0.98-0.045c-1.203,0-2.115,0.238-2.737,0.709c-0.622,0.472-0.934,1.156-0.934,2.055
			c0,0.747,0.273,1.396,0.683,1.844c0.457,0.5,1.073,0.723,1.85,0.723c0.99,0,1.78-0.366,2.395-0.957
			c0.613-0.589,0.883-1.479,0.883-2.453V47.62C100.652,47.62,100.663,47.437,100.448,47.401z"/>
		<path fill="#5E5958" d="M114.049,39.709c0-0.648-0.009-1.137-0.081-1.402c-0.071-0.267-0.241-0.396-0.407-0.45
			c-0.075-0.021-0.209-0.045-0.4-0.067c-0.45-0.047-0.675-0.209-0.675-0.491c0-0.159,0.072-0.301,0.213-0.425
			c0.14-0.118,0.376-0.238,0.702-0.353c0.434-0.16,0.839-0.287,1.216-0.375c0.377-0.095,0.665-0.14,0.863-0.14
			c0.213,0,0.323,0.047,0.401,0.166c0.081,0.119,0.073,0.353,0.073,0.681v13.276c0,0.722,0.041,1.422,0.167,1.587
			c0.138,0.183,0.292,0.178,0.695,0.236c0.403,0.057,0.517,0.218,0.517,0.484c0,0.266-0.232,0.548-0.877,0.847
			c-0.645,0.296-1.254,0.445-1.834,0.445c-0.213,0-0.36-0.06-0.443-0.178c-0.084-0.117-0.128-0.342-0.128-0.668v-0.378
			c0-0.122-0.008-0.204-0.022-0.254c-0.016-0.043-0.042-0.065-0.087-0.071c-0.146-0.025-0.419,0.24-0.726,0.461
			c-0.514,0.367-1.017,0.667-1.556,0.842c-0.528,0.172-0.93,0.246-1.539,0.246c-1.522,0-2.767-0.687-3.736-1.762
			c-0.967-1.075-1.451-2.479-1.451-4.213c0-1.814,0.547-3.324,1.641-4.533c1.093-1.206,2.446-1.878,4.061-1.878
			c1.021,0,1.992,0.318,2.915,0.822c0.138,0.076,0.201,0.091,0.23,0.098c0.088,0.023,0.189,0.025,0.236-0.09
			c0.037-0.095,0.032-0.567,0.032-0.567V39.709z M114.047,45.627c0-0.997-0.265-1.757-0.79-2.279
			c-0.527-0.522-1.295-0.806-2.302-0.806c-1.161,0-2.103,0.484-2.818,1.411c-0.717,0.927-1.077,2.145-1.077,3.661
			c0,1.395,0.333,2.517,0.994,3.366c0.667,0.851,1.538,1.324,2.612,1.324c1.29,0,2.195-0.713,2.651-1.159
			c0.473-0.463,0.729-1.204,0.729-1.826v-0.481V45.627z"/>
		<path fill="#5E5958" d="M68.97,42.953c-0.974-1.072-2.41-1.61-3.954-1.61c-0.731,0-1.386,0.127-1.96,0.381
			c-0.32,0.144-0.623,0.329-0.902,0.543c-0.148,0.114-0.274,0.217-0.431,0.366c-0.136,0.13-0.19,0.236-0.296,0.207
			c-0.003,0-0.104-0.011-0.104-0.173c0-0.868,0-5.747,0-5.814c0-0.336-0.026-0.561-0.107-0.673
			c-0.079-0.115-0.234-0.174-0.463-0.174c-0.168,0-0.447,0.049-0.846,0.144c-0.396,0.094-0.791,0.218-1.187,0.371
			c-0.304,0.13-0.526,0.256-0.663,0.378s-0.207,0.254-0.207,0.399c0,0.266,0.202,0.425,0.602,0.48
			c0.4,0.053,0.608,0.164,0.713,0.251c0.165,0.138,0.252,0.394,0.252,1.6v10.993c-0.01,0.336-0.03,0.613-0.068,0.82
			c-0.093,0.488-0.34,0.659-0.7,0.862c-0.152,0.088-0.192,0.316-0.015,0.46c0.203,0.163,0.453,0.235,0.77,0.231
			c0.154-0.002,0.323-0.031,0.51-0.098c0.157-0.053,0.326-0.138,0.52-0.236c0.114-0.06,0.186-0.015,0.223,0.012
			c0.485,0.341,0.991,0.6,1.515,0.773c0.566,0.187,1.161,0.281,1.794,0.281c0.787,0,1.692-0.131,2.373-0.39
			c0.682-0.26,1.291-0.637,1.823-1.131c0.731-0.679,1.293-1.452,1.686-2.318c0.392-0.869,0.588-1.784,0.588-2.743
			C70.433,45.425,69.945,44.027,68.97,42.953z M67.258,51.258c-0.712,0.946-1.812,1.418-2.964,1.418
			c-0.692,0-1.311-0.183-1.852-0.547c-0.539-0.367-0.875-0.816-1.004-1.35c-0.055-0.196-0.068-0.622-0.1-1.272
			c-0.031-0.653-0.017-1.477-0.017-2.476c0-1.035-0.008-1.727,0.042-2.071c0.049-0.348,0.159-0.623,0.271-0.818
			c0.289-0.51,0.7-0.885,1.22-1.17c0.517-0.286,1.072-0.43,1.668-0.43c1.074,0,2.119,0.457,2.788,1.371
			c0.672,0.914,1.007,2.117,1.007,3.608C68.318,49.071,67.965,50.315,67.258,51.258z"/>
		<path fill="#5E5958" d="M58.112,52.497c-0.078,0.01-0.209,0.045-0.304,0.055c-0.444,0.041-0.959-0.042-1.629-0.474
			c-0.56-0.362-1.123-0.771-1.33-0.924c-0.054-0.04-0.032-0.129-0.009-0.16c0.236-0.324,0.426-0.671,0.564-1.005
			c0.152-0.369,0.288-0.849,0.338-1.493c0,0,0.026-0.66,0.384-0.82c0.188-0.083,0.261-0.164,0.28-0.286
			c0.015-0.101-0.015-0.149-0.047-0.177c-0.032-0.031-0.102-0.06-0.211-0.06c-0.111,0-2.4,0-2.581,0
			c-0.143,0-0.251-0.004-0.328,0.042c-0.076,0.043-0.116,0.13-0.116,0.215c0,0.148,0.182,0.245,0.547,0.288
			c0.183,0.024,0.327,0.05,0.435,0.073c0.258,0.055,0.441,0.186,0.558,0.392c0.115,0.206,0.17,0.546,0.171,0.848
			c0.004,0.366-0.084,0.718-0.146,0.901c-0.094,0.281-0.174,0.452-0.305,0.628c-0.1,0.137-0.195,0.096-0.226,0.069
			c-1.603-1.345-2.895-2.492-3.819-3.627c-0.942-1.156-1.414-2.117-1.414-2.885c0-0.267,0.108-0.495,0.322-0.689
			c0.213-0.195,0.469-0.293,0.763-0.293c0.444,0,0.871,0.153,1.285,0.454c0.413,0.305,0.739,0.706,0.975,1.207
			c0.083,0.188,0.153,0.403,0.212,0.648c0.055,0.223,0.143,0.334,0.267,0.334c0.083,0,0.145-0.021,0.184-0.059
			c0.041-0.042,0.059-0.101,0.059-0.178c0-0.047,0-2.372,0-2.436c0-0.049,0.004-0.12-0.03-0.162
			c-0.036-0.042-0.117-0.06-0.168-0.044c-0.037,0.014-0.062,0.052-0.176,0.099c-0.109,0.043-0.245,0.07-0.323,0.07
			c-0.202-0.002-0.52-0.066-1.01-0.244c-0.49-0.177-0.948-0.264-1.376-0.264c-0.692,0-1.27,0.225-1.73,0.681
			c-0.46,0.455-0.688,1.029-0.688,1.724c0,0.24,0.036,0.562,0.096,0.789c0.04,0.147,0.103,0.309,0.185,0.516
			c0.042,0.102-0.017,0.156-0.055,0.171c-0.656,0.27-1.266,0.692-1.676,1.286c-0.432,0.628-0.592,1.324-0.592,2.072
			c0,1.066,0.44,1.945,1.285,2.638c0.843,0.689,1.932,1.048,3.264,1.048c0.658,0,1.307-0.104,1.945-0.306
			c0.581-0.187,1.102-0.454,1.565-0.779c0.014-0.008,0.048-0.035,0.078-0.037c0.032-0.002,0.056,0.023,0.07,0.03
			c0.433,0.294,0.877,0.562,1.306,0.776c0.044,0.025,0.089,0.045,0.128,0.064c0.305,0.14,0.679,0.219,0.948,0.238
			c0.642,0.053,1.195-0.074,1.62-0.248c0.342-0.14,0.621-0.353,0.621-0.568C58.277,52.491,58.161,52.489,58.112,52.497z
			 M52.233,52.369c-0.307,0.098-0.642,0.147-1.012,0.147c-0.513,0-1.024-0.118-1.535-0.354s-1.007-0.581-1.484-1.041
			c-0.432-0.413-0.771-0.859-1.014-1.342c-0.245-0.482-0.365-0.94-0.365-1.373c0-0.415,0.12-0.771,0.361-1.074
			c0.166-0.209,0.394-0.374,0.573-0.419c0.174-0.045,0.287,0.012,0.375,0.102c0.105,0.11,0.236,0.308,0.402,0.547
			c0.301,0.439,0.585,0.792,0.84,1.104c0.334,0.39,0.714,0.78,1.138,1.175c0.054,0.051,1.138,1.078,2.456,2.051
			c0.011,0.009,0.038,0.036,0.036,0.063c-0.003,0.025-0.034,0.053-0.037,0.057C52.729,52.167,52.485,52.288,52.233,52.369z"/>
		<path fill="#5E5958" d="M32.082,52.305c-0.354-0.109-0.495-0.205-0.617-0.383c-0.079-0.113-0.188-0.33-0.188-0.914
			c0,0,0-14.044,0-14.088c0-0.326-0.021-0.608-0.109-0.726c-0.087-0.118-0.199-0.188-0.428-0.188c-0.175,0-0.458,0.049-0.852,0.144
			c-0.391,0.094-0.79,0.218-1.192,0.371c-0.299,0.13-0.514,0.256-0.652,0.378c-0.137,0.122-0.206,0.254-0.206,0.399
			c0,0.266,0.206,0.427,0.617,0.485c0.41,0.058,0.57,0.146,0.671,0.246c0.198,0.195,0.217,0.345,0.217,1.602v10.954
			c0,0.875,0.009,1.137-0.088,1.313c-0.084,0.15-0.361,0.298-0.715,0.407c-0.354,0.111-0.532,0.266-0.532,0.464
			c0,0.243,0.183,0.42,0.55,0.531c0.365,0.109,1.012,0.166,1.829,0.166c0.807,0,1.324-0.057,1.685-0.166
			c0.363-0.111,0.544-0.288,0.544-0.531C32.614,52.57,32.437,52.416,32.082,52.305z"/>
		<g>
			<path fill="#5E5958" d="M24.385,38.706c0.351,0,0.645-0.128,0.881-0.381c0.236-0.255,0.349-0.559,0.339-0.915
				c-0.011-0.349-0.132-0.634-0.364-0.855c-0.232-0.223-0.526-0.333-0.885-0.333c-0.357,0-0.655,0.13-0.892,0.386
				c-0.236,0.258-0.348,0.576-0.337,0.956c0.01,0.326,0.136,0.598,0.378,0.813C23.749,38.597,24.042,38.706,24.385,38.706z"/>
			<path fill="#5E5958" d="M26.183,52.305c-0.355-0.109-0.496-0.205-0.619-0.383c-0.077-0.113-0.188-0.33-0.188-0.914
				c0,0,0-8.709,0-8.75c0-0.329-0.019-0.61-0.108-0.73c-0.088-0.116-0.2-0.185-0.429-0.185c-0.174,0-0.458,0.047-0.851,0.144
				c-0.392,0.095-0.79,0.219-1.192,0.369c-0.299,0.131-0.514,0.257-0.651,0.38c-0.136,0.12-0.205,0.254-0.205,0.399
				c0,0.266,0.205,0.428,0.616,0.484c0.411,0.057,0.57,0.144,0.67,0.245c0.198,0.195,0.218,0.345,0.218,1.604v5.616
				c0,0.875,0.009,1.137-0.088,1.313c-0.085,0.15-0.362,0.298-0.716,0.407c-0.353,0.111-0.53,0.266-0.53,0.464
				c0,0.243,0.182,0.42,0.546,0.531c0.367,0.109,1.017,0.166,1.831,0.166c0.807,0,1.323-0.057,1.685-0.166
				c0.36-0.111,0.542-0.288,0.542-0.531C26.713,52.57,26.536,52.416,26.183,52.305z"/>
		</g>
	</g>
	<path fill="#5E5958" d="M65.192,21.494L65.192,21.494c-0.811-5.311-1.016-7.069-1.036-7.248c0-0.002,0-0.007,0-0.007
		c-0.002-0.006-0.002-0.008-0.002-0.008l0,0c-0.006-0.052-0.006-0.105-0.006-0.16c0-0.662,0.389-1.227,0.946-1.494v-0.002
		c0,0,0.271-0.159,1.841-0.59c0.226-0.063,0.435-0.147,0.555-0.193l0,0c0.7-0.29,1.192-0.979,1.192-1.783
		c0-1.012-0.779-1.84-1.769-1.923l-0.002-0.001c-3.007-0.264-3.538-0.41-3.538-0.41l0.001-0.001c-0.77-0.14-1.354-0.815-1.354-1.625
		c0-0.166,0.027-0.325,0.072-0.477h-0.002c0.146-0.521,0.16-0.619,0.188-0.847c0.026-0.222,0.032-0.528,0.032-0.528v0.001
		c0-0.015,0-0.028,0-0.045c0-1.6-1.298-2.895-2.896-2.895c-1.598,0-2.896,1.294-2.896,2.895c0,0.017,0,0.031,0,0.045V4.196
		c0,0,0.005,0.306,0.034,0.528c0.028,0.228,0.041,0.326,0.186,0.847l0,0c0.045,0.152,0.07,0.311,0.07,0.477
		c0,0.81-0.583,1.485-1.353,1.625l0.001,0.001c0,0-0.53,0.146-3.537,0.41h-0.002v0.001c-0.992,0.083-1.769,0.912-1.769,1.923
		c0,0.804,0.493,1.493,1.192,1.783l0,0c0.121,0.046,0.328,0.131,0.556,0.193c1.567,0.431,1.838,0.59,1.838,0.59v0.002
		c0.56,0.267,0.948,0.833,0.948,1.494c0,0.055-0.003,0.108-0.007,0.16l0,0c0,0,0,0.002,0,0.007
		c-0.001,0.001-0.001,0.006-0.001,0.008c-0.02,0.179-0.225,1.937-1.036,7.248l0,0c-0.002,0.018-0.044,0.311-0.056,0.43
		c-0.021,0.218-0.024,0.36-0.024,0.384c-0.021,0.934,0.592,1.794,1.532,2.045c1.068,0.286,2.163-0.318,2.503-1.356l0,0l1.045-2.893
		l0,0c0.115-0.319,0.42-0.547,0.776-0.547c0.357,0,0.661,0.228,0.776,0.547h0.001l1.047,2.893c0.335,1.039,1.433,1.643,2.499,1.356
		c0.939-0.251,1.552-1.108,1.533-2.039l0.002,0.001c0,0-0.002-0.148-0.024-0.391C65.236,21.804,65.194,21.512,65.192,21.494z"/>
	<g>
		<g>
			<g>
				<path fill="#5E5958" d="M45.844,59.904v1.57h3.117c0.222,0,0.385,0.071,0.385,0.36c0,0.241-0.162,0.36-0.353,0.36h-3.149v2.511
					h3.482c0.275,0,0.43,0.07,0.43,0.359c0,0.238-0.156,0.358-0.395,0.358h-3.518v2.434c0,0.39-0.717,0.39-0.717,0.006v-2.439h-3.48
					c-0.267,0-0.431-0.128-0.431-0.358c0-0.216,0.157-0.359,0.431-0.359h3.48v-2.511h-2.259c-0.334,0.669-0.681,1.123-1.04,1.361
					c-0.191,0.145-0.371,0.145-0.538,0c-0.12-0.144-0.095-0.313,0.073-0.5c0.765-0.79,1.195-1.713,1.291-2.764
					c0.024-0.192,0.155-0.287,0.395-0.287c0.215,0.024,0.327,0.13,0.323,0.324c-0.005,0.39-0.066,0.713-0.215,1.145h1.971v-1.57
					c0-0.193,0.119-0.323,0.359-0.323C45.708,59.581,45.844,59.695,45.844,59.904z"/>
				<path fill="#5E5958" d="M52.413,61.116h0.754c0.501,0.026,0.739,0.281,0.705,0.784c-0.098,1.396-0.473,3.136-0.919,4.1
					c-0.155,0.325-0.615,1.318-1.795,1.9c-0.239,0.116-0.407,0.093-0.501-0.072c-0.12-0.194-0.072-0.358,0.144-0.504
					c0.597-0.309,1.042-0.718,1.327-1.22c-0.026-0.024-0.06-0.06-0.108-0.104c-0.717-0.769-1.01-1.181-1.005-1.402
					c0.003-0.071,0.054-0.435,0.574-2.799h-0.679c-0.194,0-0.325-0.111-0.325-0.324c0-0.215,0.13-0.332,0.325-0.358h0.823
					c0.07-0.477,0.112-0.871,0.142-1.182c0.03-0.299,0.179-0.377,0.394-0.354c0.195,0.02,0.271,0.114,0.271,0.336
					C52.534,59.981,52.551,60.291,52.413,61.116z M52.986,61.799h-0.681c-0.215,0.982-0.37,1.688-0.465,2.117
					c-0.073,0.358-0.109,0.575-0.109,0.646c0,0.121,0.67,0.907,0.717,0.934c0.311-0.861,0.562-1.987,0.754-3.375
					C53.225,61.906,53.155,61.799,52.986,61.799z M53.561,59.971h3.659c0.549,0,0.813,0.228,0.788,0.682l-0.143,1.937
					c-0.022,0.258,0.021,0.287,0.252,0.287h0.427c0.403,0,0.612,0.284,0.612,0.74v1.595c0,1.244-0.373,1.859-0.822,2.214
					c-0.57,0.452-1.863,0.677-3.086,0.437c-0.275-0.054-0.429-0.234-0.324-0.501c0.077-0.188,0.204-0.263,0.466-0.215
					c1.388,0.287,2.212-0.021,2.513-0.32c0.223-0.225,0.512-0.61,0.537-1.614v-1.437c0-0.152-0.108-0.218-0.252-0.218h-0.487
					c-0.407,0-0.628-0.188-0.587-0.646l0.143-1.936c0.018-0.242-0.095-0.323-0.287-0.323h-1.472
					c0.021,2.082-0.239,3.577-0.503,4.487c-0.233,0.869-0.588,1.742-1.24,2.58c-0.085,0.108-0.385,0.572-0.758,0.386
					c-0.215-0.106-0.224-0.317-0.066-0.528c0.083-0.105,0.164-0.198,0.264-0.314c1.141-1.329,1.648-3.818,1.622-6.61h-1.255
					c-0.215,0-0.323-0.109-0.323-0.322C53.238,60.113,53.346,59.992,53.561,59.971z"/>
				<g>
					<path fill="#5E5958" d="M71.105,61.159h4.866c0.188,0,0.292,0.109,0.292,0.32v1.412c0,1.435-0.216,2.036-0.519,2.269
						c-0.209,0.162-0.498,0.281-1.226,0.266c-0.215-0.006-0.39,0.064-0.43,0.287c-0.034,0.183,0.021,0.371,0.251,0.394
						c0.94,0.093,1.542-0.075,1.923-0.384c0.479-0.382,0.754-1.039,0.754-2.759V61.45c0.022-0.622-0.219-0.962-0.716-0.962h-4.867
						c0,0,0.149-0.313,0.167-0.504c0.017-0.191-0.063-0.349-0.287-0.394c-0.235-0.049-0.396,0.061-0.466,0.251
						c-0.311,0.957-0.899,1.795-1.759,2.513c-0.19,0.166-0.203,0.345-0.036,0.537c0.191,0.168,0.37,0.151,0.575,0
						C70.137,62.512,70.84,61.712,71.105,61.159z"/>
					<path fill="#5E5958" d="M77.491,66.319c-0.196-0.139-0.425-0.032-0.551,0.144c-0.543,0.766-1.365,0.814-2.338,0.814h-3.182
						c-0.399,0-0.502-0.095-0.502-0.465V64.9h3.058c0.576,0,0.887-0.159,0.887-0.681v-1.438c0-0.474-0.223-0.607-0.859-0.607h-3.295
						c0,0-0.506,0.025-0.506,0.696v4.059c0,0.746,0.214,1.041,1.038,1.041h3.647c0.742,0,2.113-0.174,2.633-1.082
						C77.627,66.698,77.677,66.455,77.491,66.319z M70.919,63.177c0-0.188,0.085-0.322,0.288-0.322h2.655
						c0.19,0,0.285,0.085,0.285,0.252v0.755c0,0.264-0.067,0.358-0.285,0.358h-2.943V63.177z"/>
				</g>
			</g>
			<path fill="#5E5958" d="M68.051,60.159h-7.535c-0.293,0-0.395,0.138-0.395,0.359c0,0.217,0.156,0.323,0.395,0.323h3.312
				c-0.097,0.264-0.252,0.597-0.467,0.957h-2.09c-0.552,0-0.789,0.179-0.789,0.681v4.881c0,0.447,0.194,0.609,0.824,0.609h5.975
				c0.507,0,0.753-0.174,0.753-0.573v-4.883c0-0.466-0.234-0.715-0.753-0.715h-3.094c0.166-0.36,0.296-0.693,0.392-0.957h3.473
				c0.213,0,0.342-0.108,0.342-0.323C68.393,60.306,68.264,60.185,68.051,60.159z M63.03,64.307h2.455v1.146H63.03V64.307z
				 M62.314,67.277H61.45c-0.169,0-0.251-0.069-0.251-0.284v-4.228c0-0.183,0.051-0.286,0.251-0.286h0.864V67.277z M63.03,67.277
				v-1.144h2.455v1.144H63.03z M66.203,62.479h0.896c0.147,0,0.215,0.068,0.215,0.288v4.23c0,0.275-0.062,0.279-0.215,0.279h-0.896
				V62.479z M65.485,62.479v1.145H63.03v-1.145H65.485z"/>
		</g>
	</g>
</g>
</svg>
